if (_typeface_js && _typeface_js.loadFace) _typeface_js.loadFace({"glyphs":{"¦":{"x_min":55.5625,"x_max":229.1875,"ha":285,"o":"m 229 -318 l 55 -318 l 55 225 l 229 225 l 229 -318 m 229 494 l 55 494 l 55 1038 l 229 1038 l 229 494 "},"Ž":{"x_min":13.890625,"x_max":513.9375,"ha":515,"o":"m 284 187 l 473 187 l 438 0 l 13 0 l 240 822 l 30 822 l 65 1009 l 501 1009 l 284 187 m 194 1058 l 38 1240 l 200 1240 l 275 1140 l 350 1240 l 513 1240 l 356 1058 l 194 1058 "},"Á":{"x_min":13.890625,"x_max":627.828125,"ha":607,"o":"m 234 125 l 216 0 l 13 0 l 195 1009 l 411 1009 l 593 0 l 390 0 l 372 125 l 234 125 m 256 284 l 350 284 l 304 644 l 256 284 m 379 1058 l 231 1058 l 412 1226 l 627 1226 l 379 1058 "},"Κ":{"x_min":41.671875,"x_max":588.9375,"ha":603,"o":"m 247 575 l 277 575 l 380 1010 l 588 1010 l 468 543 l 587 0 l 366 0 l 287 415 l 247 415 l 247 0 l 41 0 l 41 1010 l 247 1010 l 247 575 l 247 575 "},"Î":{"x_min":-93.0625,"x_max":381.96875,"ha":285,"o":"m 41 1009 l 243 1009 l 243 0 l 41 0 l 41 1009 m 225 1240 l 381 1058 l 218 1058 l 143 1158 l 68 1058 l -93 1058 l 62 1240 l 225 1240 "},"e":{"x_min":41.671875,"x_max":468.09375,"ha":496,"o":"m 41 1007 l 433 1007 l 468 819 l 248 819 l 248 580 l 415 580 l 415 406 l 248 406 l 248 187 l 459 187 l 425 0 l 41 0 l 41 1007 "},"»":{"x_min":20.828125,"x_max":590.328125,"ha":604,"o":"m 354 379 l 186 104 l 20 104 l 184 379 l 20 654 l 186 654 l 354 379 m 590 379 l 427 104 l 258 104 l 426 379 l 258 654 l 427 654 l 590 379 "},"∆":{"x_min":13.890625,"x_max":597.265625,"ha":611,"o":"m 365 187 l 305 633 l 245 187 l 365 187 m 597 0 l 13 0 l 202 1010 l 408 1010 l 597 0 "},"ò":{"x_min":55.5625,"x_max":1105.640625,"ha":1108,"o":"m 745 336 q 315 336 531 282 q 349 287 329 312 q 396 240 369 262 q 456 204 423 218 q 530 190 490 190 q 602 204 569 190 q 663 240 636 218 q 711 287 690 262 q 745 336 732 312 m 833 472 l 227 472 l 301 355 q 529 328 416 327 q 758 355 643 329 l 833 472 m 448 629 q 419 707 430 666 q 384 779 408 747 q 367 779 380 784 q 339 764 354 773 q 314 746 325 755 q 306 734 304 737 l 406 609 q 416 609 408 607 q 431 614 423 611 q 444 622 438 618 q 448 629 450 626 m 581 515 l 530 639 l 480 515 l 581 515 m 752 734 q 744 746 754 737 q 720 764 734 755 q 693 779 707 773 q 676 779 680 784 q 639 707 651 747 q 612 629 627 666 q 615 622 609 626 q 629 614 620 618 q 644 609 637 611 q 654 609 651 607 l 752 734 m 912 515 q 882 366 912 436 q 800 245 852 297 q 679 163 748 193 q 530 133 609 133 q 381 163 451 133 q 260 245 312 193 q 177 366 208 297 q 147 515 147 436 q 177 663 147 594 q 260 785 208 733 q 381 867 312 837 q 530 897 451 897 q 679 867 609 897 q 800 785 748 837 q 882 663 852 733 q 912 515 912 594 m 940 515 q 908 675 940 600 q 820 805 876 750 q 690 893 765 861 q 530 926 615 926 q 370 893 445 926 q 239 805 295 861 q 150 675 183 750 q 118 515 118 600 q 150 356 118 430 q 239 225 183 281 q 370 136 295 169 q 530 104 445 104 q 690 136 615 104 q 820 225 765 169 q 908 356 876 281 q 940 515 940 430 m 982 144 l 945 144 l 945 49 l 919 49 l 919 144 l 884 144 l 884 167 l 982 167 l 982 144 m 1005 515 q 968 330 1005 416 q 866 179 930 244 q 714 76 801 114 q 530 39 627 39 q 345 76 431 39 q 195 179 259 114 q 93 330 130 244 q 55 515 55 416 q 93 700 55 614 q 195 852 130 787 q 345 954 259 916 q 530 992 431 992 q 714 954 627 992 q 866 852 801 916 q 968 700 930 787 q 1005 515 1005 614 m 1105 49 l 1084 49 l 1084 144 l 1061 49 l 1038 49 l 1015 144 l 1015 49 l 993 49 l 993 166 l 1027 166 l 1051 75 l 1070 166 l 1105 166 l 1105 49 "},"^":{"x_min":55.5625,"x_max":916.734375,"ha":972,"o":"m 486 886 l 248 433 l 55 433 l 404 1038 l 568 1038 l 916 433 l 723 433 l 486 886 "},"«":{"x_min":20.828125,"x_max":590.328125,"ha":604,"o":"m 425 654 l 590 654 l 426 379 l 590 104 l 425 104 l 256 379 l 425 654 m 183 654 l 352 654 l 184 379 l 352 104 l 183 104 l 20 379 l 183 654 "},"í":{"x_min":55.5625,"x_max":1105.640625,"ha":1108,"o":"m 745 336 q 315 336 531 282 q 349 287 329 312 q 396 240 369 262 q 456 204 423 218 q 530 190 490 190 q 602 204 569 190 q 663 240 636 218 q 711 287 690 262 q 745 336 732 312 m 833 472 l 227 472 l 301 355 q 529 328 416 327 q 758 355 643 329 l 833 472 m 448 629 q 419 707 430 666 q 384 779 408 747 q 367 779 380 784 q 339 764 354 773 q 314 746 325 755 q 306 734 304 737 l 406 609 q 416 609 408 607 q 431 614 423 611 q 444 622 438 618 q 448 629 450 626 m 581 515 l 530 639 l 480 515 l 581 515 m 752 734 q 744 746 754 737 q 720 764 734 755 q 693 779 707 773 q 676 779 680 784 q 639 707 651 747 q 612 629 627 666 q 615 622 609 626 q 629 614 620 618 q 644 609 637 611 q 654 609 651 607 l 752 734 m 912 515 q 882 366 912 436 q 800 245 852 297 q 679 163 748 193 q 530 133 609 133 q 381 163 451 133 q 260 245 312 193 q 177 366 208 297 q 147 515 147 436 q 177 663 147 594 q 260 785 208 733 q 381 867 312 837 q 530 897 451 897 q 679 867 609 897 q 800 785 748 837 q 882 663 852 733 q 912 515 912 594 m 940 515 q 908 675 940 600 q 820 805 876 750 q 690 893 765 861 q 530 926 615 926 q 370 893 445 926 q 239 805 295 861 q 150 675 183 750 q 118 515 118 600 q 150 356 118 430 q 239 225 183 281 q 370 136 295 169 q 530 104 445 104 q 690 136 615 104 q 820 225 765 169 q 908 356 876 281 q 940 515 940 430 m 982 144 l 945 144 l 945 49 l 919 49 l 919 144 l 884 144 l 884 167 l 982 167 l 982 144 m 1005 515 q 968 330 1005 416 q 866 179 930 244 q 714 76 801 114 q 530 39 627 39 q 345 76 431 39 q 195 179 259 114 q 93 330 130 244 q 55 515 55 416 q 93 700 55 614 q 195 852 130 787 q 345 954 259 916 q 530 992 431 992 q 714 954 627 992 q 866 852 801 916 q 968 700 930 787 q 1005 515 1005 614 m 1105 49 l 1084 49 l 1084 144 l 1061 49 l 1038 49 l 1015 144 l 1015 49 l 993 49 l 993 166 l 1027 166 l 1051 75 l 1070 166 l 1105 166 l 1105 49 "},"ˆ":{"x_min":84.734375,"x_max":559.765625,"ha":643,"o":"m 402 1274 l 559 1092 l 395 1092 l 320 1192 l 245 1092 l 84 1092 l 240 1274 l 402 1274 "},"µ":{"x_min":41.671875,"x_max":520.875,"ha":563,"o":"m 336 49 q 307 12 329 24 q 254 0 286 0 l 223 0 l 223 -267 l 41 -267 l 41 743 l 226 743 l 226 183 q 243 166 226 166 l 319 166 q 336 183 336 166 l 336 743 l 520 743 l 520 0 l 336 0 l 336 49 "},"Ι":{"x_min":44.453125,"x_max":245.859375,"ha":290,"o":"m 44 1010 l 245 1010 l 245 0 l 44 0 l 44 1010 "},"’":{"x_min":20.828125,"x_max":254.1875,"ha":275,"o":"m 86 1034 l 254 1034 l 145 638 l 20 638 l 86 1034 "},"Ν":{"x_min":41.671875,"x_max":543.09375,"ha":585,"o":"m 41 1010 l 233 1010 l 336 602 l 336 1010 l 543 1010 l 543 0 l 336 0 l 227 420 l 227 0 l 41 0 l 41 1010 "},"-":{"x_min":41.671875,"x_max":351.421875,"ha":393,"o":"m 55 571 l 351 571 l 337 406 l 41 406 l 55 571 "},"Q":{"x_min":41.671875,"x_max":568.09375,"ha":610,"o":"m 263 830 q 244 809 244 830 l 244 197 q 247 181 244 186 q 263 176 251 176 l 344 176 q 360 181 356 176 q 363 197 363 186 l 363 811 q 345 830 363 830 l 263 830 m 431 1007 q 535 971 502 1007 q 568 876 568 936 l 568 155 q 533 36 568 72 q 411 0 498 0 l 384 0 l 384 -81 l 223 -81 l 223 0 l 198 0 q 76 36 111 0 q 41 155 41 72 l 41 876 q 74 971 41 936 q 177 1007 106 1007 l 431 1007 "},"Ш":{"x_min":41.671875,"x_max":877.84375,"ha":920,"o":"m 877 0 l 41 0 l 41 1010 l 247 1010 l 247 187 l 356 187 l 356 1010 l 562 1010 l 562 187 l 672 187 l 672 1010 l 877 1010 l 877 0 "},"M":{"x_min":41.671875,"x_max":687.5625,"ha":729,"o":"m 237 475 l 237 0 l 41 0 l 41 1007 l 254 1007 l 363 581 l 473 1007 l 687 1007 l 687 0 l 491 0 l 491 475 l 363 72 l 237 475 "},"Ψ":{"x_min":41.671875,"x_max":837.5625,"ha":879,"o":"m 344 0 l 344 187 l 197 187 q 77 222 113 187 q 41 340 41 257 l 41 1010 l 240 1010 l 240 384 q 243 368 240 373 q 259 362 247 362 l 344 362 l 344 1010 l 534 1010 l 534 362 l 619 362 q 635 368 632 362 q 638 384 638 373 l 638 1010 l 837 1010 l 837 340 q 801 222 837 257 q 682 187 765 187 l 534 187 l 534 0 l 344 0 "},"œ":{"x_min":55.5625,"x_max":1105.640625,"ha":1108,"o":"m 745 336 q 315 336 531 282 q 349 287 329 312 q 396 240 369 262 q 456 204 423 218 q 530 190 490 190 q 602 204 569 190 q 663 240 636 218 q 711 287 690 262 q 745 336 732 312 m 833 472 l 227 472 l 301 355 q 529 328 416 327 q 758 355 643 329 l 833 472 m 448 629 q 419 707 430 666 q 384 779 408 747 q 367 779 380 784 q 339 764 354 773 q 314 746 325 755 q 306 734 304 737 l 406 609 q 416 609 408 607 q 431 614 423 611 q 444 622 438 618 q 448 629 450 626 m 581 515 l 530 639 l 480 515 l 581 515 m 752 734 q 744 746 754 737 q 720 764 734 755 q 693 779 707 773 q 676 779 680 784 q 639 707 651 747 q 612 629 627 666 q 615 622 609 626 q 629 614 620 618 q 644 609 637 611 q 654 609 651 607 l 752 734 m 912 515 q 882 366 912 436 q 800 245 852 297 q 679 163 748 193 q 530 133 609 133 q 381 163 451 133 q 260 245 312 193 q 177 366 208 297 q 147 515 147 436 q 177 663 147 594 q 260 785 208 733 q 381 867 312 837 q 530 897 451 897 q 679 867 609 897 q 800 785 748 837 q 882 663 852 733 q 912 515 912 594 m 940 515 q 908 675 940 600 q 820 805 876 750 q 690 893 765 861 q 530 926 615 926 q 370 893 445 926 q 239 805 295 861 q 150 675 183 750 q 118 515 118 600 q 150 356 118 430 q 239 225 183 281 q 370 136 295 169 q 530 104 445 104 q 690 136 615 104 q 820 225 765 169 q 908 356 876 281 q 940 515 940 430 m 982 144 l 945 144 l 945 49 l 919 49 l 919 144 l 884 144 l 884 167 l 982 167 l 982 144 m 1005 515 q 968 330 1005 416 q 866 179 930 244 q 714 76 801 114 q 530 39 627 39 q 345 76 431 39 q 195 179 259 114 q 93 330 130 244 q 55 515 55 416 q 93 700 55 614 q 195 852 130 787 q 345 954 259 916 q 530 992 431 992 q 714 954 627 992 q 866 852 801 916 q 968 700 930 787 q 1005 515 1005 614 m 1105 49 l 1084 49 l 1084 144 l 1061 49 l 1038 49 l 1015 144 l 1015 49 l 993 49 l 993 166 l 1027 166 l 1051 75 l 1070 166 l 1105 166 l 1105 49 "},"{":{"x_min":0,"x_max":390.3125,"ha":363,"o":"m 0 536 q 68 556 45 537 q 100 604 91 575 q 106 667 108 633 q 104 733 105 701 q 95 882 101 812 q 105 1003 90 951 q 171 1083 120 1054 q 331 1113 222 1113 l 390 1113 l 390 1049 q 318 1017 340 1050 q 293 935 297 983 q 293 833 288 886 q 300 743 298 780 q 297 668 301 707 q 281 594 294 629 q 243 535 268 560 q 179 505 219 511 q 243 474 219 498 q 281 416 268 450 q 297 342 294 382 q 300 268 301 302 q 293 177 298 230 q 293 76 288 125 q 318 -6 297 27 q 390 -38 340 -40 l 390 -100 l 331 -100 q 171 -70 222 -100 q 105 9 120 -41 q 95 128 90 59 q 104 277 101 197 q 106 342 105 308 q 100 405 108 376 q 68 453 91 434 q 0 473 45 472 l 0 536 "},"¼":{"x_min":27.78125,"x_max":1015.359375,"ha":1043,"o":"m 83 1010 l 244 1010 l 244 393 l 295 393 l 295 253 l 40 253 l 40 393 l 90 393 l 90 869 l 27 869 l 83 1010 m 713 1031 l 402 -19 l 280 -19 l 590 1031 l 713 1031 m 762 757 l 973 757 l 973 256 l 1015 256 l 1015 137 l 973 137 l 973 0 l 825 0 l 825 137 l 594 137 l 594 308 l 762 729 l 762 757 m 825 257 l 825 547 l 738 301 l 738 257 l 825 257 "},"#":{"x_min":41.671875,"x_max":611.15625,"ha":639,"o":"m 376 549 l 291 549 l 277 461 l 361 461 l 376 549 l 376 549 m 611 632 l 595 549 l 472 549 l 455 461 l 579 461 l 566 378 l 440 378 l 373 0 l 277 0 l 345 378 l 262 378 l 194 0 l 98 0 l 165 378 l 41 378 l 56 461 l 180 461 l 195 549 l 70 549 l 88 632 l 212 632 l 279 1010 l 375 1010 l 306 632 l 390 632 l 459 1010 l 552 1010 l 487 632 l 611 632 l 611 632 "},"Ê":{"x_min":11.109375,"x_max":486.15625,"ha":496,"o":"m 41 1009 l 433 1009 l 468 822 l 248 822 l 248 580 l 415 580 l 415 406 l 248 406 l 248 187 l 459 187 l 425 0 l 41 0 l 41 1009 m 329 1240 l 486 1058 l 322 1058 l 247 1158 l 172 1058 l 11 1058 l 166 1240 l 329 1240 "},")":{"x_min":13.890625,"x_max":343.078125,"ha":385,"o":"m 13 -56 q 101 214 72 74 q 130 503 130 353 q 100 794 130 653 q 13 1065 69 934 l 155 1065 q 292 808 241 949 q 343 503 343 667 q 292 199 343 342 q 155 -56 241 56 l 13 -56 l 13 -56 "},"Å":{"x_min":13.640625,"x_max":592.859375,"ha":607,"o":"m 234 125 l 216 0 l 13 0 l 195 1009 l 410 1009 l 592 0 l 390 0 l 372 125 l 234 125 m 256 284 l 350 284 l 304 644 l 256 284 m 162 1191 q 173 1247 162 1220 q 204 1293 184 1273 q 248 1323 223 1312 q 302 1334 273 1334 q 358 1323 332 1334 q 404 1293 384 1312 q 434 1247 423 1273 q 446 1191 446 1220 q 434 1137 446 1162 q 404 1093 423 1112 q 358 1062 384 1073 q 302 1051 332 1051 q 248 1062 273 1051 q 204 1093 223 1073 q 173 1137 184 1112 q 162 1191 162 1162 m 251 1191 q 266 1155 251 1170 q 302 1140 281 1140 q 341 1155 325 1140 q 356 1191 356 1170 q 341 1229 356 1213 q 302 1245 325 1245 q 266 1229 281 1245 q 251 1191 251 1213 "},"Я":{"x_min":15.28125,"x_max":559.765625,"ha":601,"o":"m 41 875 q 176 1010 41 1010 l 559 1010 l 559 0 l 362 0 l 362 318 l 336 318 q 297 296 308 318 q 281 251 287 275 l 220 0 l 15 0 l 80 254 q 98 298 86 277 q 134 327 111 319 q 69 350 97 327 q 41 412 41 373 l 41 875 m 259 833 q 240 812 240 833 l 240 504 q 259 483 240 483 l 362 483 l 362 833 l 259 833 "},"¸":{"x_min":60.703125,"x_max":382,"ha":471,"o":"m 89 -181 q 132 -205 105 -195 q 185 -215 160 -215 q 231 -203 212 -215 q 251 -163 251 -191 q 237 -132 251 -145 q 203 -119 223 -119 q 176 -122 189 -119 q 148 -131 163 -125 l 96 -101 l 178 18 l 271 18 l 221 -62 q 260 -58 239 -58 q 346 -85 310 -58 q 382 -165 382 -112 q 368 -223 382 -198 q 331 -265 354 -248 q 280 -290 309 -281 q 220 -298 251 -298 q 136 -288 178 -300 q 60 -252 94 -276 l 89 -181 "},"a":{"x_min":13.890625,"x_max":593.109375,"ha":607,"o":"m 234 125 l 216 0 l 13 0 l 195 1007 l 411 1007 l 593 0 l 390 0 l 372 125 l 234 125 m 256 284 l 350 284 l 304 641 l 256 284 "},"=":{"x_min":48.609375,"x_max":544.484375,"ha":593,"o":"m 48 455 l 544 455 l 544 321 l 48 321 l 48 455 m 48 689 l 544 689 l 544 555 l 48 555 l 48 689 "},"ú":{"x_min":55.5625,"x_max":1105.640625,"ha":1108,"o":"m 745 336 q 315 336 531 282 q 349 287 329 312 q 396 240 369 262 q 456 204 423 218 q 530 190 490 190 q 602 204 569 190 q 663 240 636 218 q 711 287 690 262 q 745 336 732 312 m 833 472 l 227 472 l 301 355 q 529 328 416 327 q 758 355 643 329 l 833 472 m 448 629 q 419 707 430 666 q 384 779 408 747 q 367 779 380 784 q 339 764 354 773 q 314 746 325 755 q 306 734 304 737 l 406 609 q 416 609 408 607 q 431 614 423 611 q 444 622 438 618 q 448 629 450 626 m 581 515 l 530 639 l 480 515 l 581 515 m 752 734 q 744 746 754 737 q 720 764 734 755 q 693 779 707 773 q 676 779 680 784 q 639 707 651 747 q 612 629 627 666 q 615 622 609 626 q 629 614 620 618 q 644 609 637 611 q 654 609 651 607 l 752 734 m 912 515 q 882 366 912 436 q 800 245 852 297 q 679 163 748 193 q 530 133 609 133 q 381 163 451 133 q 260 245 312 193 q 177 366 208 297 q 147 515 147 436 q 177 663 147 594 q 260 785 208 733 q 381 867 312 837 q 530 897 451 897 q 679 867 609 897 q 800 785 748 837 q 882 663 852 733 q 912 515 912 594 m 940 515 q 908 675 940 600 q 820 805 876 750 q 690 893 765 861 q 530 926 615 926 q 370 893 445 926 q 239 805 295 861 q 150 675 183 750 q 118 515 118 600 q 150 356 118 430 q 239 225 183 281 q 370 136 295 169 q 530 104 445 104 q 690 136 615 104 q 820 225 765 169 q 908 356 876 281 q 940 515 940 430 m 982 144 l 945 144 l 945 49 l 919 49 l 919 144 l 884 144 l 884 167 l 982 167 l 982 144 m 1005 515 q 968 330 1005 416 q 866 179 930 244 q 714 76 801 114 q 530 39 627 39 q 345 76 431 39 q 195 179 259 114 q 93 330 130 244 q 55 515 55 416 q 93 700 55 614 q 195 852 130 787 q 345 954 259 916 q 530 992 431 992 q 714 954 627 992 q 866 852 801 916 q 968 700 930 787 q 1005 515 1005 614 m 1105 49 l 1084 49 l 1084 144 l 1061 49 l 1038 49 l 1015 144 l 1015 49 l 993 49 l 993 166 l 1027 166 l 1051 75 l 1070 166 l 1105 166 l 1105 49 "},"¯":{"x_min":69.453125,"x_max":529.203125,"ha":599,"o":"m 101 1189 l 497 1189 l 529 1061 l 69 1061 l 101 1189 "},"Z":{"x_min":13.890625,"x_max":501.421875,"ha":515,"o":"m 284 187 l 473 187 l 438 0 l 13 0 l 240 819 l 30 819 l 65 1007 l 501 1007 l 284 187 "},"u":{"x_min":41.671875,"x_max":562.546875,"ha":604,"o":"m 198 0 q 76 36 111 0 q 41 155 41 72 l 41 1007 l 247 1007 l 247 198 q 250 181 247 187 q 266 176 254 176 l 337 176 q 353 181 350 176 q 356 198 356 187 l 356 1007 l 562 1007 l 562 155 q 527 36 562 72 q 405 0 493 0 l 198 0 "},"k":{"x_min":41.671875,"x_max":588.9375,"ha":603,"o":"m 247 575 l 277 575 l 380 1007 l 588 1007 l 468 543 l 587 0 l 366 0 l 287 415 l 247 415 l 247 0 l 41 0 l 41 1007 l 247 1007 l 247 575 l 247 575 "},"Ù":{"x_min":-13.890625,"x_max":562.546875,"ha":604,"o":"m 409 0 q 529 34 495 0 q 562 151 562 68 l 562 1009 l 356 1009 l 356 198 q 353 181 356 187 q 337 176 350 176 l 266 176 q 250 181 254 176 q 247 198 247 187 l 247 1009 l 41 1009 l 41 151 q 75 34 41 68 q 194 0 108 0 l 409 0 m -13 1229 l 201 1229 l 381 1060 l 234 1060 l -13 1229 "},"З":{"x_min":27.78125,"x_max":461.140625,"ha":503,"o":"m 63 0 l 29 187 l 230 187 q 251 191 244 187 q 258 212 258 194 l 258 377 q 254 395 258 389 q 233 402 250 402 l 79 402 l 79 576 l 230 576 q 252 582 247 576 q 258 604 258 587 l 258 797 q 252 817 258 812 q 234 822 245 822 l 27 822 l 62 1010 l 320 1010 q 455 878 455 1010 l 455 596 q 441 536 455 561 q 377 507 426 511 q 445 477 429 507 q 461 407 461 447 l 461 134 q 326 0 461 0 l 63 0 "},"Α":{"x_min":13.890625,"x_max":593.109375,"ha":607,"o":"m 234 125 l 216 0 l 13 0 l 195 1010 l 411 1010 l 593 0 l 390 0 l 372 125 l 234 125 m 256 284 l 350 284 l 304 644 l 256 284 "},"¢":{"x_min":37.5,"x_max":402.8125,"ha":424,"o":"m 140 187 q 37 291 37 187 l 37 718 q 140 822 37 822 l 177 822 l 177 1010 l 273 1010 l 273 822 l 368 822 l 402 634 l 220 634 q 204 616 204 634 l 204 393 q 220 375 204 375 l 402 375 l 368 187 l 273 187 l 273 0 l 177 0 l 177 187 l 140 187 "},"é":{"x_min":55.5625,"x_max":1105.640625,"ha":1108,"o":"m 745 336 q 315 336 531 282 q 349 287 329 312 q 396 240 369 262 q 456 204 423 218 q 530 190 490 190 q 602 204 569 190 q 663 240 636 218 q 711 287 690 262 q 745 336 732 312 m 833 472 l 227 472 l 301 355 q 529 328 416 327 q 758 355 643 329 l 833 472 m 448 629 q 419 707 430 666 q 384 779 408 747 q 367 779 380 784 q 339 764 354 773 q 314 746 325 755 q 306 734 304 737 l 406 609 q 416 609 408 607 q 431 614 423 611 q 444 622 438 618 q 448 629 450 626 m 581 515 l 530 639 l 480 515 l 581 515 m 752 734 q 744 746 754 737 q 720 764 734 755 q 693 779 707 773 q 676 779 680 784 q 639 707 651 747 q 612 629 627 666 q 615 622 609 626 q 629 614 620 618 q 644 609 637 611 q 654 609 651 607 l 752 734 m 912 515 q 882 366 912 436 q 800 245 852 297 q 679 163 748 193 q 530 133 609 133 q 381 163 451 133 q 260 245 312 193 q 177 366 208 297 q 147 515 147 436 q 177 663 147 594 q 260 785 208 733 q 381 867 312 837 q 530 897 451 897 q 679 867 609 897 q 800 785 748 837 q 882 663 852 733 q 912 515 912 594 m 940 515 q 908 675 940 600 q 820 805 876 750 q 690 893 765 861 q 530 926 615 926 q 370 893 445 926 q 239 805 295 861 q 150 675 183 750 q 118 515 118 600 q 150 356 118 430 q 239 225 183 281 q 370 136 295 169 q 530 104 445 104 q 690 136 615 104 q 820 225 765 169 q 908 356 876 281 q 940 515 940 430 m 982 144 l 945 144 l 945 49 l 919 49 l 919 144 l 884 144 l 884 167 l 982 167 l 982 144 m 1005 515 q 968 330 1005 416 q 866 179 930 244 q 714 76 801 114 q 530 39 627 39 q 345 76 431 39 q 195 179 259 114 q 93 330 130 244 q 55 515 55 416 q 93 700 55 614 q 195 852 130 787 q 345 954 259 916 q 530 992 431 992 q 714 954 627 992 q 866 852 801 916 q 968 700 930 787 q 1005 515 1005 614 m 1105 49 l 1084 49 l 1084 144 l 1061 49 l 1038 49 l 1015 144 l 1015 49 l 993 49 l 993 166 l 1027 166 l 1051 75 l 1070 166 l 1105 166 l 1105 49 "},"B":{"x_min":41.671875,"x_max":563.9375,"ha":606,"o":"m 241 830 l 241 566 l 336 566 q 354 572 347 566 q 361 593 361 579 l 361 811 q 343 830 361 830 l 241 830 m 363 384 q 355 407 363 401 q 333 413 347 413 l 241 413 l 241 176 l 343 176 q 359 181 355 176 q 363 197 363 186 l 363 384 m 554 608 q 539 543 554 570 q 484 505 525 516 q 545 476 526 502 q 563 416 563 450 l 563 155 q 529 36 563 72 q 406 0 494 0 l 41 0 l 41 1007 l 434 1007 q 524 973 494 1007 q 554 884 554 940 l 554 608 "},"…":{"x_min":69.453125,"x_max":886.1875,"ha":956,"o":"m 69 92 q 101 169 69 137 q 177 201 133 201 q 254 169 222 201 q 286 92 286 137 q 254 17 286 48 q 177 -14 222 -14 q 101 17 133 -14 q 69 92 69 48 m 369 92 q 401 169 369 137 q 477 201 433 201 q 554 169 522 201 q 586 92 586 137 q 554 17 586 48 q 477 -14 522 -14 q 401 17 433 -14 q 369 92 369 48 m 669 92 q 701 169 669 137 q 777 201 733 201 q 854 169 822 201 q 886 92 886 137 q 854 17 886 48 q 777 -14 822 -14 q 701 17 733 -14 q 669 92 669 48 "},"В":{"x_min":41.671875,"x_max":563.9375,"ha":606,"o":"m 241 833 l 241 566 l 336 566 q 354 572 347 566 q 361 593 361 579 l 361 813 q 343 833 361 833 l 241 833 m 363 384 q 355 407 363 401 q 333 413 347 413 l 241 413 l 241 176 l 343 176 q 359 181 355 176 q 363 197 363 186 l 363 384 m 554 608 q 539 543 554 570 q 484 505 525 516 q 545 476 526 502 q 563 416 563 450 l 563 155 q 529 36 563 72 q 406 0 494 0 l 41 0 l 41 1010 l 419 1010 q 554 875 554 1010 l 554 608 "},"H":{"x_min":41.671875,"x_max":562.546875,"ha":604,"o":"m 562 0 l 356 0 l 356 402 l 247 402 l 247 0 l 41 0 l 41 1007 l 247 1007 l 247 576 l 356 576 l 356 1007 l 562 1007 l 562 0 "},"î":{"x_min":55.5625,"x_max":1105.640625,"ha":1108,"o":"m 745 336 q 315 336 531 282 q 349 287 329 312 q 396 240 369 262 q 456 204 423 218 q 530 190 490 190 q 602 204 569 190 q 663 240 636 218 q 711 287 690 262 q 745 336 732 312 m 833 472 l 227 472 l 301 355 q 529 328 416 327 q 758 355 643 329 l 833 472 m 448 629 q 419 707 430 666 q 384 779 408 747 q 367 779 380 784 q 339 764 354 773 q 314 746 325 755 q 306 734 304 737 l 406 609 q 416 609 408 607 q 431 614 423 611 q 444 622 438 618 q 448 629 450 626 m 581 515 l 530 639 l 480 515 l 581 515 m 752 734 q 744 746 754 737 q 720 764 734 755 q 693 779 707 773 q 676 779 680 784 q 639 707 651 747 q 612 629 627 666 q 615 622 609 626 q 629 614 620 618 q 644 609 637 611 q 654 609 651 607 l 752 734 m 912 515 q 882 366 912 436 q 800 245 852 297 q 679 163 748 193 q 530 133 609 133 q 381 163 451 133 q 260 245 312 193 q 177 366 208 297 q 147 515 147 436 q 177 663 147 594 q 260 785 208 733 q 381 867 312 837 q 530 897 451 897 q 679 867 609 897 q 800 785 748 837 q 882 663 852 733 q 912 515 912 594 m 940 515 q 908 675 940 600 q 820 805 876 750 q 690 893 765 861 q 530 926 615 926 q 370 893 445 926 q 239 805 295 861 q 150 675 183 750 q 118 515 118 600 q 150 356 118 430 q 239 225 183 281 q 370 136 295 169 q 530 104 445 104 q 690 136 615 104 q 820 225 765 169 q 908 356 876 281 q 940 515 940 430 m 982 144 l 945 144 l 945 49 l 919 49 l 919 144 l 884 144 l 884 167 l 982 167 l 982 144 m 1005 515 q 968 330 1005 416 q 866 179 930 244 q 714 76 801 114 q 530 39 627 39 q 345 76 431 39 q 195 179 259 114 q 93 330 130 244 q 55 515 55 416 q 93 700 55 614 q 195 852 130 787 q 345 954 259 916 q 530 992 431 992 q 714 954 627 992 q 866 852 801 916 q 968 700 930 787 q 1005 515 1005 614 m 1105 49 l 1084 49 l 1084 144 l 1061 49 l 1038 49 l 1015 144 l 1015 49 l 993 49 l 993 166 l 1027 166 l 1051 75 l 1070 166 l 1105 166 l 1105 49 "},"¥":{"x_min":13.890625,"x_max":669.5,"ha":683,"o":"m 101 266 l 238 266 l 238 318 l 84 318 l 102 441 l 216 441 l 13 1010 l 226 1010 l 341 618 l 456 1010 l 669 1010 l 466 441 l 602 441 l 584 318 l 441 318 l 441 266 l 601 266 l 584 143 l 441 143 l 441 0 l 238 0 l 238 143 l 84 143 l 101 266 "},"U":{"x_min":41.671875,"x_max":562.546875,"ha":604,"o":"m 198 0 q 76 36 111 0 q 41 155 41 72 l 41 1007 l 247 1007 l 247 198 q 250 181 247 187 q 266 176 254 176 l 337 176 q 353 181 350 176 q 356 198 356 187 l 356 1007 l 562 1007 l 562 155 q 527 36 562 72 q 405 0 493 0 l 198 0 "},"Ñ":{"x_min":41.671875,"x_max":543.09375,"ha":585,"o":"m 41 1009 l 233 1009 l 336 602 l 336 1009 l 543 1009 l 543 0 l 336 0 l 227 420 l 227 0 l 41 0 l 41 1009 m 531 1228 q 506 1100 538 1148 q 394 1051 473 1051 q 338 1060 362 1051 q 293 1080 315 1069 q 250 1099 272 1090 q 202 1108 229 1108 q 151 1050 151 1108 l 63 1050 q 102 1180 61 1133 q 209 1228 143 1228 q 263 1218 238 1228 q 311 1198 288 1209 q 353 1177 333 1186 q 391 1168 373 1168 q 431 1184 415 1168 q 444 1228 447 1200 l 531 1228 "},"F":{"x_min":41.671875,"x_max":468.09375,"ha":489,"o":"m 41 1007 l 433 1007 l 468 819 l 248 819 l 248 580 l 415 580 l 415 406 l 248 406 l 248 0 l 41 0 l 41 1007 "},"Χ":{"x_min":13.890625,"x_max":576.4375,"ha":590,"o":"m 433 525 l 576 0 l 372 0 l 294 354 l 218 0 l 13 0 l 156 525 l 19 1010 l 219 1010 l 294 652 l 372 1010 l 570 1010 l 433 525 "},"*":{"x_min":44.453125,"x_max":493.09375,"ha":538,"o":"m 493 770 l 419 643 l 305 755 l 345 600 l 191 600 l 230 755 l 118 643 l 44 770 l 212 811 l 44 851 l 118 979 l 230 862 l 191 1021 l 345 1021 l 304 862 l 419 979 l 493 851 l 322 811 l 493 770 "},"†":{"x_min":41.671875,"x_max":622.265625,"ha":664,"o":"m 622 706 q 593 634 622 665 q 520 604 563 604 q 465 622 490 604 q 426 666 440 640 q 392 634 401 665 q 391 565 383 602 q 427 498 400 529 q 502 467 454 467 q 458 442 479 467 q 420 377 437 417 q 391 285 404 337 q 368 180 377 234 q 330 -106 343 53 q 294 180 318 53 q 271 285 284 234 q 242 377 258 337 q 206 442 226 417 q 163 467 187 467 q 216 482 194 467 q 252 518 238 497 q 272 565 266 540 q 275 612 277 590 q 262 650 272 634 q 236 666 252 665 q 199 622 223 640 q 143 604 175 604 q 70 634 100 604 q 41 706 41 665 q 70 779 41 748 q 143 811 100 811 q 203 789 175 811 q 238 736 231 768 q 279 761 266 740 q 288 832 291 783 q 246 870 262 845 q 230 927 230 895 q 260 998 230 969 q 330 1028 290 1028 q 402 998 372 1028 q 433 927 433 969 q 416 870 433 895 q 375 832 400 845 q 384 761 370 783 q 426 734 398 740 q 461 788 433 766 q 520 811 488 811 q 593 779 563 811 q 622 706 622 748 "},"°":{"x_min":41.671875,"x_max":405.59375,"ha":433,"o":"m 41 853 q 56 923 41 890 q 95 981 70 957 q 152 1020 119 1005 q 223 1035 186 1035 q 294 1020 261 1035 q 352 981 327 1005 q 391 923 376 957 q 405 853 405 890 q 391 782 405 815 q 352 724 376 748 q 294 685 327 700 q 223 671 261 671 q 152 685 186 671 q 95 724 119 700 q 56 782 70 748 q 41 853 41 815 m 154 851 q 173 802 154 822 q 222 783 193 783 q 271 802 251 783 q 291 851 291 822 q 271 900 291 880 q 222 920 251 920 q 173 900 193 920 q 154 851 154 880 "},"Ξ":{"x_min":27.78125,"x_max":508.375,"ha":536,"o":"m 473 822 l 62 822 l 27 1010 l 508 1010 l 473 822 m 104 406 l 431 406 l 431 580 l 104 580 l 104 406 m 62 187 l 473 187 l 508 0 l 27 0 l 62 187 "},"å":{"x_min":55.5625,"x_max":1105.640625,"ha":1108,"o":"m 745 336 q 315 336 531 282 q 349 287 329 312 q 396 240 369 262 q 456 204 423 218 q 530 190 490 190 q 602 204 569 190 q 663 240 636 218 q 711 287 690 262 q 745 336 732 312 m 833 472 l 227 472 l 301 355 q 529 328 416 327 q 758 355 643 329 l 833 472 m 448 629 q 419 707 430 666 q 384 779 408 747 q 367 779 380 784 q 339 764 354 773 q 314 746 325 755 q 306 734 304 737 l 406 609 q 416 609 408 607 q 431 614 423 611 q 444 622 438 618 q 448 629 450 626 m 581 515 l 530 639 l 480 515 l 581 515 m 752 734 q 744 746 754 737 q 720 764 734 755 q 693 779 707 773 q 676 779 680 784 q 639 707 651 747 q 612 629 627 666 q 615 622 609 626 q 629 614 620 618 q 644 609 637 611 q 654 609 651 607 l 752 734 m 912 515 q 882 366 912 436 q 800 245 852 297 q 679 163 748 193 q 530 133 609 133 q 381 163 451 133 q 260 245 312 193 q 177 366 208 297 q 147 515 147 436 q 177 663 147 594 q 260 785 208 733 q 381 867 312 837 q 530 897 451 897 q 679 867 609 897 q 800 785 748 837 q 882 663 852 733 q 912 515 912 594 m 940 515 q 908 675 940 600 q 820 805 876 750 q 690 893 765 861 q 530 926 615 926 q 370 893 445 926 q 239 805 295 861 q 150 675 183 750 q 118 515 118 600 q 150 356 118 430 q 239 225 183 281 q 370 136 295 169 q 530 104 445 104 q 690 136 615 104 q 820 225 765 169 q 908 356 876 281 q 940 515 940 430 m 982 144 l 945 144 l 945 49 l 919 49 l 919 144 l 884 144 l 884 167 l 982 167 l 982 144 m 1005 515 q 968 330 1005 416 q 866 179 930 244 q 714 76 801 114 q 530 39 627 39 q 345 76 431 39 q 195 179 259 114 q 93 330 130 244 q 55 515 55 416 q 93 700 55 614 q 195 852 130 787 q 345 954 259 916 q 530 992 431 992 q 714 954 627 992 q 866 852 801 916 q 968 700 930 787 q 1005 515 1005 614 m 1105 49 l 1084 49 l 1084 144 l 1061 49 l 1038 49 l 1015 144 l 1015 49 l 993 49 l 993 166 l 1027 166 l 1051 75 l 1070 166 l 1105 166 l 1105 49 "},"0":{"x_min":41.671875,"x_max":561.15625,"ha":603,"o":"m 262 830 q 244 811 244 830 l 244 197 q 247 181 244 186 q 263 176 251 176 l 337 176 q 353 181 350 176 q 356 197 356 186 l 356 811 q 338 830 356 830 l 262 830 m 41 868 q 75 967 41 927 q 177 1007 108 1007 l 425 1007 q 527 967 494 1007 q 561 868 561 927 l 561 138 q 527 39 561 79 q 425 0 494 0 l 177 0 q 75 39 108 0 q 41 138 41 79 l 41 868 "},"”":{"x_min":31.953125,"x_max":470.875,"ha":499,"o":"m 65 1034 l 237 1034 l 159 638 l 31 638 l 65 1034 m 300 1034 l 470 1034 l 375 638 l 245 638 l 300 1034 "},"ö":{"x_min":55.5625,"x_max":1105.640625,"ha":1108,"o":"m 745 336 q 315 336 531 282 q 349 287 329 312 q 396 240 369 262 q 456 204 423 218 q 530 190 490 190 q 602 204 569 190 q 663 240 636 218 q 711 287 690 262 q 745 336 732 312 m 833 472 l 227 472 l 301 355 q 529 328 416 327 q 758 355 643 329 l 833 472 m 448 629 q 419 707 430 666 q 384 779 408 747 q 367 779 380 784 q 339 764 354 773 q 314 746 325 755 q 306 734 304 737 l 406 609 q 416 609 408 607 q 431 614 423 611 q 444 622 438 618 q 448 629 450 626 m 581 515 l 530 639 l 480 515 l 581 515 m 752 734 q 744 746 754 737 q 720 764 734 755 q 693 779 707 773 q 676 779 680 784 q 639 707 651 747 q 612 629 627 666 q 615 622 609 626 q 629 614 620 618 q 644 609 637 611 q 654 609 651 607 l 752 734 m 912 515 q 882 366 912 436 q 800 245 852 297 q 679 163 748 193 q 530 133 609 133 q 381 163 451 133 q 260 245 312 193 q 177 366 208 297 q 147 515 147 436 q 177 663 147 594 q 260 785 208 733 q 381 867 312 837 q 530 897 451 897 q 679 867 609 897 q 800 785 748 837 q 882 663 852 733 q 912 515 912 594 m 940 515 q 908 675 940 600 q 820 805 876 750 q 690 893 765 861 q 530 926 615 926 q 370 893 445 926 q 239 805 295 861 q 150 675 183 750 q 118 515 118 600 q 150 356 118 430 q 239 225 183 281 q 370 136 295 169 q 530 104 445 104 q 690 136 615 104 q 820 225 765 169 q 908 356 876 281 q 940 515 940 430 m 982 144 l 945 144 l 945 49 l 919 49 l 919 144 l 884 144 l 884 167 l 982 167 l 982 144 m 1005 515 q 968 330 1005 416 q 866 179 930 244 q 714 76 801 114 q 530 39 627 39 q 345 76 431 39 q 195 179 259 114 q 93 330 130 244 q 55 515 55 416 q 93 700 55 614 q 195 852 130 787 q 345 954 259 916 q 530 992 431 992 q 714 954 627 992 q 866 852 801 916 q 968 700 930 787 q 1005 515 1005 614 m 1105 49 l 1084 49 l 1084 144 l 1061 49 l 1038 49 l 1015 144 l 1015 49 l 993 49 l 993 166 l 1027 166 l 1051 75 l 1070 166 l 1105 166 l 1105 49 "},"Β":{"x_min":41.671875,"x_max":563.9375,"ha":606,"o":"m 241 833 l 241 566 l 336 566 q 354 572 347 566 q 361 593 361 579 l 361 813 q 343 833 361 833 l 241 833 m 363 384 q 355 407 363 401 q 333 413 347 413 l 241 413 l 241 176 l 343 176 q 359 181 355 176 q 363 197 363 186 l 363 384 m 554 608 q 539 543 554 570 q 484 505 525 516 q 545 476 526 502 q 563 416 563 450 l 563 155 q 529 36 563 72 q 406 0 494 0 l 41 0 l 41 1010 l 419 1010 q 554 875 554 1010 l 554 608 "},"Õ":{"x_min":41.671875,"x_max":563.9375,"ha":606,"o":"m 262 833 q 244 813 244 833 l 244 197 q 247 181 244 186 q 263 176 251 176 l 340 176 q 356 181 352 176 q 359 197 359 186 l 359 813 q 341 833 359 833 l 262 833 m 563 143 q 557 88 563 113 q 534 43 551 62 q 490 11 518 23 q 420 0 462 0 l 184 0 q 115 11 143 0 q 70 43 87 23 q 47 88 54 62 q 41 143 41 113 l 41 879 q 73 974 41 938 q 176 1009 105 1009 l 429 1009 q 531 974 500 1009 q 563 879 563 938 l 563 143 m 536 1228 q 510 1100 543 1148 q 398 1051 477 1051 q 343 1060 366 1051 q 297 1080 319 1069 q 254 1099 276 1090 q 206 1108 233 1108 q 155 1050 155 1108 l 68 1050 q 106 1180 65 1133 q 213 1228 147 1228 q 268 1218 243 1228 q 315 1198 293 1209 q 357 1177 337 1186 q 395 1168 377 1168 q 435 1184 419 1168 q 448 1228 451 1200 l 536 1228 "},"þ":{"x_min":55.5625,"x_max":1105.640625,"ha":1108,"o":"m 745 336 q 315 336 531 282 q 349 287 329 312 q 396 240 369 262 q 456 204 423 218 q 530 190 490 190 q 602 204 569 190 q 663 240 636 218 q 711 287 690 262 q 745 336 732 312 m 833 472 l 227 472 l 301 355 q 529 328 416 327 q 758 355 643 329 l 833 472 m 448 629 q 419 707 430 666 q 384 779 408 747 q 367 779 380 784 q 339 764 354 773 q 314 746 325 755 q 306 734 304 737 l 406 609 q 416 609 408 607 q 431 614 423 611 q 444 622 438 618 q 448 629 450 626 m 581 515 l 530 639 l 480 515 l 581 515 m 752 734 q 744 746 754 737 q 720 764 734 755 q 693 779 707 773 q 676 779 680 784 q 639 707 651 747 q 612 629 627 666 q 615 622 609 626 q 629 614 620 618 q 644 609 637 611 q 654 609 651 607 l 752 734 m 912 515 q 882 366 912 436 q 800 245 852 297 q 679 163 748 193 q 530 133 609 133 q 381 163 451 133 q 260 245 312 193 q 177 366 208 297 q 147 515 147 436 q 177 663 147 594 q 260 785 208 733 q 381 867 312 837 q 530 897 451 897 q 679 867 609 897 q 800 785 748 837 q 882 663 852 733 q 912 515 912 594 m 940 515 q 908 675 940 600 q 820 805 876 750 q 690 893 765 861 q 530 926 615 926 q 370 893 445 926 q 239 805 295 861 q 150 675 183 750 q 118 515 118 600 q 150 356 118 430 q 239 225 183 281 q 370 136 295 169 q 530 104 445 104 q 690 136 615 104 q 820 225 765 169 q 908 356 876 281 q 940 515 940 430 m 982 144 l 945 144 l 945 49 l 919 49 l 919 144 l 884 144 l 884 167 l 982 167 l 982 144 m 1005 515 q 968 330 1005 416 q 866 179 930 244 q 714 76 801 114 q 530 39 627 39 q 345 76 431 39 q 195 179 259 114 q 93 330 130 244 q 55 515 55 416 q 93 700 55 614 q 195 852 130 787 q 345 954 259 916 q 530 992 431 992 q 714 954 627 992 q 866 852 801 916 q 968 700 930 787 q 1005 515 1005 614 m 1105 49 l 1084 49 l 1084 144 l 1061 49 l 1038 49 l 1015 144 l 1015 49 l 993 49 l 993 166 l 1027 166 l 1051 75 l 1070 166 l 1105 166 l 1105 49 "},"]":{"x_min":-6.9375,"x_max":234.734375,"ha":276,"o":"m 234 1108 l 234 -99 l -6 -99 l -6 -36 l 56 -36 l 56 1048 l -6 1048 l -6 1108 l 234 1108 "},"А":{"x_min":13.890625,"x_max":593.109375,"ha":607,"o":"m 234 125 l 216 0 l 13 0 l 195 1010 l 411 1010 l 593 0 l 390 0 l 372 125 l 234 125 m 256 284 l 350 284 l 304 644 l 256 284 "},"Ы":{"x_min":41.671875,"x_max":852.84375,"ha":895,"o":"m 852 0 l 647 0 l 647 1010 l 852 1010 l 852 0 m 247 1010 l 41 1010 l 41 0 l 430 0 q 534 34 501 0 q 566 129 566 69 l 566 486 q 534 581 566 545 q 430 616 501 616 l 247 616 l 247 1010 m 247 176 l 247 450 l 350 450 q 366 445 362 450 q 369 429 369 440 l 369 195 q 351 176 369 176 l 247 176 "},"8":{"x_min":41.671875,"x_max":584.765625,"ha":626,"o":"m 276 830 q 252 808 252 830 l 252 622 q 259 602 252 607 q 281 597 266 597 l 345 597 q 367 602 361 597 q 373 622 373 607 l 373 808 q 369 825 373 819 q 350 830 365 830 l 276 830 m 345 175 q 366 179 358 175 q 373 202 373 183 l 373 420 q 368 438 373 431 q 347 444 362 444 l 279 444 q 252 420 252 444 l 252 202 q 260 179 252 183 q 280 175 268 175 l 345 175 m 573 645 q 561 577 573 606 q 505 527 548 547 q 566 484 548 518 q 584 413 584 450 l 584 158 q 547 37 584 75 q 423 0 511 0 l 202 0 q 78 37 115 0 q 41 158 41 75 l 41 413 q 47 450 41 431 q 63 485 52 469 q 88 512 73 501 q 125 527 104 523 q 70 575 84 541 q 56 645 56 609 l 56 852 q 96 971 56 936 q 223 1007 136 1007 l 406 1007 q 534 971 494 1007 q 573 852 573 936 l 573 645 "},"Ζ":{"x_min":13.890625,"x_max":501.421875,"ha":515,"o":"m 284 187 l 473 187 l 438 0 l 13 0 l 240 822 l 30 822 l 65 1010 l 501 1010 l 284 187 "},"R":{"x_min":41.671875,"x_max":575.046875,"ha":604,"o":"m 243 830 l 243 483 l 341 483 q 361 504 361 483 l 361 809 q 341 830 361 830 l 243 830 m 559 409 q 536 348 559 376 q 469 320 513 320 l 575 0 l 366 0 l 269 320 l 243 320 l 243 0 l 41 0 l 41 1007 l 423 1007 q 527 971 494 1007 q 559 876 559 936 l 559 409 "},"o":{"x_min":41.671875,"x_max":563.9375,"ha":606,"o":"m 262 830 q 244 811 244 830 l 244 197 q 247 181 244 186 q 263 176 251 176 l 340 176 q 356 181 352 176 q 359 197 359 186 l 359 811 q 341 830 359 830 l 262 830 m 563 143 q 556 88 563 113 q 533 43 550 62 q 488 11 516 23 q 419 0 461 0 l 186 0 q 116 11 144 0 q 72 43 88 23 q 48 88 55 62 q 41 143 41 113 l 41 876 q 74 971 41 936 q 177 1007 106 1007 l 427 1007 q 531 971 498 1007 q 563 876 563 936 l 563 143 "},"5":{"x_min":41.671875,"x_max":495.875,"ha":538,"o":"m 86 0 l 51 187 l 276 187 q 293 202 293 187 l 293 429 q 279 443 293 443 l 94 443 l 41 503 l 41 1006 l 440 1006 l 475 819 l 238 819 l 238 605 l 390 605 q 466 577 436 605 q 495 508 495 548 l 495 151 q 461 34 495 68 q 340 0 426 0 l 86 0 "},"õ":{"x_min":55.5625,"x_max":1105.640625,"ha":1108,"o":"m 745 336 q 315 336 531 282 q 349 287 329 312 q 396 240 369 262 q 456 204 423 218 q 530 190 490 190 q 602 204 569 190 q 663 240 636 218 q 711 287 690 262 q 745 336 732 312 m 833 472 l 227 472 l 301 355 q 529 328 416 327 q 758 355 643 329 l 833 472 m 448 629 q 419 707 430 666 q 384 779 408 747 q 367 779 380 784 q 339 764 354 773 q 314 746 325 755 q 306 734 304 737 l 406 609 q 416 609 408 607 q 431 614 423 611 q 444 622 438 618 q 448 629 450 626 m 581 515 l 530 639 l 480 515 l 581 515 m 752 734 q 744 746 754 737 q 720 764 734 755 q 693 779 707 773 q 676 779 680 784 q 639 707 651 747 q 612 629 627 666 q 615 622 609 626 q 629 614 620 618 q 644 609 637 611 q 654 609 651 607 l 752 734 m 912 515 q 882 366 912 436 q 800 245 852 297 q 679 163 748 193 q 530 133 609 133 q 381 163 451 133 q 260 245 312 193 q 177 366 208 297 q 147 515 147 436 q 177 663 147 594 q 260 785 208 733 q 381 867 312 837 q 530 897 451 897 q 679 867 609 897 q 800 785 748 837 q 882 663 852 733 q 912 515 912 594 m 940 515 q 908 675 940 600 q 820 805 876 750 q 690 893 765 861 q 530 926 615 926 q 370 893 445 926 q 239 805 295 861 q 150 675 183 750 q 118 515 118 600 q 150 356 118 430 q 239 225 183 281 q 370 136 295 169 q 530 104 445 104 q 690 136 615 104 q 820 225 765 169 q 908 356 876 281 q 940 515 940 430 m 982 144 l 945 144 l 945 49 l 919 49 l 919 144 l 884 144 l 884 167 l 982 167 l 982 144 m 1005 515 q 968 330 1005 416 q 866 179 930 244 q 714 76 801 114 q 530 39 627 39 q 345 76 431 39 q 195 179 259 114 q 93 330 130 244 q 55 515 55 416 q 93 700 55 614 q 195 852 130 787 q 345 954 259 916 q 530 992 431 992 q 714 954 627 992 q 866 852 801 916 q 968 700 930 787 q 1005 515 1005 614 m 1105 49 l 1084 49 l 1084 144 l 1061 49 l 1038 49 l 1015 144 l 1015 49 l 993 49 l 993 166 l 1027 166 l 1051 75 l 1070 166 l 1105 166 l 1105 49 "},",":{"x_min":41.671875,"x_max":258.359375,"ha":300,"o":"m 41 92 q 73 169 41 137 q 150 201 105 201 q 226 169 194 201 q 258 92 258 137 q 248 41 258 69 q 222 -10 238 14 q 188 -59 206 -36 q 151 -99 169 -82 l 79 -99 q 104 -55 93 -78 q 123 -10 116 -33 q 61 27 81 -3 q 41 92 41 57 "},"d":{"x_min":41.671875,"x_max":555.59375,"ha":597,"o":"m 241 830 l 241 176 l 336 176 q 352 181 348 176 q 355 197 355 186 l 355 811 q 337 830 355 830 l 241 830 m 555 155 q 520 36 555 72 q 398 0 486 0 l 41 0 l 41 1007 l 436 1007 q 525 973 495 1007 q 555 884 555 940 l 555 155 "},"\"":{"x_min":37.5,"x_max":405.59375,"ha":443,"o":"m 247 1006 l 405 1006 l 373 663 l 277 663 l 247 1006 m 37 1006 l 197 1006 l 166 663 l 69 663 l 37 1006 "},"ê":{"x_min":55.5625,"x_max":1105.640625,"ha":1108,"o":"m 745 336 q 315 336 531 282 q 349 287 329 312 q 396 240 369 262 q 456 204 423 218 q 530 190 490 190 q 602 204 569 190 q 663 240 636 218 q 711 287 690 262 q 745 336 732 312 m 833 472 l 227 472 l 301 355 q 529 328 416 327 q 758 355 643 329 l 833 472 m 448 629 q 419 707 430 666 q 384 779 408 747 q 367 779 380 784 q 339 764 354 773 q 314 746 325 755 q 306 734 304 737 l 406 609 q 416 609 408 607 q 431 614 423 611 q 444 622 438 618 q 448 629 450 626 m 581 515 l 530 639 l 480 515 l 581 515 m 752 734 q 744 746 754 737 q 720 764 734 755 q 693 779 707 773 q 676 779 680 784 q 639 707 651 747 q 612 629 627 666 q 615 622 609 626 q 629 614 620 618 q 644 609 637 611 q 654 609 651 607 l 752 734 m 912 515 q 882 366 912 436 q 800 245 852 297 q 679 163 748 193 q 530 133 609 133 q 381 163 451 133 q 260 245 312 193 q 177 366 208 297 q 147 515 147 436 q 177 663 147 594 q 260 785 208 733 q 381 867 312 837 q 530 897 451 897 q 679 867 609 897 q 800 785 748 837 q 882 663 852 733 q 912 515 912 594 m 940 515 q 908 675 940 600 q 820 805 876 750 q 690 893 765 861 q 530 926 615 926 q 370 893 445 926 q 239 805 295 861 q 150 675 183 750 q 118 515 118 600 q 150 356 118 430 q 239 225 183 281 q 370 136 295 169 q 530 104 445 104 q 690 136 615 104 q 820 225 765 169 q 908 356 876 281 q 940 515 940 430 m 982 144 l 945 144 l 945 49 l 919 49 l 919 144 l 884 144 l 884 167 l 982 167 l 982 144 m 1005 515 q 968 330 1005 416 q 866 179 930 244 q 714 76 801 114 q 530 39 627 39 q 345 76 431 39 q 195 179 259 114 q 93 330 130 244 q 55 515 55 416 q 93 700 55 614 q 195 852 130 787 q 345 954 259 916 q 530 992 431 992 q 714 954 627 992 q 866 852 801 916 q 968 700 930 787 q 1005 515 1005 614 m 1105 49 l 1084 49 l 1084 144 l 1061 49 l 1038 49 l 1015 144 l 1015 49 l 993 49 l 993 166 l 1027 166 l 1051 75 l 1070 166 l 1105 166 l 1105 49 "},"„":{"x_min":34.71875,"x_max":469.484375,"ha":494,"o":"m 63 201 l 231 201 l 156 -194 l 34 -194 l 63 201 m 300 201 l 469 201 l 369 -194 l 241 -194 l 300 201 "},"Â":{"x_min":13.890625,"x_max":593.109375,"ha":607,"o":"m 234 125 l 216 0 l 13 0 l 195 1009 l 411 1009 l 593 0 l 390 0 l 372 125 l 234 125 m 256 284 l 350 284 l 304 644 l 256 284 m 384 1240 l 541 1058 l 377 1058 l 302 1158 l 227 1058 l 66 1058 l 222 1240 l 384 1240 "},"Í":{"x_min":41.671875,"x_max":465.3125,"ha":285,"o":"m 41 1009 l 243 1009 l 243 0 l 41 0 l 41 1009 m 216 1058 l 69 1058 l 250 1226 l 465 1226 l 216 1058 "},"´":{"x_min":69.453125,"x_max":465.3125,"ha":535,"o":"m 216 1097 l 69 1097 l 250 1265 l 465 1265 l 216 1097 "},"Ú":{"x_min":41.671875,"x_max":618.109375,"ha":604,"o":"m 194 0 q 75 34 108 0 q 41 151 41 68 l 41 1009 l 247 1009 l 247 198 q 250 181 247 187 q 266 176 254 176 l 337 176 q 353 181 350 176 q 356 198 356 187 l 356 1009 l 562 1009 l 562 151 q 529 34 562 68 q 409 0 495 0 l 194 0 m 369 1058 l 222 1058 l 402 1226 l 618 1226 l 369 1058 "},"Ý":{"x_min":13.890625,"x_max":633.390625,"ha":626,"o":"m 419 0 l 206 0 l 206 255 l 13 1009 l 222 1009 l 312 531 l 404 1009 l 612 1009 l 419 255 l 419 0 m 384 1058 l 237 1058 l 418 1226 l 633 1226 l 384 1058 "},"И":{"x_min":41.671875,"x_max":576.4375,"ha":618,"o":"m 247 389 l 370 968 l 370 1010 l 576 1010 l 576 0 l 370 0 l 370 619 l 247 41 l 247 0 l 41 0 l 41 1010 l 247 1010 l 247 389 "},"Ω":{"x_min":27.78125,"x_max":634.765625,"ha":663,"o":"m 484 1010 q 584 977 548 1010 q 619 878 619 944 l 619 407 q 616 332 619 362 q 602 281 613 301 q 568 249 591 261 q 504 233 545 237 l 504 187 l 634 187 l 601 0 l 368 0 l 368 327 q 400 335 391 327 q 408 366 408 343 l 408 797 q 405 828 408 823 q 377 833 402 833 l 284 833 q 256 828 259 833 q 254 797 254 823 l 254 366 q 262 335 254 343 q 294 327 270 327 l 294 0 l 61 0 l 27 187 l 158 187 l 158 233 q 93 249 116 237 q 59 281 70 261 q 45 332 48 301 q 43 407 43 362 l 43 878 q 78 977 43 944 q 177 1010 113 1010 l 484 1010 "},"П":{"x_min":41.671875,"x_max":562.546875,"ha":604,"o":"m 562 0 l 356 0 l 356 822 l 247 822 l 247 0 l 41 0 l 41 1010 l 562 1010 l 562 0 "},"Ö":{"x_min":41.671875,"x_max":563.9375,"ha":606,"o":"m 262 833 q 244 813 244 833 l 244 197 q 247 181 244 186 q 263 176 251 176 l 340 176 q 356 181 352 176 q 359 197 359 186 l 359 813 q 341 833 359 833 l 262 833 m 563 143 q 557 88 563 113 q 534 43 551 62 q 490 11 518 23 q 420 0 462 0 l 184 0 q 115 11 143 0 q 70 43 87 23 q 47 88 54 62 q 41 143 41 113 l 41 879 q 73 974 41 938 q 176 1009 105 1009 l 429 1009 q 531 974 500 1009 q 563 879 563 938 l 563 143 m 63 1149 q 93 1223 63 1192 q 166 1254 122 1254 q 238 1223 209 1254 q 268 1149 268 1192 q 238 1076 268 1106 q 166 1045 209 1045 q 93 1076 122 1045 q 63 1149 63 1106 m 338 1149 q 368 1223 338 1192 q 440 1254 397 1254 q 513 1223 483 1254 q 543 1149 543 1192 q 513 1076 543 1106 q 440 1045 483 1045 q 368 1076 397 1045 q 338 1149 338 1106 "},"z":{"x_min":13.890625,"x_max":501.421875,"ha":515,"o":"m 284 187 l 473 187 l 438 0 l 13 0 l 240 819 l 30 819 l 65 1007 l 501 1007 l 284 187 "},"™":{"x_min":41.671875,"x_max":766.734375,"ha":808,"o":"m 312 918 l 236 918 l 236 504 l 118 504 l 118 918 l 41 918 l 69 1010 l 284 1010 l 312 918 m 766 504 l 644 504 l 644 772 l 565 544 l 477 772 l 477 504 l 363 504 l 363 1010 l 486 1010 l 565 788 l 636 1010 l 766 1010 l 766 504 "},"Θ":{"x_min":41.671875,"x_max":563.9375,"ha":606,"o":"m 241 198 q 245 181 241 187 q 262 176 250 176 l 344 176 q 363 198 363 176 l 363 423 l 241 423 l 241 198 m 363 812 q 344 833 363 833 l 261 833 q 241 812 241 833 l 241 586 l 363 586 l 363 812 m 563 143 q 557 88 563 113 q 534 43 551 62 q 490 11 518 23 q 420 0 462 0 l 184 0 q 115 11 143 0 q 70 43 87 23 q 47 88 54 62 q 41 143 41 113 l 41 879 q 73 974 41 939 q 176 1010 105 1010 l 429 1010 q 531 974 500 1010 q 563 879 563 939 l 563 143 "},"ã":{"x_min":55.5625,"x_max":1105.640625,"ha":1108,"o":"m 745 336 q 315 336 531 282 q 349 287 329 312 q 396 240 369 262 q 456 204 423 218 q 530 190 490 190 q 602 204 569 190 q 663 240 636 218 q 711 287 690 262 q 745 336 732 312 m 833 472 l 227 472 l 301 355 q 529 328 416 327 q 758 355 643 329 l 833 472 m 448 629 q 419 707 430 666 q 384 779 408 747 q 367 779 380 784 q 339 764 354 773 q 314 746 325 755 q 306 734 304 737 l 406 609 q 416 609 408 607 q 431 614 423 611 q 444 622 438 618 q 448 629 450 626 m 581 515 l 530 639 l 480 515 l 581 515 m 752 734 q 744 746 754 737 q 720 764 734 755 q 693 779 707 773 q 676 779 680 784 q 639 707 651 747 q 612 629 627 666 q 615 622 609 626 q 629 614 620 618 q 644 609 637 611 q 654 609 651 607 l 752 734 m 912 515 q 882 366 912 436 q 800 245 852 297 q 679 163 748 193 q 530 133 609 133 q 381 163 451 133 q 260 245 312 193 q 177 366 208 297 q 147 515 147 436 q 177 663 147 594 q 260 785 208 733 q 381 867 312 837 q 530 897 451 897 q 679 867 609 897 q 800 785 748 837 q 882 663 852 733 q 912 515 912 594 m 940 515 q 908 675 940 600 q 820 805 876 750 q 690 893 765 861 q 530 926 615 926 q 370 893 445 926 q 239 805 295 861 q 150 675 183 750 q 118 515 118 600 q 150 356 118 430 q 239 225 183 281 q 370 136 295 169 q 530 104 445 104 q 690 136 615 104 q 820 225 765 169 q 908 356 876 281 q 940 515 940 430 m 982 144 l 945 144 l 945 49 l 919 49 l 919 144 l 884 144 l 884 167 l 982 167 l 982 144 m 1005 515 q 968 330 1005 416 q 866 179 930 244 q 714 76 801 114 q 530 39 627 39 q 345 76 431 39 q 195 179 259 114 q 93 330 130 244 q 55 515 55 416 q 93 700 55 614 q 195 852 130 787 q 345 954 259 916 q 530 992 431 992 q 714 954 627 992 q 866 852 801 916 q 968 700 930 787 q 1005 515 1005 614 m 1105 49 l 1084 49 l 1084 144 l 1061 49 l 1038 49 l 1015 144 l 1015 49 l 993 49 l 993 166 l 1027 166 l 1051 75 l 1070 166 l 1105 166 l 1105 49 "},"æ":{"x_min":55.5625,"x_max":1105.640625,"ha":1108,"o":"m 745 336 q 315 336 531 282 q 349 287 329 312 q 396 240 369 262 q 456 204 423 218 q 530 190 490 190 q 602 204 569 190 q 663 240 636 218 q 711 287 690 262 q 745 336 732 312 m 833 472 l 227 472 l 301 355 q 529 328 416 327 q 758 355 643 329 l 833 472 m 448 629 q 419 707 430 666 q 384 779 408 747 q 367 779 380 784 q 339 764 354 773 q 314 746 325 755 q 306 734 304 737 l 406 609 q 416 609 408 607 q 431 614 423 611 q 444 622 438 618 q 448 629 450 626 m 581 515 l 530 639 l 480 515 l 581 515 m 752 734 q 744 746 754 737 q 720 764 734 755 q 693 779 707 773 q 676 779 680 784 q 639 707 651 747 q 612 629 627 666 q 615 622 609 626 q 629 614 620 618 q 644 609 637 611 q 654 609 651 607 l 752 734 m 912 515 q 882 366 912 436 q 800 245 852 297 q 679 163 748 193 q 530 133 609 133 q 381 163 451 133 q 260 245 312 193 q 177 366 208 297 q 147 515 147 436 q 177 663 147 594 q 260 785 208 733 q 381 867 312 837 q 530 897 451 897 q 679 867 609 897 q 800 785 748 837 q 882 663 852 733 q 912 515 912 594 m 940 515 q 908 675 940 600 q 820 805 876 750 q 690 893 765 861 q 530 926 615 926 q 370 893 445 926 q 239 805 295 861 q 150 675 183 750 q 118 515 118 600 q 150 356 118 430 q 239 225 183 281 q 370 136 295 169 q 530 104 445 104 q 690 136 615 104 q 820 225 765 169 q 908 356 876 281 q 940 515 940 430 m 982 144 l 945 144 l 945 49 l 919 49 l 919 144 l 884 144 l 884 167 l 982 167 l 982 144 m 1005 515 q 968 330 1005 416 q 866 179 930 244 q 714 76 801 114 q 530 39 627 39 q 345 76 431 39 q 195 179 259 114 q 93 330 130 244 q 55 515 55 416 q 93 700 55 614 q 195 852 130 787 q 345 954 259 916 q 530 992 431 992 q 714 954 627 992 q 866 852 801 916 q 968 700 930 787 q 1005 515 1005 614 m 1105 49 l 1084 49 l 1084 144 l 1061 49 l 1038 49 l 1015 144 l 1015 49 l 993 49 l 993 166 l 1027 166 l 1051 75 l 1070 166 l 1105 166 l 1105 49 "},"É":{"x_min":41.671875,"x_max":569.484375,"ha":496,"o":"m 41 1009 l 433 1009 l 468 822 l 248 822 l 248 580 l 415 580 l 415 406 l 248 406 l 248 187 l 459 187 l 425 0 l 41 0 l 41 1009 m 320 1058 l 173 1058 l 354 1226 l 569 1226 l 320 1058 "},"~":{"x_min":42.71875,"x_max":550.140625,"ha":592,"o":"m 548 613 q 518 449 556 512 q 394 386 480 386 q 321 403 350 386 q 265 439 293 421 q 222 457 244 451 q 182 458 201 463 q 151 436 163 453 q 138 388 138 419 l 43 388 q 84 554 38 494 q 201 614 130 614 q 258 602 231 614 q 307 576 284 590 q 351 551 330 563 q 391 539 372 539 q 436 553 416 539 q 452 613 455 568 l 548 613 "},"³":{"x_min":27.78125,"x_max":318.078125,"ha":360,"o":"m 52 333 l 29 458 l 163 458 q 178 460 173 458 q 183 476 183 463 l 183 586 q 180 598 183 594 q 166 602 177 602 l 62 602 l 62 719 l 163 719 q 183 737 183 719 l 183 868 q 179 882 183 879 q 166 884 175 884 l 27 884 l 51 1010 l 225 1010 q 315 921 315 1010 l 315 731 q 305 692 315 708 q 262 673 295 676 q 307 653 297 673 q 318 605 318 633 l 318 423 q 227 333 318 333 l 52 333 "},"¡":{"x_min":27.78125,"x_max":251.40625,"ha":279,"o":"m 27 -236 l 251 -236 l 201 507 l 75 507 l 27 -236 m 30 678 q 62 753 30 722 q 138 785 94 785 q 215 753 183 785 q 247 678 247 722 q 215 601 247 633 q 138 569 183 569 q 62 601 94 569 q 30 678 30 633 "},"[":{"x_min":41.671875,"x_max":283.359375,"ha":276,"o":"m 283 1108 l 283 1048 l 219 1048 l 219 -36 l 283 -36 l 283 -99 l 41 -99 l 41 1108 l 283 1108 "},"К":{"x_min":41.671875,"x_max":632,"ha":646,"o":"m 247 575 l 275 575 l 404 980 q 448 1010 413 1010 l 597 1010 l 632 822 l 561 822 q 547 812 550 822 l 466 544 l 625 0 l 401 0 l 288 419 l 247 419 l 247 0 l 41 0 l 41 1010 l 247 1010 l 247 575 "},"Γ":{"x_min":41.671875,"x_max":468.09375,"ha":489,"o":"m 41 1010 l 433 1010 l 468 822 l 248 822 l 248 0 l 41 0 l 41 1010 "},"%":{"x_min":41.671875,"x_max":933.40625,"ha":971,"o":"m 718 247 q 719 184 718 208 q 725 146 720 159 q 736 129 729 133 q 754 125 743 125 q 771 129 763 125 q 783 146 779 133 q 789 184 787 159 q 791 247 791 208 q 789 310 791 286 q 783 347 787 334 q 771 365 779 361 q 754 369 763 369 q 736 365 743 369 q 725 347 729 361 q 719 310 720 334 q 718 247 718 286 m 933 247 q 920 114 933 165 q 884 35 908 63 q 828 -3 861 6 q 754 -14 795 -14 q 679 -3 712 -14 q 623 35 647 6 q 587 114 600 63 q 575 247 575 165 q 587 379 575 327 q 623 458 600 430 q 679 497 647 487 q 754 508 712 508 q 828 497 795 508 q 884 458 861 487 q 920 379 908 430 q 933 247 933 327 m 183 762 q 185 699 183 723 q 191 661 187 675 q 202 644 195 648 q 220 640 209 640 q 237 644 230 640 q 248 661 244 648 q 254 699 252 675 q 256 762 256 723 q 254 825 256 801 q 248 863 252 850 q 237 880 244 876 q 220 884 230 884 q 202 880 209 884 q 191 863 195 876 q 185 825 187 850 q 183 762 183 801 m 400 762 q 387 630 400 680 q 351 551 375 579 q 295 512 327 522 q 220 501 262 501 q 146 512 179 501 q 90 551 113 522 q 54 630 66 579 q 41 762 41 680 q 54 894 41 843 q 90 974 66 946 q 146 1013 113 1003 q 220 1024 179 1024 q 295 1013 262 1024 q 351 974 327 1003 q 387 894 375 946 q 400 762 400 843 m 758 1017 l 363 -7 l 213 -7 l 612 1017 l 758 1017 "},"P":{"x_min":41.671875,"x_max":556.984375,"ha":594,"o":"m 241 830 l 241 434 l 341 434 q 357 439 354 434 q 361 455 361 444 l 361 811 q 343 830 361 830 l 241 830 m 437 1007 q 527 973 497 1007 q 556 884 556 940 l 556 402 q 550 349 556 373 q 527 306 544 325 q 483 278 511 288 q 413 268 455 268 l 241 268 l 241 0 l 41 0 l 41 1007 l 437 1007 "},"_":{"x_min":41.671875,"x_max":488.921875,"ha":531,"o":"m 41 -26 l 488 -26 l 488 -185 l 41 -185 l 41 -26 "},"ñ":{"x_min":55.5625,"x_max":1105.640625,"ha":1108,"o":"m 745 336 q 315 336 531 282 q 349 287 329 312 q 396 240 369 262 q 456 204 423 218 q 530 190 490 190 q 602 204 569 190 q 663 240 636 218 q 711 287 690 262 q 745 336 732 312 m 833 472 l 227 472 l 301 355 q 529 328 416 327 q 758 355 643 329 l 833 472 m 448 629 q 419 707 430 666 q 384 779 408 747 q 367 779 380 784 q 339 764 354 773 q 314 746 325 755 q 306 734 304 737 l 406 609 q 416 609 408 607 q 431 614 423 611 q 444 622 438 618 q 448 629 450 626 m 581 515 l 530 639 l 480 515 l 581 515 m 752 734 q 744 746 754 737 q 720 764 734 755 q 693 779 707 773 q 676 779 680 784 q 639 707 651 747 q 612 629 627 666 q 615 622 609 626 q 629 614 620 618 q 644 609 637 611 q 654 609 651 607 l 752 734 m 912 515 q 882 366 912 436 q 800 245 852 297 q 679 163 748 193 q 530 133 609 133 q 381 163 451 133 q 260 245 312 193 q 177 366 208 297 q 147 515 147 436 q 177 663 147 594 q 260 785 208 733 q 381 867 312 837 q 530 897 451 897 q 679 867 609 897 q 800 785 748 837 q 882 663 852 733 q 912 515 912 594 m 940 515 q 908 675 940 600 q 820 805 876 750 q 690 893 765 861 q 530 926 615 926 q 370 893 445 926 q 239 805 295 861 q 150 675 183 750 q 118 515 118 600 q 150 356 118 430 q 239 225 183 281 q 370 136 295 169 q 530 104 445 104 q 690 136 615 104 q 820 225 765 169 q 908 356 876 281 q 940 515 940 430 m 982 144 l 945 144 l 945 49 l 919 49 l 919 144 l 884 144 l 884 167 l 982 167 l 982 144 m 1005 515 q 968 330 1005 416 q 866 179 930 244 q 714 76 801 114 q 530 39 627 39 q 345 76 431 39 q 195 179 259 114 q 93 330 130 244 q 55 515 55 416 q 93 700 55 614 q 195 852 130 787 q 345 954 259 916 q 530 992 431 992 q 714 954 627 992 q 866 852 801 916 q 968 700 930 787 q 1005 515 1005 614 m 1105 49 l 1084 49 l 1084 144 l 1061 49 l 1038 49 l 1015 144 l 1015 49 l 993 49 l 993 166 l 1027 166 l 1051 75 l 1070 166 l 1105 166 l 1105 49 "},"‚":{"x_min":20.828125,"x_max":254.1875,"ha":275,"o":"m 86 201 l 254 201 l 145 -194 l 20 -194 l 86 201 "},"Ρ":{"x_min":41.671875,"x_max":556.984375,"ha":594,"o":"m 241 833 l 241 434 l 341 434 q 357 439 354 434 q 361 455 361 444 l 361 813 q 343 833 361 833 l 241 833 m 556 398 q 524 303 556 338 q 420 268 491 268 l 241 268 l 241 0 l 41 0 l 41 1010 l 420 1010 q 524 975 491 1010 q 556 880 556 940 l 556 398 "},"Æ":{"x_min":13.890625,"x_max":855.625,"ha":883,"o":"m 270 125 l 229 0 l 13 0 l 384 1010 l 820 1010 l 855 822 l 636 822 l 636 580 l 802 580 l 802 407 l 636 407 l 636 187 l 847 187 l 812 0 l 434 0 l 434 125 l 270 125 m 322 284 l 434 284 l 434 644 l 322 284 "},"ª":{"x_min":41.671875,"x_max":359.75,"ha":401,"o":"m 175 898 q 163 887 163 898 l 163 640 q 175 630 163 630 l 237 630 l 237 898 l 175 898 m 359 513 l 237 513 l 237 546 l 209 513 l 108 513 q 59 529 77 513 q 41 579 41 546 l 41 940 q 111 1010 41 1010 l 359 1010 l 359 513 "},"Œ":{"x_min":41.671875,"x_max":787.5625,"ha":815,"o":"m 752 1010 l 787 822 l 568 822 l 568 580 l 734 580 l 734 407 l 568 407 l 568 187 l 779 187 l 744 0 l 184 0 q 115 11 143 0 q 70 43 87 23 q 47 88 54 62 q 41 143 41 113 l 41 879 q 73 974 41 939 q 176 1010 105 1010 l 752 1010 m 262 822 q 244 802 244 822 l 244 208 q 247 192 244 197 q 263 187 251 187 l 359 187 l 359 822 l 262 822 "},"T":{"x_min":13.890625,"x_max":488.921875,"ha":503,"o":"m 438 1007 l 488 819 l 354 819 l 354 0 l 148 0 l 148 819 l 13 819 l 66 1007 l 438 1007 "},"š":{"x_min":55.5625,"x_max":1105.640625,"ha":1108,"o":"m 745 336 q 315 336 531 282 q 349 287 329 312 q 396 240 369 262 q 456 204 423 218 q 530 190 490 190 q 602 204 569 190 q 663 240 636 218 q 711 287 690 262 q 745 336 732 312 m 833 472 l 227 472 l 301 355 q 529 328 416 327 q 758 355 643 329 l 833 472 m 448 629 q 419 707 430 666 q 384 779 408 747 q 367 779 380 784 q 339 764 354 773 q 314 746 325 755 q 306 734 304 737 l 406 609 q 416 609 408 607 q 431 614 423 611 q 444 622 438 618 q 448 629 450 626 m 581 515 l 530 639 l 480 515 l 581 515 m 752 734 q 744 746 754 737 q 720 764 734 755 q 693 779 707 773 q 676 779 680 784 q 639 707 651 747 q 612 629 627 666 q 615 622 609 626 q 629 614 620 618 q 644 609 637 611 q 654 609 651 607 l 752 734 m 912 515 q 882 366 912 436 q 800 245 852 297 q 679 163 748 193 q 530 133 609 133 q 381 163 451 133 q 260 245 312 193 q 177 366 208 297 q 147 515 147 436 q 177 663 147 594 q 260 785 208 733 q 381 867 312 837 q 530 897 451 897 q 679 867 609 897 q 800 785 748 837 q 882 663 852 733 q 912 515 912 594 m 940 515 q 908 675 940 600 q 820 805 876 750 q 690 893 765 861 q 530 926 615 926 q 370 893 445 926 q 239 805 295 861 q 150 675 183 750 q 118 515 118 600 q 150 356 118 430 q 239 225 183 281 q 370 136 295 169 q 530 104 445 104 q 690 136 615 104 q 820 225 765 169 q 908 356 876 281 q 940 515 940 430 m 982 144 l 945 144 l 945 49 l 919 49 l 919 144 l 884 144 l 884 167 l 982 167 l 982 144 m 1005 515 q 968 330 1005 416 q 866 179 930 244 q 714 76 801 114 q 530 39 627 39 q 345 76 431 39 q 195 179 259 114 q 93 330 130 244 q 55 515 55 416 q 93 700 55 614 q 195 852 130 787 q 345 954 259 916 q 530 992 431 992 q 714 954 627 992 q 866 852 801 916 q 968 700 930 787 q 1005 515 1005 614 m 1105 49 l 1084 49 l 1084 144 l 1061 49 l 1038 49 l 1015 144 l 1015 49 l 993 49 l 993 166 l 1027 166 l 1051 75 l 1070 166 l 1105 166 l 1105 49 "},"Þ":{"x_min":41.671875,"x_max":556.984375,"ha":599,"o":"m 241 708 l 241 291 l 341 291 q 357 296 354 291 q 361 312 361 301 l 361 688 q 343 708 361 708 l 241 708 m 556 255 q 524 160 556 195 q 420 125 491 125 l 241 125 l 241 0 l 41 0 l 41 1010 l 241 1010 l 241 884 l 420 884 q 524 850 491 884 q 556 755 556 815 l 556 255 "},"j":{"x_min":37.5,"x_max":545.875,"ha":588,"o":"m 37 580 l 233 580 l 233 200 q 251 180 233 180 l 325 180 q 343 201 343 180 l 343 819 l 125 819 l 159 1007 l 545 1007 l 545 144 q 511 42 545 84 q 409 0 476 0 l 170 0 q 74 34 111 0 q 37 129 37 69 l 37 580 "},"Σ":{"x_min":13.890625,"x_max":509.765625,"ha":531,"o":"m 463 0 l 13 0 l 175 504 l 19 1010 l 475 1010 l 509 822 l 293 822 l 401 504 l 294 187 l 498 187 l 463 0 "},"1":{"x_min":23.609375,"x_max":381.96875,"ha":406,"o":"m 98 1007 l 313 1007 l 313 187 l 381 187 l 381 0 l 41 0 l 41 187 l 106 187 l 106 819 l 23 819 l 98 1007 "},"›":{"x_min":20.828125,"x_max":354.1875,"ha":368,"o":"m 354 379 l 186 104 l 20 104 l 184 379 l 20 654 l 186 654 l 354 379 "},"<":{"x_min":41.671875,"x_max":536.15625,"ha":585,"o":"m 41 441 l 41 567 l 536 833 l 536 667 l 194 505 l 536 341 l 536 176 l 41 441 "},"Ц":{"x_min":41.671875,"x_max":618.109375,"ha":660,"o":"m 562 187 l 618 187 l 618 -148 l 430 -183 l 430 0 l 41 0 l 41 1010 l 247 1010 l 247 187 l 356 187 l 356 1010 l 562 1010 l 562 187 "},"t":{"x_min":13.890625,"x_max":488.921875,"ha":503,"o":"m 438 1007 l 488 819 l 354 819 l 354 0 l 148 0 l 148 819 l 13 819 l 66 1007 l 438 1007 "},"¬":{"x_min":41.671875,"x_max":566.71875,"ha":608,"o":"m 55 626 l 566 626 l 566 271 l 387 271 l 387 460 l 41 460 l 55 626 "},"ù":{"x_min":55.5625,"x_max":1105.640625,"ha":1108,"o":"m 745 336 q 315 336 531 282 q 349 287 329 312 q 396 240 369 262 q 456 204 423 218 q 530 190 490 190 q 602 204 569 190 q 663 240 636 218 q 711 287 690 262 q 745 336 732 312 m 833 472 l 227 472 l 301 355 q 529 328 416 327 q 758 355 643 329 l 833 472 m 448 629 q 419 707 430 666 q 384 779 408 747 q 367 779 380 784 q 339 764 354 773 q 314 746 325 755 q 306 734 304 737 l 406 609 q 416 609 408 607 q 431 614 423 611 q 444 622 438 618 q 448 629 450 626 m 581 515 l 530 639 l 480 515 l 581 515 m 752 734 q 744 746 754 737 q 720 764 734 755 q 693 779 707 773 q 676 779 680 784 q 639 707 651 747 q 612 629 627 666 q 615 622 609 626 q 629 614 620 618 q 644 609 637 611 q 654 609 651 607 l 752 734 m 912 515 q 882 366 912 436 q 800 245 852 297 q 679 163 748 193 q 530 133 609 133 q 381 163 451 133 q 260 245 312 193 q 177 366 208 297 q 147 515 147 436 q 177 663 147 594 q 260 785 208 733 q 381 867 312 837 q 530 897 451 897 q 679 867 609 897 q 800 785 748 837 q 882 663 852 733 q 912 515 912 594 m 940 515 q 908 675 940 600 q 820 805 876 750 q 690 893 765 861 q 530 926 615 926 q 370 893 445 926 q 239 805 295 861 q 150 675 183 750 q 118 515 118 600 q 150 356 118 430 q 239 225 183 281 q 370 136 295 169 q 530 104 445 104 q 690 136 615 104 q 820 225 765 169 q 908 356 876 281 q 940 515 940 430 m 982 144 l 945 144 l 945 49 l 919 49 l 919 144 l 884 144 l 884 167 l 982 167 l 982 144 m 1005 515 q 968 330 1005 416 q 866 179 930 244 q 714 76 801 114 q 530 39 627 39 q 345 76 431 39 q 195 179 259 114 q 93 330 130 244 q 55 515 55 416 q 93 700 55 614 q 195 852 130 787 q 345 954 259 916 q 530 992 431 992 q 714 954 627 992 q 866 852 801 916 q 968 700 930 787 q 1005 515 1005 614 m 1105 49 l 1084 49 l 1084 144 l 1061 49 l 1038 49 l 1015 144 l 1015 49 l 993 49 l 993 166 l 1027 166 l 1051 75 l 1070 166 l 1105 166 l 1105 49 "},"Ф":{"x_min":41.671875,"x_max":769.5,"ha":811,"o":"m 318 83 l 177 83 q 77 116 112 83 q 41 215 41 148 l 41 794 q 77 893 41 861 q 177 926 112 926 l 318 926 l 318 1010 l 495 1010 l 495 926 l 633 926 q 734 893 698 926 q 769 794 769 861 l 769 215 q 734 116 769 148 q 633 83 698 83 l 495 83 l 495 0 l 318 0 l 318 83 m 575 727 q 571 743 575 738 q 555 748 568 748 l 495 748 l 495 261 l 556 261 q 575 280 575 261 l 575 727 m 238 281 q 242 265 238 270 q 258 261 245 261 l 318 261 l 318 748 l 256 748 q 238 729 238 748 l 238 281 "},"ï":{"x_min":55.5625,"x_max":1105.640625,"ha":1108,"o":"m 745 336 q 315 336 531 282 q 349 287 329 312 q 396 240 369 262 q 456 204 423 218 q 530 190 490 190 q 602 204 569 190 q 663 240 636 218 q 711 287 690 262 q 745 336 732 312 m 833 472 l 227 472 l 301 355 q 529 328 416 327 q 758 355 643 329 l 833 472 m 448 629 q 419 707 430 666 q 384 779 408 747 q 367 779 380 784 q 339 764 354 773 q 314 746 325 755 q 306 734 304 737 l 406 609 q 416 609 408 607 q 431 614 423 611 q 444 622 438 618 q 448 629 450 626 m 581 515 l 530 639 l 480 515 l 581 515 m 752 734 q 744 746 754 737 q 720 764 734 755 q 693 779 707 773 q 676 779 680 784 q 639 707 651 747 q 612 629 627 666 q 615 622 609 626 q 629 614 620 618 q 644 609 637 611 q 654 609 651 607 l 752 734 m 912 515 q 882 366 912 436 q 800 245 852 297 q 679 163 748 193 q 530 133 609 133 q 381 163 451 133 q 260 245 312 193 q 177 366 208 297 q 147 515 147 436 q 177 663 147 594 q 260 785 208 733 q 381 867 312 837 q 530 897 451 897 q 679 867 609 897 q 800 785 748 837 q 882 663 852 733 q 912 515 912 594 m 940 515 q 908 675 940 600 q 820 805 876 750 q 690 893 765 861 q 530 926 615 926 q 370 893 445 926 q 239 805 295 861 q 150 675 183 750 q 118 515 118 600 q 150 356 118 430 q 239 225 183 281 q 370 136 295 169 q 530 104 445 104 q 690 136 615 104 q 820 225 765 169 q 908 356 876 281 q 940 515 940 430 m 982 144 l 945 144 l 945 49 l 919 49 l 919 144 l 884 144 l 884 167 l 982 167 l 982 144 m 1005 515 q 968 330 1005 416 q 866 179 930 244 q 714 76 801 114 q 530 39 627 39 q 345 76 431 39 q 195 179 259 114 q 93 330 130 244 q 55 515 55 416 q 93 700 55 614 q 195 852 130 787 q 345 954 259 916 q 530 992 431 992 q 714 954 627 992 q 866 852 801 916 q 968 700 930 787 q 1005 515 1005 614 m 1105 49 l 1084 49 l 1084 144 l 1061 49 l 1038 49 l 1015 144 l 1015 49 l 993 49 l 993 166 l 1027 166 l 1051 75 l 1070 166 l 1105 166 l 1105 49 "},"Ò":{"x_min":-13.890625,"x_max":563.9375,"ha":606,"o":"m 341 833 q 359 813 359 833 l 359 197 q 356 181 359 186 q 340 176 352 176 l 263 176 q 247 181 251 176 q 244 197 244 186 l 244 813 q 262 833 244 833 l 341 833 m 563 879 q 531 974 563 938 q 429 1009 500 1009 l 176 1009 q 73 974 105 1009 q 41 879 41 938 l 41 143 q 47 88 41 113 q 70 43 54 62 q 115 11 87 23 q 184 0 143 0 l 420 0 q 490 11 462 0 q 534 43 518 23 q 557 88 551 62 q 563 143 563 113 l 563 879 m -13 1229 l 201 1229 l 381 1060 l 234 1060 l -13 1229 "},"О":{"x_min":41.671875,"x_max":563.9375,"ha":606,"o":"m 262 833 q 244 813 244 833 l 244 197 q 247 181 244 186 q 263 176 251 176 l 340 176 q 356 181 352 176 q 359 197 359 186 l 359 813 q 341 833 359 833 l 262 833 m 563 143 q 557 88 563 113 q 534 43 551 62 q 490 11 518 23 q 420 0 462 0 l 184 0 q 115 11 143 0 q 70 43 87 23 q 47 88 54 62 q 41 143 41 113 l 41 879 q 73 974 41 939 q 176 1010 105 1010 l 429 1010 q 531 974 500 1010 q 563 879 563 939 l 563 143 "},"&":{"x_min":41.671875,"x_max":736.171875,"ha":765,"o":"m 251 504 q 235 495 240 501 q 230 462 230 490 l 230 202 q 240 172 230 180 q 272 163 251 163 l 322 163 q 362 172 341 163 q 393 206 383 181 q 328 341 365 272 q 251 504 291 409 m 377 658 q 433 670 413 657 q 455 708 452 684 q 459 761 458 732 q 456 818 459 791 q 440 857 454 848 q 394 866 426 866 l 363 866 q 309 839 318 866 q 320 775 301 812 l 377 658 m 736 0 l 563 0 q 517 13 540 0 q 480 64 494 27 q 429 21 456 36 q 371 1 401 7 q 309 -6 341 -5 q 248 -8 277 -8 q 150 1 190 -8 q 86 35 111 11 q 52 101 62 60 q 41 203 41 141 l 41 507 q 80 598 41 559 q 186 640 119 636 l 136 736 q 118 789 123 759 q 116 848 113 818 q 130 907 119 879 q 162 955 141 934 q 379 1014 219 1014 q 484 1005 438 1014 q 561 976 530 997 q 607 919 591 955 q 623 826 623 883 l 623 748 q 618 680 623 715 q 592 614 612 644 q 534 565 572 584 q 431 543 495 546 l 522 350 q 547 414 534 371 q 559 507 559 458 l 720 507 q 712 435 720 476 q 691 352 704 394 q 659 270 677 309 q 622 201 641 230 q 619 192 619 197 q 634 187 619 187 l 698 187 l 736 0 "},"I":{"x_min":41.671875,"x_max":243.078125,"ha":285,"o":"m 41 1007 l 243 1007 l 243 0 l 41 0 l 41 1007 "},"G":{"x_min":41.671875,"x_max":550.046875,"ha":588,"o":"m 41 884 q 71 973 41 940 q 161 1007 101 1007 l 448 1007 l 483 819 l 262 819 q 244 800 244 819 l 244 202 q 262 183 244 183 l 354 183 l 354 580 l 550 580 l 550 0 l 198 0 q 76 36 111 0 q 41 155 41 72 l 41 884 "},"`":{"x_min":69.453125,"x_max":465.3125,"ha":535,"o":"m 69 1265 l 284 1265 l 465 1097 l 318 1097 l 69 1265 "},"·":{"x_min":41.671875,"x_max":258.359375,"ha":300,"o":"m 41 504 q 73 580 41 548 q 150 613 105 613 q 226 580 194 613 q 258 504 258 548 q 226 428 258 459 q 150 397 194 397 q 73 428 105 397 q 41 504 41 459 "},"¿":{"x_min":41.671875,"x_max":491.703125,"ha":506,"o":"m 41 250 q 68 322 41 294 q 151 350 94 350 l 258 350 l 258 507 l 425 507 l 425 241 q 408 200 425 218 q 366 183 391 183 l 258 183 q 241 179 244 183 q 238 164 238 175 l 238 -30 q 256 -48 238 -48 l 491 -48 l 456 -236 l 173 -236 q 41 -104 41 -236 l 41 250 m 447 678 q 415 601 447 633 q 338 569 383 569 q 262 601 294 569 q 230 678 230 633 q 262 753 230 722 q 338 785 294 785 q 415 753 383 785 q 447 678 447 722 "},"ý":{"x_min":55.5625,"x_max":1105.640625,"ha":1108,"o":"m 745 336 q 315 336 531 282 q 349 287 329 312 q 396 240 369 262 q 456 204 423 218 q 530 190 490 190 q 602 204 569 190 q 663 240 636 218 q 711 287 690 262 q 745 336 732 312 m 833 472 l 227 472 l 301 355 q 529 328 416 327 q 758 355 643 329 l 833 472 m 448 629 q 419 707 430 666 q 384 779 408 747 q 367 779 380 784 q 339 764 354 773 q 314 746 325 755 q 306 734 304 737 l 406 609 q 416 609 408 607 q 431 614 423 611 q 444 622 438 618 q 448 629 450 626 m 581 515 l 530 639 l 480 515 l 581 515 m 752 734 q 744 746 754 737 q 720 764 734 755 q 693 779 707 773 q 676 779 680 784 q 639 707 651 747 q 612 629 627 666 q 615 622 609 626 q 629 614 620 618 q 644 609 637 611 q 654 609 651 607 l 752 734 m 912 515 q 882 366 912 436 q 800 245 852 297 q 679 163 748 193 q 530 133 609 133 q 381 163 451 133 q 260 245 312 193 q 177 366 208 297 q 147 515 147 436 q 177 663 147 594 q 260 785 208 733 q 381 867 312 837 q 530 897 451 897 q 679 867 609 897 q 800 785 748 837 q 882 663 852 733 q 912 515 912 594 m 940 515 q 908 675 940 600 q 820 805 876 750 q 690 893 765 861 q 530 926 615 926 q 370 893 445 926 q 239 805 295 861 q 150 675 183 750 q 118 515 118 600 q 150 356 118 430 q 239 225 183 281 q 370 136 295 169 q 530 104 445 104 q 690 136 615 104 q 820 225 765 169 q 908 356 876 281 q 940 515 940 430 m 982 144 l 945 144 l 945 49 l 919 49 l 919 144 l 884 144 l 884 167 l 982 167 l 982 144 m 1005 515 q 968 330 1005 416 q 866 179 930 244 q 714 76 801 114 q 530 39 627 39 q 345 76 431 39 q 195 179 259 114 q 93 330 130 244 q 55 515 55 416 q 93 700 55 614 q 195 852 130 787 q 345 954 259 916 q 530 992 431 992 q 714 954 627 992 q 866 852 801 916 q 968 700 930 787 q 1005 515 1005 614 m 1105 49 l 1084 49 l 1084 144 l 1061 49 l 1038 49 l 1015 144 l 1015 49 l 993 49 l 993 166 l 1027 166 l 1051 75 l 1070 166 l 1105 166 l 1105 49 "},"º":{"x_min":41.671875,"x_max":359.75,"ha":401,"o":"m 226 626 q 237 636 237 626 l 237 891 q 226 902 237 902 l 175 902 q 163 891 163 902 l 163 636 q 175 626 163 626 l 226 626 m 41 940 q 111 1010 41 1010 l 291 1010 q 359 940 359 1010 l 359 582 q 291 513 359 513 l 111 513 q 41 582 41 513 l 41 940 "},"Ё":{"x_min":9.71875,"x_max":488.921875,"ha":496,"o":"m 41 1009 l 433 1009 l 468 822 l 248 822 l 248 580 l 415 580 l 415 406 l 248 406 l 248 187 l 459 187 l 425 0 l 41 0 l 41 1009 m 9 1149 q 38 1223 9 1192 q 112 1254 68 1254 q 184 1223 155 1254 q 213 1149 213 1192 q 184 1076 213 1106 q 112 1045 155 1045 q 38 1076 68 1045 q 9 1149 9 1106 m 284 1149 q 313 1223 284 1192 q 386 1254 343 1254 q 459 1223 429 1254 q 488 1149 488 1192 q 459 1076 488 1106 q 386 1045 429 1045 q 313 1076 343 1045 q 284 1149 284 1106 "},";":{"x_min":41.671875,"x_max":258.359375,"ha":300,"o":"m 41 616 q 73 693 41 661 q 150 725 105 725 q 226 693 194 725 q 258 616 258 661 q 226 540 258 572 q 150 509 194 509 q 73 540 105 509 q 41 616 41 572 m 41 92 q 73 169 41 137 q 150 201 105 201 q 226 169 194 201 q 258 92 258 137 q 248 41 258 69 q 222 -10 238 14 q 188 -59 206 -36 q 151 -99 169 -82 l 79 -99 q 104 -55 93 -78 q 123 -10 116 -33 q 61 27 81 -3 q 41 92 41 57 "},"Г":{"x_min":41.671875,"x_max":454.203125,"ha":482,"o":"m 41 1010 l 419 1010 l 454 822 l 248 822 l 248 0 l 41 0 l 41 1010 "},"6":{"x_min":41.671875,"x_max":551.4375,"ha":593,"o":"m 244 193 q 259 176 244 176 l 341 176 q 356 193 356 176 l 356 468 q 344 481 356 481 l 244 481 l 244 193 m 198 0 q 76 36 111 0 q 41 155 41 72 l 41 884 q 74 972 41 938 q 161 1007 106 1007 l 472 1007 l 506 819 l 261 819 q 244 800 244 819 l 244 630 l 445 630 q 523 604 495 630 q 551 523 551 579 l 551 155 q 516 36 551 72 q 394 0 481 0 l 198 0 "},"Ь":{"x_min":41.671875,"x_max":566.71875,"ha":608,"o":"m 247 616 l 430 616 q 534 581 501 616 q 566 486 566 545 l 566 129 q 534 34 566 69 q 430 0 501 0 l 41 0 l 41 1010 l 247 1010 l 247 616 m 351 176 q 369 195 369 176 l 369 429 q 366 445 369 440 q 350 450 362 450 l 247 450 l 247 176 l 351 176 "},"n":{"x_min":41.671875,"x_max":543.09375,"ha":585,"o":"m 41 1007 l 233 1007 l 336 602 l 336 1007 l 543 1007 l 543 0 l 336 0 l 227 420 l 227 0 l 41 0 l 41 1007 "},"¤":{"x_min":41.671875,"x_max":588.9375,"ha":631,"o":"m 236 504 q 249 393 236 433 q 315 354 262 354 q 379 393 366 354 q 393 504 393 433 q 379 615 393 575 q 315 655 366 655 q 249 615 262 655 q 236 504 236 575 m 544 504 q 538 412 544 458 q 518 322 533 366 l 588 256 l 509 175 l 437 240 q 377 223 404 227 q 315 219 350 219 q 253 223 280 219 q 193 240 226 227 l 120 175 l 41 256 l 111 322 q 91 412 97 366 q 86 504 86 458 q 91 596 86 551 q 111 685 97 641 l 41 751 l 120 833 l 193 769 q 253 784 226 780 q 315 788 280 788 q 377 784 350 788 q 437 769 404 780 l 509 833 l 588 751 l 518 685 q 538 596 533 641 q 544 504 544 551 "},"p":{"x_min":41.671875,"x_max":556.984375,"ha":594,"o":"m 241 830 l 241 434 l 341 434 q 357 439 354 434 q 361 455 361 444 l 361 811 q 343 830 361 830 l 241 830 m 437 1007 q 527 973 497 1007 q 556 884 556 940 l 556 402 q 550 349 556 373 q 527 306 544 325 q 483 278 511 288 q 413 268 455 268 l 241 268 l 241 0 l 41 0 l 41 1007 l 437 1007 "},"‡":{"x_min":41.671875,"x_max":622.265625,"ha":664,"o":"m 622 284 q 593 211 622 243 q 520 180 563 180 q 461 202 488 180 q 426 257 433 225 q 384 230 398 251 q 375 159 370 208 q 416 120 400 145 q 433 64 433 95 q 402 -6 433 22 q 330 -36 372 -36 q 260 -6 290 -36 q 230 64 230 22 q 246 120 230 95 q 288 159 262 145 q 279 230 291 208 q 238 255 266 251 q 203 202 231 223 q 143 180 175 180 q 70 211 100 180 q 41 284 41 243 q 70 357 41 326 q 143 387 100 387 q 199 369 175 387 q 236 325 223 351 q 270 353 261 326 q 272 412 280 380 q 237 470 263 444 q 163 496 211 496 q 237 521 211 496 q 272 579 263 547 q 270 637 280 611 q 236 666 261 664 q 199 622 223 640 q 143 604 175 604 q 70 634 100 604 q 41 707 41 665 q 70 780 41 748 q 143 811 100 811 q 203 789 175 811 q 238 736 231 768 q 279 762 266 740 q 288 832 291 783 q 246 871 262 846 q 230 927 230 896 q 260 998 230 969 q 330 1028 290 1028 q 402 998 372 1028 q 433 927 433 969 q 416 871 433 896 q 375 832 400 846 q 384 762 370 783 q 426 734 398 740 q 461 789 433 766 q 520 811 488 811 q 593 780 563 811 q 622 707 622 748 q 593 634 622 665 q 520 604 563 604 q 465 622 490 604 q 426 666 440 640 q 392 638 401 665 q 391 580 383 611 q 427 522 400 548 q 502 496 454 496 q 427 469 454 496 q 391 411 400 443 q 392 353 383 380 q 426 325 401 326 q 465 369 440 351 q 520 387 490 387 q 593 357 563 387 q 622 284 622 326 "},"Ю":{"x_min":41.671875,"x_max":875.0625,"ha":917,"o":"m 875 143 q 868 88 875 113 q 845 43 862 62 q 801 11 829 23 q 732 0 773 0 l 495 0 q 426 11 454 0 q 381 43 398 23 q 359 88 365 62 q 352 143 352 113 l 352 416 l 243 416 l 243 0 l 41 0 l 41 1010 l 243 1010 l 243 591 l 352 591 l 352 879 q 384 974 352 939 q 487 1010 416 1010 l 740 1010 q 843 974 811 1010 q 875 879 875 939 l 875 143 m 573 833 q 555 813 555 833 l 555 197 q 559 181 555 186 q 575 176 562 176 l 651 176 q 667 181 663 176 q 670 197 670 186 l 670 813 q 652 833 670 833 l 573 833 "},"S":{"x_min":41.671875,"x_max":494.484375,"ha":536,"o":"m 91 0 l 55 187 l 272 187 q 295 208 295 187 l 295 391 q 287 416 295 412 q 258 420 279 420 l 154 420 q 111 424 131 420 q 75 440 91 427 q 50 475 59 452 q 41 534 41 497 l 41 876 q 74 971 41 936 q 177 1007 106 1007 l 455 1007 l 490 819 l 262 819 q 237 797 237 819 l 237 613 q 245 593 237 598 q 268 587 252 587 l 394 587 q 468 564 443 587 q 494 484 494 541 l 494 152 q 460 34 494 69 q 340 0 426 0 l 91 0 "},"/":{"x_min":27.78125,"x_max":476.421875,"ha":504,"o":"m 476 1017 l 172 -7 l 27 -7 l 330 1017 l 476 1017 "},"Τ":{"x_min":13.890625,"x_max":488.921875,"ha":503,"o":"m 438 1010 l 488 822 l 354 822 l 354 0 l 148 0 l 148 822 l 13 822 l 66 1010 l 438 1010 "},"y":{"x_min":13.890625,"x_max":612.546875,"ha":626,"o":"m 419 0 l 206 0 l 206 255 l 13 1007 l 222 1007 l 312 531 l 404 1007 l 612 1007 l 419 255 l 419 0 "},"Π":{"x_min":41.671875,"x_max":562.546875,"ha":604,"o":"m 562 0 l 356 0 l 356 822 l 247 822 l 247 0 l 41 0 l 41 1010 l 562 1010 l 562 0 "},"g":{"x_min":41.671875,"x_max":550.046875,"ha":588,"o":"m 41 884 q 71 973 41 940 q 161 1007 101 1007 l 448 1007 l 483 819 l 262 819 q 244 800 244 819 l 244 202 q 262 183 244 183 l 354 183 l 354 580 l 550 580 l 550 0 l 198 0 q 76 36 111 0 q 41 155 41 72 l 41 884 "},"²":{"x_min":27.78125,"x_max":337.53125,"ha":365,"o":"m 337 752 q 329 711 337 726 q 297 681 320 697 l 169 580 q 162 563 162 574 l 162 458 l 325 458 l 301 333 l 27 333 l 27 576 q 36 630 27 608 q 72 669 45 652 l 198 766 q 208 782 208 773 l 208 872 q 195 884 208 884 l 30 884 l 54 1010 l 247 1010 q 337 919 337 1010 l 337 752 "},"–":{"x_min":41.671875,"x_max":629.21875,"ha":671,"o":"m 55 571 l 629 571 l 615 406 l 41 406 l 55 571 "},"ë":{"x_min":55.5625,"x_max":1105.640625,"ha":1108,"o":"m 745 336 q 315 336 531 282 q 349 287 329 312 q 396 240 369 262 q 456 204 423 218 q 530 190 490 190 q 602 204 569 190 q 663 240 636 218 q 711 287 690 262 q 745 336 732 312 m 833 472 l 227 472 l 301 355 q 529 328 416 327 q 758 355 643 329 l 833 472 m 448 629 q 419 707 430 666 q 384 779 408 747 q 367 779 380 784 q 339 764 354 773 q 314 746 325 755 q 306 734 304 737 l 406 609 q 416 609 408 607 q 431 614 423 611 q 444 622 438 618 q 448 629 450 626 m 581 515 l 530 639 l 480 515 l 581 515 m 752 734 q 744 746 754 737 q 720 764 734 755 q 693 779 707 773 q 676 779 680 784 q 639 707 651 747 q 612 629 627 666 q 615 622 609 626 q 629 614 620 618 q 644 609 637 611 q 654 609 651 607 l 752 734 m 912 515 q 882 366 912 436 q 800 245 852 297 q 679 163 748 193 q 530 133 609 133 q 381 163 451 133 q 260 245 312 193 q 177 366 208 297 q 147 515 147 436 q 177 663 147 594 q 260 785 208 733 q 381 867 312 837 q 530 897 451 897 q 679 867 609 897 q 800 785 748 837 q 882 663 852 733 q 912 515 912 594 m 940 515 q 908 675 940 600 q 820 805 876 750 q 690 893 765 861 q 530 926 615 926 q 370 893 445 926 q 239 805 295 861 q 150 675 183 750 q 118 515 118 600 q 150 356 118 430 q 239 225 183 281 q 370 136 295 169 q 530 104 445 104 q 690 136 615 104 q 820 225 765 169 q 908 356 876 281 q 940 515 940 430 m 982 144 l 945 144 l 945 49 l 919 49 l 919 144 l 884 144 l 884 167 l 982 167 l 982 144 m 1005 515 q 968 330 1005 416 q 866 179 930 244 q 714 76 801 114 q 530 39 627 39 q 345 76 431 39 q 195 179 259 114 q 93 330 130 244 q 55 515 55 416 q 93 700 55 614 q 195 852 130 787 q 345 954 259 916 q 530 992 431 992 q 714 954 627 992 q 866 852 801 916 q 968 700 930 787 q 1005 515 1005 614 m 1105 49 l 1084 49 l 1084 144 l 1061 49 l 1038 49 l 1015 144 l 1015 49 l 993 49 l 993 166 l 1027 166 l 1051 75 l 1070 166 l 1105 166 l 1105 49 "},"ƒ":{"x_min":0,"x_max":659.78125,"ha":688,"o":"m 573 822 q 535 809 548 822 q 516 773 522 796 l 484 650 l 608 650 l 561 533 l 450 533 l 327 39 q 287 -51 312 -20 q 228 -95 262 -83 q 150 -108 194 -108 q 54 -105 106 -108 l 0 -5 q 49 -6 27 -5 q 86 -1 70 -6 q 113 16 102 2 q 133 59 125 30 l 258 533 l 197 533 l 236 650 l 286 650 l 350 904 q 406 987 365 965 q 491 1010 448 1010 l 625 1010 l 659 822 l 573 822 "},"J":{"x_min":37.5,"x_max":545.875,"ha":588,"o":"m 37 580 l 233 580 l 233 200 q 251 180 233 180 l 325 180 q 343 201 343 180 l 343 819 l 125 819 l 159 1007 l 545 1007 l 545 144 q 511 42 545 84 q 409 0 476 0 l 170 0 q 74 34 111 0 q 37 129 37 69 l 37 580 "},"Ã":{"x_min":13.890625,"x_max":593.109375,"ha":607,"o":"m 234 125 l 216 0 l 13 0 l 195 1009 l 411 1009 l 593 0 l 390 0 l 372 125 l 234 125 m 256 284 l 350 284 l 304 644 l 256 284 m 541 1228 q 516 1100 548 1148 q 404 1051 483 1051 q 348 1060 372 1051 q 303 1080 325 1069 q 260 1099 281 1090 q 212 1108 238 1108 q 161 1050 161 1108 l 73 1050 q 111 1180 70 1133 q 219 1228 152 1228 q 273 1218 248 1228 q 320 1198 298 1209 q 363 1177 343 1186 q 401 1168 383 1168 q 441 1184 425 1168 q 454 1228 456 1200 l 541 1228 "},"©":{"x_min":46,"x_max":1065,"ha":1111,"o":"m 556 1010 q 751 971 659 1010 q 913 866 844 933 q 1024 705 983 798 q 1065 502 1065 612 q 1024 297 1065 391 q 913 135 983 203 q 751 29 844 67 q 556 -9 659 -9 q 360 29 452 -9 q 198 135 268 67 q 86 297 127 203 q 46 502 46 391 q 86 705 46 612 q 198 866 127 798 q 360 971 268 933 q 556 1010 452 1010 m 556 924 q 395 892 470 924 q 266 803 321 860 q 180 670 211 747 q 149 502 149 593 q 180 333 149 411 q 266 199 211 255 q 395 110 321 142 q 556 79 470 79 q 715 110 641 79 q 844 199 789 142 q 930 333 899 255 q 962 502 962 411 q 930 670 962 593 q 844 803 899 747 q 715 892 789 860 q 556 924 641 924 m 822 407 q 789 316 812 357 q 734 248 766 276 q 660 205 701 220 q 573 190 619 190 q 450 214 505 190 q 357 280 396 238 q 296 379 318 322 q 275 504 275 437 q 295 627 275 570 q 353 725 315 684 q 446 790 391 766 q 569 814 501 814 q 659 800 616 814 q 736 758 703 786 q 791 692 769 731 q 821 602 814 653 l 730 602 q 676 691 719 657 q 571 726 633 726 q 487 708 523 726 q 427 661 451 691 q 390 591 403 631 q 378 505 378 551 q 391 418 378 459 q 430 346 405 377 q 491 296 455 315 q 573 278 528 278 q 680 313 637 278 q 730 407 722 348 l 822 407 "},"D":{"x_min":41.671875,"x_max":555.59375,"ha":597,"o":"m 241 830 l 241 176 l 336 176 q 352 181 348 176 q 355 197 355 186 l 355 811 q 337 830 355 830 l 241 830 m 555 155 q 520 36 555 72 q 398 0 486 0 l 41 0 l 41 1007 l 436 1007 q 525 973 495 1007 q 555 884 555 940 l 555 155 "},"ÿ":{"x_min":55.5625,"x_max":1105.640625,"ha":1108,"o":"m 745 336 q 315 336 531 282 q 349 287 329 312 q 396 240 369 262 q 456 204 423 218 q 530 190 490 190 q 602 204 569 190 q 663 240 636 218 q 711 287 690 262 q 745 336 732 312 m 833 472 l 227 472 l 301 355 q 529 328 416 327 q 758 355 643 329 l 833 472 m 448 629 q 419 707 430 666 q 384 779 408 747 q 367 779 380 784 q 339 764 354 773 q 314 746 325 755 q 306 734 304 737 l 406 609 q 416 609 408 607 q 431 614 423 611 q 444 622 438 618 q 448 629 450 626 m 581 515 l 530 639 l 480 515 l 581 515 m 752 734 q 744 746 754 737 q 720 764 734 755 q 693 779 707 773 q 676 779 680 784 q 639 707 651 747 q 612 629 627 666 q 615 622 609 626 q 629 614 620 618 q 644 609 637 611 q 654 609 651 607 l 752 734 m 912 515 q 882 366 912 436 q 800 245 852 297 q 679 163 748 193 q 530 133 609 133 q 381 163 451 133 q 260 245 312 193 q 177 366 208 297 q 147 515 147 436 q 177 663 147 594 q 260 785 208 733 q 381 867 312 837 q 530 897 451 897 q 679 867 609 897 q 800 785 748 837 q 882 663 852 733 q 912 515 912 594 m 940 515 q 908 675 940 600 q 820 805 876 750 q 690 893 765 861 q 530 926 615 926 q 370 893 445 926 q 239 805 295 861 q 150 675 183 750 q 118 515 118 600 q 150 356 118 430 q 239 225 183 281 q 370 136 295 169 q 530 104 445 104 q 690 136 615 104 q 820 225 765 169 q 908 356 876 281 q 940 515 940 430 m 982 144 l 945 144 l 945 49 l 919 49 l 919 144 l 884 144 l 884 167 l 982 167 l 982 144 m 1005 515 q 968 330 1005 416 q 866 179 930 244 q 714 76 801 114 q 530 39 627 39 q 345 76 431 39 q 195 179 259 114 q 93 330 130 244 q 55 515 55 416 q 93 700 55 614 q 195 852 130 787 q 345 954 259 916 q 530 992 431 992 q 714 954 627 992 q 866 852 801 916 q 968 700 930 787 q 1005 515 1005 614 m 1105 49 l 1084 49 l 1084 144 l 1061 49 l 1038 49 l 1015 144 l 1015 49 l 993 49 l 993 166 l 1027 166 l 1051 75 l 1070 166 l 1105 166 l 1105 49 "},"Л":{"x_min":13.890625,"x_max":630.609375,"ha":672,"o":"m 630 0 l 425 0 l 425 822 l 315 822 l 315 0 l 48 0 l 13 187 l 109 187 l 109 1010 l 630 1010 l 630 0 "},"$":{"x_min":43.0625,"x_max":445.875,"ha":488,"o":"m 263 361 l 88 509 q 47 573 52 540 q 43 651 43 607 l 43 776 q 70 855 43 825 q 152 885 98 885 l 206 885 l 206 1006 l 297 1006 l 297 885 l 401 885 l 440 712 l 211 712 l 211 640 l 400 472 q 436 421 427 448 q 445 358 445 394 l 445 215 q 340 122 445 122 l 297 122 l 297 0 l 206 0 l 206 122 l 98 122 l 50 276 l 263 276 l 263 361 "},"w":{"x_min":13.890625,"x_max":862.5625,"ha":876,"o":"m 657 1007 l 862 1007 l 704 0 l 520 0 l 437 525 l 355 0 l 172 0 l 13 1007 l 219 1007 l 283 420 l 365 1007 l 511 1007 l 591 420 l 657 1007 "},"\\":{"x_min":27.78125,"x_max":476.421875,"ha":504,"o":"m 173 1017 l 476 -7 l 331 -7 l 27 1017 l 173 1017 "},"Д":{"x_min":27.78125,"x_max":718.109375,"ha":746,"o":"m 456 187 l 456 822 l 359 822 q 354 662 356 744 q 345 499 351 580 q 330 338 340 418 q 305 187 320 259 l 456 187 m 215 -148 l 27 -183 l 27 187 l 81 187 q 104 266 90 196 q 131 451 118 337 q 154 708 144 564 q 163 1010 163 853 l 662 1010 l 662 187 l 718 187 l 718 -148 l 530 -183 l 530 0 l 215 0 l 215 -148 "},"Ì":{"x_min":-180.5625,"x_max":243.078125,"ha":285,"o":"m 41 1009 l 243 1009 l 243 0 l 41 0 l 41 1009 m -180 1229 l 34 1229 l 215 1060 l 68 1060 l -180 1229 "},"Ç":{"x_min":41.703125,"x_max":460.234375,"ha":488,"o":"m 145 -181 q 188 -205 161 -195 q 241 -215 216 -215 q 287 -203 268 -215 q 307 -163 307 -191 q 293 -132 307 -145 q 259 -119 279 -119 q 232 -122 245 -119 q 204 -131 219 -125 l 152 -101 l 222 0 l 195 0 q 75 34 109 0 q 41 152 41 69 l 41 886 q 77 977 41 945 q 163 1009 112 1009 l 425 1009 l 460 822 l 266 822 q 248 802 248 822 l 248 206 q 266 187 248 187 l 460 187 l 424 0 l 316 0 l 277 -62 q 316 -58 295 -58 q 402 -85 366 -58 q 438 -165 438 -112 q 424 -223 438 -198 q 387 -265 410 -248 q 336 -290 365 -281 q 276 -298 307 -298 q 192 -288 234 -300 q 116 -252 150 -276 l 145 -181 "},"C":{"x_min":41.671875,"x_max":459.765625,"ha":488,"o":"m 198 0 q 76 36 111 0 q 41 155 41 72 l 41 883 q 75 975 41 943 q 159 1007 109 1007 l 425 1007 l 459 819 l 266 819 q 248 800 248 819 l 248 206 q 266 187 248 187 l 459 187 l 423 0 l 198 0 "},"!":{"x_min":27.78125,"x_max":251.40625,"ha":279,"o":"m 27 1006 l 251 1006 l 201 264 l 75 264 l 27 1006 m 30 92 q 62 17 30 48 q 138 -14 94 -14 q 215 17 183 -14 q 247 92 247 48 q 215 169 247 137 q 138 201 183 201 q 62 169 94 201 q 30 92 30 137 "},"ç":{"x_min":55.5625,"x_max":1105.640625,"ha":1108,"o":"m 745 336 q 315 336 531 282 q 349 287 329 312 q 396 240 369 262 q 456 204 423 218 q 530 190 490 190 q 602 204 569 190 q 663 240 636 218 q 711 287 690 262 q 745 336 732 312 m 833 472 l 227 472 l 301 355 q 529 328 416 327 q 758 355 643 329 l 833 472 m 448 629 q 419 707 430 666 q 384 779 408 747 q 367 779 380 784 q 339 764 354 773 q 314 746 325 755 q 306 734 304 737 l 406 609 q 416 609 408 607 q 431 614 423 611 q 444 622 438 618 q 448 629 450 626 m 581 515 l 530 639 l 480 515 l 581 515 m 752 734 q 744 746 754 737 q 720 764 734 755 q 693 779 707 773 q 676 779 680 784 q 639 707 651 747 q 612 629 627 666 q 615 622 609 626 q 629 614 620 618 q 644 609 637 611 q 654 609 651 607 l 752 734 m 912 515 q 882 366 912 436 q 800 245 852 297 q 679 163 748 193 q 530 133 609 133 q 381 163 451 133 q 260 245 312 193 q 177 366 208 297 q 147 515 147 436 q 177 663 147 594 q 260 785 208 733 q 381 867 312 837 q 530 897 451 897 q 679 867 609 897 q 800 785 748 837 q 882 663 852 733 q 912 515 912 594 m 940 515 q 908 675 940 600 q 820 805 876 750 q 690 893 765 861 q 530 926 615 926 q 370 893 445 926 q 239 805 295 861 q 150 675 183 750 q 118 515 118 600 q 150 356 118 430 q 239 225 183 281 q 370 136 295 169 q 530 104 445 104 q 690 136 615 104 q 820 225 765 169 q 908 356 876 281 q 940 515 940 430 m 982 144 l 945 144 l 945 49 l 919 49 l 919 144 l 884 144 l 884 167 l 982 167 l 982 144 m 1005 515 q 968 330 1005 416 q 866 179 930 244 q 714 76 801 114 q 530 39 627 39 q 345 76 431 39 q 195 179 259 114 q 93 330 130 244 q 55 515 55 416 q 93 700 55 614 q 195 852 130 787 q 345 954 259 916 q 530 992 431 992 q 714 954 627 992 q 866 852 801 916 q 968 700 930 787 q 1005 515 1005 614 m 1105 49 l 1084 49 l 1084 144 l 1061 49 l 1038 49 l 1015 144 l 1015 49 l 993 49 l 993 166 l 1027 166 l 1051 75 l 1070 166 l 1105 166 l 1105 49 "},"È":{"x_min":-58.34375,"x_max":468.09375,"ha":496,"o":"m 41 1009 l 433 1009 l 468 822 l 248 822 l 248 580 l 415 580 l 415 406 l 248 406 l 248 187 l 459 187 l 425 0 l 41 0 l 41 1009 m -58 1229 l 156 1229 l 337 1060 l 190 1060 l -58 1229 "},"Й":{"x_min":41.671875,"x_max":576.4375,"ha":618,"o":"m 247 388 l 370 968 l 370 1009 l 576 1009 l 576 0 l 370 0 l 370 619 l 247 41 l 247 0 l 41 0 l 41 1009 l 247 1009 l 247 388 m 530 1240 q 509 1141 527 1178 q 459 1083 490 1103 q 390 1056 429 1063 q 309 1049 351 1049 q 229 1056 268 1049 q 159 1083 190 1063 q 109 1141 129 1103 q 88 1240 90 1178 l 211 1240 q 218 1186 211 1206 q 240 1155 226 1166 q 271 1142 254 1145 q 309 1140 288 1140 q 350 1142 331 1140 q 381 1155 368 1145 q 401 1186 394 1166 q 408 1240 408 1206 l 530 1240 "},"X":{"x_min":13.890625,"x_max":576.4375,"ha":590,"o":"m 433 525 l 576 0 l 372 0 l 294 354 l 218 0 l 13 0 l 156 525 l 19 1007 l 219 1007 l 294 652 l 372 1007 l 570 1007 l 433 525 "},"ô":{"x_min":55.5625,"x_max":1105.640625,"ha":1108,"o":"m 745 336 q 315 336 531 282 q 349 287 329 312 q 396 240 369 262 q 456 204 423 218 q 530 190 490 190 q 602 204 569 190 q 663 240 636 218 q 711 287 690 262 q 745 336 732 312 m 833 472 l 227 472 l 301 355 q 529 328 416 327 q 758 355 643 329 l 833 472 m 448 629 q 419 707 430 666 q 384 779 408 747 q 367 779 380 784 q 339 764 354 773 q 314 746 325 755 q 306 734 304 737 l 406 609 q 416 609 408 607 q 431 614 423 611 q 444 622 438 618 q 448 629 450 626 m 581 515 l 530 639 l 480 515 l 581 515 m 752 734 q 744 746 754 737 q 720 764 734 755 q 693 779 707 773 q 676 779 680 784 q 639 707 651 747 q 612 629 627 666 q 615 622 609 626 q 629 614 620 618 q 644 609 637 611 q 654 609 651 607 l 752 734 m 912 515 q 882 366 912 436 q 800 245 852 297 q 679 163 748 193 q 530 133 609 133 q 381 163 451 133 q 260 245 312 193 q 177 366 208 297 q 147 515 147 436 q 177 663 147 594 q 260 785 208 733 q 381 867 312 837 q 530 897 451 897 q 679 867 609 897 q 800 785 748 837 q 882 663 852 733 q 912 515 912 594 m 940 515 q 908 675 940 600 q 820 805 876 750 q 690 893 765 861 q 530 926 615 926 q 370 893 445 926 q 239 805 295 861 q 150 675 183 750 q 118 515 118 600 q 150 356 118 430 q 239 225 183 281 q 370 136 295 169 q 530 104 445 104 q 690 136 615 104 q 820 225 765 169 q 908 356 876 281 q 940 515 940 430 m 982 144 l 945 144 l 945 49 l 919 49 l 919 144 l 884 144 l 884 167 l 982 167 l 982 144 m 1005 515 q 968 330 1005 416 q 866 179 930 244 q 714 76 801 114 q 530 39 627 39 q 345 76 431 39 q 195 179 259 114 q 93 330 130 244 q 55 515 55 416 q 93 700 55 614 q 195 852 130 787 q 345 954 259 916 q 530 992 431 992 q 714 954 627 992 q 866 852 801 916 q 968 700 930 787 q 1005 515 1005 614 m 1105 49 l 1084 49 l 1084 144 l 1061 49 l 1038 49 l 1015 144 l 1015 49 l 993 49 l 993 166 l 1027 166 l 1051 75 l 1070 166 l 1105 166 l 1105 49 "},"Б":{"x_min":41.671875,"x_max":556.984375,"ha":599,"o":"m 343 176 q 361 195 361 176 l 361 429 q 357 445 361 440 q 341 450 354 450 l 241 450 l 241 176 l 343 176 m 41 1010 l 490 1010 l 525 822 l 241 822 l 241 616 l 420 616 q 524 581 491 616 q 556 486 556 545 l 556 129 q 524 34 556 69 q 420 0 491 0 l 41 0 l 41 1010 "},"}":{"x_min":-27.78125,"x_max":362.53125,"ha":363,"o":"m 362 473 q 293 453 316 472 q 262 405 270 434 q 255 342 254 376 q 258 277 256 308 q 266 128 261 197 q 255 9 272 59 q 188 -70 238 -41 q 27 -100 137 -100 l -27 -100 l -27 -38 q 43 -6 22 -40 q 69 76 65 27 q 68 177 73 125 q 61 268 62 230 q 63 342 59 302 q 79 416 66 382 q 117 474 93 450 q 181 505 141 498 q 117 535 141 511 q 79 594 93 560 q 63 668 66 629 q 61 743 59 707 q 68 833 62 780 q 69 935 73 886 q 43 1017 65 983 q -27 1049 22 1050 l -27 1113 l 27 1113 q 188 1083 137 1113 q 255 1003 238 1054 q 266 882 272 951 q 258 733 261 812 q 255 667 256 701 q 262 604 254 633 q 293 556 270 575 q 362 536 316 537 l 362 473 "},"â":{"x_min":55.5625,"x_max":1105.640625,"ha":1108,"o":"m 745 336 q 315 336 531 282 q 349 287 329 312 q 396 240 369 262 q 456 204 423 218 q 530 190 490 190 q 602 204 569 190 q 663 240 636 218 q 711 287 690 262 q 745 336 732 312 m 833 472 l 227 472 l 301 355 q 529 328 416 327 q 758 355 643 329 l 833 472 m 448 629 q 419 707 430 666 q 384 779 408 747 q 367 779 380 784 q 339 764 354 773 q 314 746 325 755 q 306 734 304 737 l 406 609 q 416 609 408 607 q 431 614 423 611 q 444 622 438 618 q 448 629 450 626 m 581 515 l 530 639 l 480 515 l 581 515 m 752 734 q 744 746 754 737 q 720 764 734 755 q 693 779 707 773 q 676 779 680 784 q 639 707 651 747 q 612 629 627 666 q 615 622 609 626 q 629 614 620 618 q 644 609 637 611 q 654 609 651 607 l 752 734 m 912 515 q 882 366 912 436 q 800 245 852 297 q 679 163 748 193 q 530 133 609 133 q 381 163 451 133 q 260 245 312 193 q 177 366 208 297 q 147 515 147 436 q 177 663 147 594 q 260 785 208 733 q 381 867 312 837 q 530 897 451 897 q 679 867 609 897 q 800 785 748 837 q 882 663 852 733 q 912 515 912 594 m 940 515 q 908 675 940 600 q 820 805 876 750 q 690 893 765 861 q 530 926 615 926 q 370 893 445 926 q 239 805 295 861 q 150 675 183 750 q 118 515 118 600 q 150 356 118 430 q 239 225 183 281 q 370 136 295 169 q 530 104 445 104 q 690 136 615 104 q 820 225 765 169 q 908 356 876 281 q 940 515 940 430 m 982 144 l 945 144 l 945 49 l 919 49 l 919 144 l 884 144 l 884 167 l 982 167 l 982 144 m 1005 515 q 968 330 1005 416 q 866 179 930 244 q 714 76 801 114 q 530 39 627 39 q 345 76 431 39 q 195 179 259 114 q 93 330 130 244 q 55 515 55 416 q 93 700 55 614 q 195 852 130 787 q 345 954 259 916 q 530 992 431 992 q 714 954 627 992 q 866 852 801 916 q 968 700 930 787 q 1005 515 1005 614 m 1105 49 l 1084 49 l 1084 144 l 1061 49 l 1038 49 l 1015 144 l 1015 49 l 993 49 l 993 166 l 1027 166 l 1051 75 l 1070 166 l 1105 166 l 1105 49 "},"ø":{"x_min":55.5625,"x_max":1105.640625,"ha":1108,"o":"m 745 336 q 315 336 531 282 q 349 287 329 312 q 396 240 369 262 q 456 204 423 218 q 530 190 490 190 q 602 204 569 190 q 663 240 636 218 q 711 287 690 262 q 745 336 732 312 m 833 472 l 227 472 l 301 355 q 529 328 416 327 q 758 355 643 329 l 833 472 m 448 629 q 419 707 430 666 q 384 779 408 747 q 367 779 380 784 q 339 764 354 773 q 314 746 325 755 q 306 734 304 737 l 406 609 q 416 609 408 607 q 431 614 423 611 q 444 622 438 618 q 448 629 450 626 m 581 515 l 530 639 l 480 515 l 581 515 m 752 734 q 744 746 754 737 q 720 764 734 755 q 693 779 707 773 q 676 779 680 784 q 639 707 651 747 q 612 629 627 666 q 615 622 609 626 q 629 614 620 618 q 644 609 637 611 q 654 609 651 607 l 752 734 m 912 515 q 882 366 912 436 q 800 245 852 297 q 679 163 748 193 q 530 133 609 133 q 381 163 451 133 q 260 245 312 193 q 177 366 208 297 q 147 515 147 436 q 177 663 147 594 q 260 785 208 733 q 381 867 312 837 q 530 897 451 897 q 679 867 609 897 q 800 785 748 837 q 882 663 852 733 q 912 515 912 594 m 940 515 q 908 675 940 600 q 820 805 876 750 q 690 893 765 861 q 530 926 615 926 q 370 893 445 926 q 239 805 295 861 q 150 675 183 750 q 118 515 118 600 q 150 356 118 430 q 239 225 183 281 q 370 136 295 169 q 530 104 445 104 q 690 136 615 104 q 820 225 765 169 q 908 356 876 281 q 940 515 940 430 m 982 144 l 945 144 l 945 49 l 919 49 l 919 144 l 884 144 l 884 167 l 982 167 l 982 144 m 1005 515 q 968 330 1005 416 q 866 179 930 244 q 714 76 801 114 q 530 39 627 39 q 345 76 431 39 q 195 179 259 114 q 93 330 130 244 q 55 515 55 416 q 93 700 55 614 q 195 852 130 787 q 345 954 259 916 q 530 992 431 992 q 714 954 627 992 q 866 852 801 916 q 968 700 930 787 q 1005 515 1005 614 m 1105 49 l 1084 49 l 1084 144 l 1061 49 l 1038 49 l 1015 144 l 1015 49 l 993 49 l 993 166 l 1027 166 l 1051 75 l 1070 166 l 1105 166 l 1105 49 "},"Δ":{"x_min":13.890625,"x_max":597.265625,"ha":611,"o":"m 365 187 l 305 633 l 245 187 l 365 187 m 597 0 l 13 0 l 202 1010 l 408 1010 l 597 0 "},"‰":{"x_min":41.671875,"x_max":1354.28125,"ha":1396,"o":"m 1138 245 q 1140 182 1138 206 q 1145 145 1141 158 q 1157 127 1150 131 q 1175 123 1163 123 q 1192 127 1184 123 q 1204 145 1200 131 q 1210 182 1208 158 q 1212 245 1212 206 q 1210 309 1212 284 q 1204 346 1208 333 q 1192 363 1200 359 q 1175 368 1184 368 q 1157 363 1163 368 q 1145 346 1150 359 q 1140 309 1141 333 q 1138 245 1138 284 m 1354 246 q 1341 113 1354 164 q 1305 34 1329 62 q 1249 -4 1282 5 q 1175 -15 1216 -15 q 1100 -4 1133 -15 q 1044 34 1068 5 q 1008 113 1020 62 q 995 246 995 164 q 1008 378 995 326 q 1044 457 1020 429 q 1100 496 1068 486 q 1175 507 1133 507 q 1249 496 1216 507 q 1305 457 1282 486 q 1341 378 1329 429 q 1354 246 1354 326 m 718 245 q 719 182 718 206 q 725 145 720 158 q 736 127 729 131 q 754 123 743 123 q 771 127 763 123 q 783 145 779 131 q 789 182 787 158 q 791 245 791 206 q 789 309 791 284 q 783 346 787 333 q 771 363 779 359 q 754 368 763 368 q 736 363 743 368 q 725 346 729 359 q 719 309 720 333 q 718 245 718 284 m 933 246 q 920 113 933 164 q 884 34 908 62 q 828 -4 861 5 q 754 -15 795 -15 q 679 -4 712 -15 q 623 34 647 5 q 587 113 600 62 q 575 246 575 164 q 587 378 575 326 q 623 457 600 429 q 679 496 647 486 q 754 507 712 507 q 828 496 795 507 q 884 457 861 486 q 920 378 908 429 q 933 246 933 326 m 183 762 q 185 699 183 723 q 191 661 187 675 q 202 644 195 648 q 220 640 209 640 q 237 644 230 640 q 248 661 244 648 q 254 699 252 675 q 256 762 256 723 q 254 825 256 801 q 248 863 252 850 q 237 880 244 876 q 220 884 230 884 q 202 880 209 884 q 191 863 195 876 q 185 825 187 850 q 183 762 183 801 m 400 762 q 387 630 400 680 q 351 551 375 579 q 295 512 327 522 q 220 501 262 501 q 146 512 179 501 q 90 551 113 522 q 54 630 66 579 q 41 762 41 680 q 54 894 41 843 q 90 974 66 946 q 146 1013 113 1003 q 220 1024 179 1024 q 295 1013 262 1024 q 351 974 327 1003 q 387 894 375 946 q 400 762 400 843 m 758 1017 l 363 -7 l 213 -6 l 612 1017 l 758 1017 "},"Ä":{"x_min":13.890625,"x_max":593.109375,"ha":607,"o":"m 234 125 l 216 0 l 13 0 l 195 1009 l 411 1009 l 593 0 l 390 0 l 372 125 l 234 125 m 256 284 l 350 284 l 304 644 l 256 284 m 65 1149 q 94 1223 65 1192 q 168 1254 123 1254 q 240 1223 211 1254 q 269 1149 269 1192 q 240 1076 269 1106 q 168 1045 211 1045 q 94 1076 123 1045 q 65 1149 65 1106 m 340 1149 q 369 1223 340 1192 q 441 1254 398 1254 q 514 1223 484 1254 q 544 1149 544 1192 q 514 1076 544 1106 q 441 1045 484 1045 q 369 1076 398 1045 q 340 1149 340 1106 "},"Ч":{"x_min":41.671875,"x_max":576.4375,"ha":618,"o":"m 370 1010 l 576 1010 l 576 0 l 370 0 l 370 405 l 194 405 q 75 439 108 405 q 41 557 41 473 l 41 1010 l 247 1010 l 247 604 q 250 587 247 593 q 266 582 254 582 l 370 582 l 370 1010 "},"—":{"x_min":41.671875,"x_max":837.5625,"ha":879,"o":"m 55 571 l 837 571 l 823 406 l 41 406 l 55 571 "},"N":{"x_min":41.671875,"x_max":543.09375,"ha":585,"o":"m 41 1007 l 233 1007 l 336 602 l 336 1007 l 543 1007 l 543 0 l 336 0 l 227 420 l 227 0 l 41 0 l 41 1007 "},"2":{"x_min":41.671875,"x_max":504.203125,"ha":546,"o":"m 504 626 q 491 565 504 587 q 443 519 477 543 l 252 368 q 243 344 243 361 l 243 187 l 486 187 l 450 0 l 41 0 l 41 362 q 55 444 41 411 q 106 501 69 477 l 297 647 q 309 658 306 654 q 311 669 311 662 l 311 801 q 291 819 311 819 l 45 819 l 80 1007 l 386 1007 q 470 975 436 1007 q 504 883 504 943 l 504 626 "},"ü":{"x_min":55.5625,"x_max":1105.640625,"ha":1108,"o":"m 745 336 q 315 336 531 282 q 349 287 329 312 q 396 240 369 262 q 456 204 423 218 q 530 190 490 190 q 602 204 569 190 q 663 240 636 218 q 711 287 690 262 q 745 336 732 312 m 833 472 l 227 472 l 301 355 q 529 328 416 327 q 758 355 643 329 l 833 472 m 448 629 q 419 707 430 666 q 384 779 408 747 q 367 779 380 784 q 339 764 354 773 q 314 746 325 755 q 306 734 304 737 l 406 609 q 416 609 408 607 q 431 614 423 611 q 444 622 438 618 q 448 629 450 626 m 581 515 l 530 639 l 480 515 l 581 515 m 752 734 q 744 746 754 737 q 720 764 734 755 q 693 779 707 773 q 676 779 680 784 q 639 707 651 747 q 612 629 627 666 q 615 622 609 626 q 629 614 620 618 q 644 609 637 611 q 654 609 651 607 l 752 734 m 912 515 q 882 366 912 436 q 800 245 852 297 q 679 163 748 193 q 530 133 609 133 q 381 163 451 133 q 260 245 312 193 q 177 366 208 297 q 147 515 147 436 q 177 663 147 594 q 260 785 208 733 q 381 867 312 837 q 530 897 451 897 q 679 867 609 897 q 800 785 748 837 q 882 663 852 733 q 912 515 912 594 m 940 515 q 908 675 940 600 q 820 805 876 750 q 690 893 765 861 q 530 926 615 926 q 370 893 445 926 q 239 805 295 861 q 150 675 183 750 q 118 515 118 600 q 150 356 118 430 q 239 225 183 281 q 370 136 295 169 q 530 104 445 104 q 690 136 615 104 q 820 225 765 169 q 908 356 876 281 q 940 515 940 430 m 982 144 l 945 144 l 945 49 l 919 49 l 919 144 l 884 144 l 884 167 l 982 167 l 982 144 m 1005 515 q 968 330 1005 416 q 866 179 930 244 q 714 76 801 114 q 530 39 627 39 q 345 76 431 39 q 195 179 259 114 q 93 330 130 244 q 55 515 55 416 q 93 700 55 614 q 195 852 130 787 q 345 954 259 916 q 530 992 431 992 q 714 954 627 992 q 866 852 801 916 q 968 700 930 787 q 1005 515 1005 614 m 1105 49 l 1084 49 l 1084 144 l 1061 49 l 1038 49 l 1015 144 l 1015 49 l 993 49 l 993 166 l 1027 166 l 1051 75 l 1070 166 l 1105 166 l 1105 49 "},"М":{"x_min":41.671875,"x_max":687.5625,"ha":729,"o":"m 237 475 l 237 0 l 41 0 l 41 1010 l 254 1010 l 363 582 l 473 1010 l 687 1010 l 687 0 l 491 0 l 491 475 l 363 72 l 237 475 "},"Ó":{"x_min":41.671875,"x_max":619.5,"ha":606,"o":"m 262 833 q 244 813 244 833 l 244 197 q 247 181 244 186 q 263 176 251 176 l 340 176 q 356 181 352 176 q 359 197 359 186 l 359 813 q 341 833 359 833 l 262 833 m 563 143 q 557 88 563 113 q 534 43 551 62 q 490 11 518 23 q 420 0 462 0 l 184 0 q 115 11 143 0 q 70 43 87 23 q 47 88 54 62 q 41 143 41 113 l 41 879 q 73 974 41 938 q 176 1009 105 1009 l 429 1009 q 531 974 500 1009 q 563 879 563 938 l 563 143 m 370 1058 l 223 1058 l 404 1226 l 619 1226 l 370 1058 "},"˜":{"x_min":87.328125,"x_max":556.8125,"ha":643,"o":"m 555 1281 q 529 1152 562 1201 q 418 1104 497 1104 q 362 1113 386 1104 q 317 1132 338 1122 q 274 1151 295 1142 q 226 1160 252 1160 q 175 1103 175 1160 l 87 1103 q 125 1233 84 1186 q 233 1281 166 1281 q 287 1271 262 1281 q 334 1251 312 1262 q 377 1230 356 1239 q 415 1221 397 1221 q 454 1237 438 1221 q 468 1281 470 1253 l 555 1281 "},"Ÿ":{"x_min":13.890625,"x_max":612.546875,"ha":626,"o":"m 419 0 l 206 0 l 206 255 l 13 1007 l 222 1007 l 312 531 l 404 1007 l 612 1007 l 419 255 l 419 0 m 73 1149 q 102 1223 73 1192 q 176 1254 131 1254 q 248 1223 219 1254 q 277 1149 277 1192 q 248 1076 277 1106 q 176 1045 219 1045 q 102 1076 131 1045 q 73 1149 73 1106 m 348 1149 q 377 1223 348 1192 q 450 1254 406 1254 q 522 1223 493 1254 q 552 1149 552 1192 q 522 1076 552 1106 q 450 1045 493 1045 q 377 1076 406 1045 q 348 1149 348 1106 "},"€":{"x_min":0,"x_max":518.09375,"ha":546,"o":"m 518 187 l 480 0 l 201 0 q 81 34 115 0 q 47 152 47 69 l 47 325 l 0 325 l 0 451 l 47 451 l 47 530 l 0 530 l 0 658 l 47 658 l 47 886 q 82 978 47 946 q 169 1010 118 1010 l 480 1010 l 518 822 l 268 822 q 250 803 250 822 l 250 658 l 504 658 l 469 530 l 250 530 l 250 451 l 455 451 l 420 325 l 250 325 l 250 207 q 268 187 250 187 l 518 187 "},"Η":{"x_min":41.671875,"x_max":562.546875,"ha":604,"o":"m 562 0 l 356 0 l 356 402 l 247 402 l 247 0 l 41 0 l 41 1010 l 247 1010 l 247 576 l 356 576 l 356 1010 l 562 1010 l 562 0 "},"С":{"x_min":41.671875,"x_max":459.765625,"ha":488,"o":"m 195 0 q 75 34 109 0 q 41 152 41 69 l 41 886 q 77 978 41 946 q 163 1010 112 1010 l 425 1010 l 459 822 l 266 822 q 248 803 248 822 l 248 207 q 266 187 248 187 l 459 187 l 423 0 l 195 0 "},"Ω":{"x_min":27.78125,"x_max":634.765625,"ha":663,"o":"m 484 1010 q 584 977 548 1010 q 619 878 619 944 l 619 407 q 616 332 619 362 q 602 281 613 301 q 568 249 591 261 q 504 233 545 237 l 504 187 l 634 187 l 601 0 l 368 0 l 368 327 q 400 335 391 327 q 408 366 408 343 l 408 797 q 405 828 408 823 q 377 833 402 833 l 284 833 q 256 828 259 833 q 254 797 254 823 l 254 366 q 262 335 254 343 q 294 327 270 327 l 294 0 l 61 0 l 27 187 l 158 187 l 158 233 q 93 249 116 237 q 59 281 70 261 q 45 332 48 301 q 43 407 43 362 l 43 878 q 78 977 43 944 q 177 1010 113 1010 l 484 1010 "},"ß":{"x_min":55.5625,"x_max":1105.640625,"ha":1108,"o":"m 745 336 q 315 336 531 282 q 349 287 329 312 q 396 240 369 262 q 456 204 423 218 q 530 190 490 190 q 602 204 569 190 q 663 240 636 218 q 711 287 690 262 q 745 336 732 312 m 833 472 l 227 472 l 301 355 q 529 328 416 327 q 758 355 643 329 l 833 472 m 448 629 q 419 707 430 666 q 384 779 408 747 q 367 779 380 784 q 339 764 354 773 q 314 746 325 755 q 306 734 304 737 l 406 609 q 416 609 408 607 q 431 614 423 611 q 444 622 438 618 q 448 629 450 626 m 581 515 l 530 639 l 480 515 l 581 515 m 752 734 q 744 746 754 737 q 720 764 734 755 q 693 779 707 773 q 676 779 680 784 q 639 707 651 747 q 612 629 627 666 q 615 622 609 626 q 629 614 620 618 q 644 609 637 611 q 654 609 651 607 l 752 734 m 912 515 q 882 366 912 436 q 800 245 852 297 q 679 163 748 193 q 530 133 609 133 q 381 163 451 133 q 260 245 312 193 q 177 366 208 297 q 147 515 147 436 q 177 663 147 594 q 260 785 208 733 q 381 867 312 837 q 530 897 451 897 q 679 867 609 897 q 800 785 748 837 q 882 663 852 733 q 912 515 912 594 m 940 515 q 908 675 940 600 q 820 805 876 750 q 690 893 765 861 q 530 926 615 926 q 370 893 445 926 q 239 805 295 861 q 150 675 183 750 q 118 515 118 600 q 150 356 118 430 q 239 225 183 281 q 370 136 295 169 q 530 104 445 104 q 690 136 615 104 q 820 225 765 169 q 908 356 876 281 q 940 515 940 430 m 982 144 l 945 144 l 945 49 l 919 49 l 919 144 l 884 144 l 884 167 l 982 167 l 982 144 m 1005 515 q 968 330 1005 416 q 866 179 930 244 q 714 76 801 114 q 530 39 627 39 q 345 76 431 39 q 195 179 259 114 q 93 330 130 244 q 55 515 55 416 q 93 700 55 614 q 195 852 130 787 q 345 954 259 916 q 530 992 431 992 q 714 954 627 992 q 866 852 801 916 q 968 700 930 787 q 1005 515 1005 614 m 1105 49 l 1084 49 l 1084 144 l 1061 49 l 1038 49 l 1015 144 l 1015 49 l 993 49 l 993 166 l 1027 166 l 1051 75 l 1070 166 l 1105 166 l 1105 49 "},"s":{"x_min":41.671875,"x_max":494.484375,"ha":536,"o":"m 91 0 l 55 187 l 272 187 q 295 208 295 187 l 295 391 q 287 416 295 412 q 258 420 279 420 l 154 420 q 111 424 131 420 q 75 440 91 427 q 50 475 59 452 q 41 534 41 497 l 41 876 q 74 971 41 936 q 177 1007 106 1007 l 455 1007 l 490 819 l 262 819 q 237 797 237 819 l 237 613 q 245 593 237 598 q 268 587 252 587 l 394 587 q 468 564 443 587 q 494 484 494 541 l 494 152 q 460 34 494 69 q 340 0 426 0 l 91 0 "},"?":{"x_min":13.890625,"x_max":463.921875,"ha":506,"o":"m 266 801 q 248 819 266 819 l 13 819 l 48 1007 l 347 1007 q 431 975 400 1007 q 463 891 463 944 l 463 526 q 437 451 463 481 q 354 420 411 420 l 247 420 l 247 263 l 80 263 l 80 530 q 98 570 80 554 q 138 587 116 587 l 247 587 q 263 591 261 587 q 266 606 266 595 l 266 801 m 58 92 q 90 17 58 48 q 166 -14 122 -14 q 243 17 211 -14 q 275 92 275 48 q 243 169 275 137 q 166 201 211 201 q 90 169 122 201 q 58 92 58 137 "},"c":{"x_min":41.671875,"x_max":459.765625,"ha":488,"o":"m 198 0 q 76 36 111 0 q 41 155 41 72 l 41 883 q 75 975 41 943 q 159 1007 109 1007 l 425 1007 l 459 819 l 266 819 q 248 800 248 819 l 248 206 q 266 187 248 187 l 459 187 l 423 0 l 198 0 "},"¶":{"x_min":41.671875,"x_max":765.34375,"ha":807,"o":"m 765 828 l 727 828 l 727 0 l 547 0 l 547 827 l 441 827 l 441 0 l 266 0 l 266 359 l 229 359 q 135 373 172 359 q 77 407 98 386 q 49 454 56 427 q 41 508 41 480 l 41 846 q 86 967 41 925 q 204 1010 131 1010 l 765 1010 l 765 828 "},"Μ":{"x_min":41.671875,"x_max":687.5625,"ha":729,"o":"m 237 475 l 237 0 l 41 0 l 41 1010 l 254 1010 l 363 582 l 473 1010 l 687 1010 l 687 0 l 491 0 l 491 475 l 363 72 l 237 475 "},"•":{"x_min":41.671875,"x_max":525.046875,"ha":567,"o":"m 41 461 q 60 556 41 512 q 111 634 79 601 q 188 686 144 668 q 283 705 233 705 q 377 686 333 705 q 454 634 420 668 q 506 556 487 601 q 525 461 525 512 q 506 366 525 411 q 454 288 487 322 q 377 236 420 255 q 283 216 333 216 q 188 236 233 216 q 111 288 144 255 q 60 366 79 322 q 41 461 41 411 "},"(":{"x_min":41.671875,"x_max":370.859375,"ha":385,"o":"m 370 -56 l 229 -56 q 92 199 143 56 q 41 503 41 342 q 92 808 41 667 q 229 1065 143 949 l 370 1065 q 284 794 315 934 q 254 503 254 653 q 283 214 254 353 q 370 -56 312 74 "},"­":{"x_min":41.671875,"x_max":420.859375,"ha":463,"o":"m 55 571 l 420 571 l 406 406 l 41 406 l 55 571 "},":":{"x_min":41.671875,"x_max":258.359375,"ha":300,"o":"m 41 616 q 73 693 41 661 q 150 725 105 725 q 226 693 194 725 q 258 616 258 661 q 226 540 258 572 q 150 509 194 509 q 73 540 105 509 q 41 616 41 572 m 41 96 q 73 173 41 141 q 150 205 105 205 q 226 173 194 205 q 258 96 258 141 q 226 21 258 52 q 150 -10 194 -10 q 73 21 105 -10 q 41 96 41 52 "},"Û":{"x_min":41.671875,"x_max":562.546875,"ha":604,"o":"m 194 0 q 75 34 108 0 q 41 151 41 68 l 41 1009 l 247 1009 l 247 198 q 250 181 247 187 q 266 176 254 176 l 337 176 q 353 181 350 176 q 356 198 356 187 l 356 1009 l 562 1009 l 562 151 q 529 34 562 68 q 409 0 495 0 l 194 0 m 384 1240 l 541 1058 l 377 1058 l 302 1158 l 227 1058 l 66 1058 l 222 1240 l 384 1240 "},"V":{"x_min":13.890625,"x_max":595.875,"ha":610,"o":"m 391 1007 l 595 1007 l 409 0 l 200 0 l 13 1007 l 218 1007 l 236 877 l 304 356 l 373 880 l 391 1007 "}," ":{"x_min":0,"x_max":0,"ha":695},"У":{"x_min":13.890625,"x_max":645.890625,"ha":660,"o":"m 444 1010 l 645 1010 l 430 122 q 413 70 423 93 q 387 32 404 48 q 345 8 370 16 q 281 0 319 0 l 123 0 l 88 187 l 225 187 q 247 222 259 187 l 13 1010 l 227 1010 l 350 500 l 444 1010 "},"@":{"x_min":41.671875,"x_max":730.609375,"ha":772,"o":"m 730 238 l 400 238 q 331 261 361 238 q 302 329 302 284 l 302 688 q 327 748 302 726 q 383 770 351 770 l 576 770 l 576 818 q 570 844 576 837 q 544 851 565 851 l 261 851 q 231 820 231 851 l 231 202 q 252 177 231 177 l 657 177 l 620 0 l 165 0 q 77 26 112 0 q 41 119 41 52 l 41 891 q 72 974 41 941 q 158 1007 102 1007 l 632 1007 q 704 980 677 1007 q 730 913 730 954 l 730 238 m 562 644 l 491 644 q 472 625 472 644 l 472 386 q 478 373 472 377 q 491 369 484 369 l 562 369 l 562 644 "},"¾":{"x_min":27.78125,"x_max":1059.8125,"ha":1088,"o":"m 759 1031 l 452 -19 l 330 -19 l 636 1031 l 759 1031 m 807 757 l 1018 757 l 1018 256 l 1059 256 l 1059 137 l 1018 137 l 1018 0 l 869 0 l 869 137 l 638 137 l 638 308 l 807 729 l 807 757 m 869 257 l 869 547 l 783 301 l 783 257 l 869 257 m 54 253 l 29 393 l 183 393 q 199 396 194 393 q 204 412 204 399 l 204 536 q 201 549 204 544 q 186 554 198 554 l 66 554 l 66 685 l 183 685 q 200 689 195 685 q 204 706 204 693 l 204 850 q 200 866 204 862 q 187 869 195 869 l 27 869 l 54 1010 l 247 1010 q 348 911 348 1010 l 348 700 q 337 655 348 674 q 290 633 326 636 q 341 611 329 633 q 352 558 352 589 l 352 354 q 251 253 352 253 l 54 253 "},"i":{"x_min":41.671875,"x_max":243.078125,"ha":285,"o":"m 41 1007 l 243 1007 l 243 0 l 41 0 l 41 1007 "},"m":{"x_min":41.671875,"x_max":687.5625,"ha":729,"o":"m 237 475 l 237 0 l 41 0 l 41 1007 l 254 1007 l 363 581 l 473 1007 l 687 1007 l 687 0 l 491 0 l 491 475 l 363 72 l 237 475 "},"Е":{"x_min":41.671875,"x_max":468.09375,"ha":496,"o":"m 41 1010 l 433 1010 l 468 822 l 248 822 l 248 580 l 415 580 l 415 407 l 248 407 l 248 187 l 459 187 l 425 0 l 41 0 l 41 1010 "},"Э":{"x_min":27.78125,"x_max":445.875,"ha":488,"o":"m 238 407 l 72 407 l 72 580 l 238 580 l 238 803 q 220 822 238 822 l 27 822 l 62 1010 l 323 1010 q 410 978 375 1010 q 445 886 445 946 l 445 152 q 411 34 445 69 q 291 0 377 0 l 63 0 l 27 187 l 220 187 q 238 207 238 187 l 238 407 "},"ž":{"x_min":55.5625,"x_max":1105.640625,"ha":1108,"o":"m 745 336 q 315 336 531 282 q 349 287 329 312 q 396 240 369 262 q 456 204 423 218 q 530 190 490 190 q 602 204 569 190 q 663 240 636 218 q 711 287 690 262 q 745 336 732 312 m 833 472 l 227 472 l 301 355 q 529 328 416 327 q 758 355 643 329 l 833 472 m 448 629 q 419 707 430 666 q 384 779 408 747 q 367 779 380 784 q 339 764 354 773 q 314 746 325 755 q 306 734 304 737 l 406 609 q 416 609 408 607 q 431 614 423 611 q 444 622 438 618 q 448 629 450 626 m 581 515 l 530 639 l 480 515 l 581 515 m 752 734 q 744 746 754 737 q 720 764 734 755 q 693 779 707 773 q 676 779 680 784 q 639 707 651 747 q 612 629 627 666 q 615 622 609 626 q 629 614 620 618 q 644 609 637 611 q 654 609 651 607 l 752 734 m 912 515 q 882 366 912 436 q 800 245 852 297 q 679 163 748 193 q 530 133 609 133 q 381 163 451 133 q 260 245 312 193 q 177 366 208 297 q 147 515 147 436 q 177 663 147 594 q 260 785 208 733 q 381 867 312 837 q 530 897 451 897 q 679 867 609 897 q 800 785 748 837 q 882 663 852 733 q 912 515 912 594 m 940 515 q 908 675 940 600 q 820 805 876 750 q 690 893 765 861 q 530 926 615 926 q 370 893 445 926 q 239 805 295 861 q 150 675 183 750 q 118 515 118 600 q 150 356 118 430 q 239 225 183 281 q 370 136 295 169 q 530 104 445 104 q 690 136 615 104 q 820 225 765 169 q 908 356 876 281 q 940 515 940 430 m 982 144 l 945 144 l 945 49 l 919 49 l 919 144 l 884 144 l 884 167 l 982 167 l 982 144 m 1005 515 q 968 330 1005 416 q 866 179 930 244 q 714 76 801 114 q 530 39 627 39 q 345 76 431 39 q 195 179 259 114 q 93 330 130 244 q 55 515 55 416 q 93 700 55 614 q 195 852 130 787 q 345 954 259 916 q 530 992 431 992 q 714 954 627 992 q 866 852 801 916 q 968 700 930 787 q 1005 515 1005 614 m 1105 49 l 1084 49 l 1084 144 l 1061 49 l 1038 49 l 1015 144 l 1015 49 l 993 49 l 993 166 l 1027 166 l 1051 75 l 1070 166 l 1105 166 l 1105 49 "},"á":{"x_min":55.5625,"x_max":1105.640625,"ha":1108,"o":"m 745 336 q 315 336 531 282 q 349 287 329 312 q 396 240 369 262 q 456 204 423 218 q 530 190 490 190 q 602 204 569 190 q 663 240 636 218 q 711 287 690 262 q 745 336 732 312 m 833 472 l 227 472 l 301 355 q 529 328 416 327 q 758 355 643 329 l 833 472 m 448 629 q 419 707 430 666 q 384 779 408 747 q 367 779 380 784 q 339 764 354 773 q 314 746 325 755 q 306 734 304 737 l 406 609 q 416 609 408 607 q 431 614 423 611 q 444 622 438 618 q 448 629 450 626 m 581 515 l 530 639 l 480 515 l 581 515 m 752 734 q 744 746 754 737 q 720 764 734 755 q 693 779 707 773 q 676 779 680 784 q 639 707 651 747 q 612 629 627 666 q 615 622 609 626 q 629 614 620 618 q 644 609 637 611 q 654 609 651 607 l 752 734 m 912 515 q 882 366 912 436 q 800 245 852 297 q 679 163 748 193 q 530 133 609 133 q 381 163 451 133 q 260 245 312 193 q 177 366 208 297 q 147 515 147 436 q 177 663 147 594 q 260 785 208 733 q 381 867 312 837 q 530 897 451 897 q 679 867 609 897 q 800 785 748 837 q 882 663 852 733 q 912 515 912 594 m 940 515 q 908 675 940 600 q 820 805 876 750 q 690 893 765 861 q 530 926 615 926 q 370 893 445 926 q 239 805 295 861 q 150 675 183 750 q 118 515 118 600 q 150 356 118 430 q 239 225 183 281 q 370 136 295 169 q 530 104 445 104 q 690 136 615 104 q 820 225 765 169 q 908 356 876 281 q 940 515 940 430 m 982 144 l 945 144 l 945 49 l 919 49 l 919 144 l 884 144 l 884 167 l 982 167 l 982 144 m 1005 515 q 968 330 1005 416 q 866 179 930 244 q 714 76 801 114 q 530 39 627 39 q 345 76 431 39 q 195 179 259 114 q 93 330 130 244 q 55 515 55 416 q 93 700 55 614 q 195 852 130 787 q 345 954 259 916 q 530 992 431 992 q 714 954 627 992 q 866 852 801 916 q 968 700 930 787 q 1005 515 1005 614 m 1105 49 l 1084 49 l 1084 144 l 1061 49 l 1038 49 l 1015 144 l 1015 49 l 993 49 l 993 166 l 1027 166 l 1051 75 l 1070 166 l 1105 166 l 1105 49 "},"×":{"x_min":55.5625,"x_max":1105.640625,"ha":1108,"o":"m 745 336 q 315 336 531 282 q 349 287 329 312 q 396 240 369 262 q 456 204 423 218 q 530 190 490 190 q 602 204 569 190 q 663 240 636 218 q 711 287 690 262 q 745 336 732 312 m 833 472 l 227 472 l 301 355 q 529 328 416 327 q 758 355 643 329 l 833 472 m 448 629 q 419 707 430 666 q 384 779 408 747 q 367 779 380 784 q 339 764 354 773 q 314 746 325 755 q 306 734 304 737 l 406 609 q 416 609 408 607 q 431 614 423 611 q 444 622 438 618 q 448 629 450 626 m 581 515 l 530 639 l 480 515 l 581 515 m 752 734 q 744 746 754 737 q 720 764 734 755 q 693 779 707 773 q 676 779 680 784 q 639 707 651 747 q 612 629 627 666 q 615 622 609 626 q 629 614 620 618 q 644 609 637 611 q 654 609 651 607 l 752 734 m 912 515 q 882 366 912 436 q 800 245 852 297 q 679 163 748 193 q 530 133 609 133 q 381 163 451 133 q 260 245 312 193 q 177 366 208 297 q 147 515 147 436 q 177 663 147 594 q 260 785 208 733 q 381 867 312 837 q 530 897 451 897 q 679 867 609 897 q 800 785 748 837 q 882 663 852 733 q 912 515 912 594 m 940 515 q 908 675 940 600 q 820 805 876 750 q 690 893 765 861 q 530 926 615 926 q 370 893 445 926 q 239 805 295 861 q 150 675 183 750 q 118 515 118 600 q 150 356 118 430 q 239 225 183 281 q 370 136 295 169 q 530 104 445 104 q 690 136 615 104 q 820 225 765 169 q 908 356 876 281 q 940 515 940 430 m 982 144 l 945 144 l 945 49 l 919 49 l 919 144 l 884 144 l 884 167 l 982 167 l 982 144 m 1005 515 q 968 330 1005 416 q 866 179 930 244 q 714 76 801 114 q 530 39 627 39 q 345 76 431 39 q 195 179 259 114 q 93 330 130 244 q 55 515 55 416 q 93 700 55 614 q 195 852 130 787 q 345 954 259 916 q 530 992 431 992 q 714 954 627 992 q 866 852 801 916 q 968 700 930 787 q 1005 515 1005 614 m 1105 49 l 1084 49 l 1084 144 l 1061 49 l 1038 49 l 1015 144 l 1015 49 l 993 49 l 993 166 l 1027 166 l 1051 75 l 1070 166 l 1105 166 l 1105 49 "},"K":{"x_min":41.671875,"x_max":588.9375,"ha":603,"o":"m 247 575 l 277 575 l 380 1007 l 588 1007 l 468 543 l 587 0 l 366 0 l 287 415 l 247 415 l 247 0 l 41 0 l 41 1007 l 247 1007 l 247 575 l 247 575 "},"7":{"x_min":13.890625,"x_max":513.9375,"ha":528,"o":"m 48 1007 l 513 1007 l 476 882 l 250 0 l 40 0 l 262 819 l 13 819 l 48 1007 "},"¨":{"x_min":108.34375,"x_max":587.546875,"ha":696,"o":"m 108 1200 q 137 1273 108 1242 q 211 1304 166 1304 q 283 1273 254 1304 q 312 1200 312 1242 q 283 1126 312 1157 q 211 1096 254 1096 q 137 1126 166 1096 q 108 1200 108 1157 m 383 1200 q 412 1273 383 1242 q 484 1304 441 1304 q 557 1273 527 1304 q 587 1200 587 1242 q 557 1126 587 1157 q 484 1096 527 1096 q 412 1126 441 1096 q 383 1200 383 1157 "},"Y":{"x_min":13.890625,"x_max":612.546875,"ha":626,"o":"m 419 0 l 206 0 l 206 255 l 13 1007 l 222 1007 l 312 531 l 404 1007 l 612 1007 l 419 255 l 419 0 "},"E":{"x_min":41.671875,"x_max":468.09375,"ha":496,"o":"m 41 1007 l 433 1007 l 468 819 l 248 819 l 248 580 l 415 580 l 415 406 l 248 406 l 248 187 l 459 187 l 425 0 l 41 0 l 41 1007 "},"Ô":{"x_min":41.671875,"x_max":563.9375,"ha":606,"o":"m 262 833 q 244 813 244 833 l 244 197 q 247 181 244 186 q 263 176 251 176 l 340 176 q 356 181 352 176 q 359 197 359 186 l 359 813 q 341 833 359 833 l 262 833 m 563 143 q 557 88 563 113 q 534 43 551 62 q 490 11 518 23 q 420 0 462 0 l 184 0 q 115 11 143 0 q 70 43 87 23 q 47 88 54 62 q 41 143 41 113 l 41 879 q 73 974 41 938 q 176 1009 105 1009 l 429 1009 q 531 974 500 1009 q 563 879 563 938 l 563 143 m 384 1240 l 541 1058 l 377 1058 l 302 1158 l 227 1058 l 66 1058 l 222 1240 l 384 1240 "},"‹":{"x_min":20.828125,"x_max":352.8125,"ha":367,"o":"m 183 654 l 352 654 l 184 379 l 352 104 l 183 104 l 20 379 l 183 654 "},"Ï":{"x_min":-95.84375,"x_max":383.359375,"ha":285,"o":"m 41 1009 l 243 1009 l 243 0 l 41 0 l 41 1009 m -95 1149 q -66 1223 -95 1192 q 6 1254 -37 1254 q 79 1223 50 1254 q 108 1149 108 1192 q 79 1076 108 1106 q 6 1045 50 1045 q -66 1076 -37 1045 q -95 1149 -95 1106 m 179 1149 q 208 1223 179 1192 q 280 1254 237 1254 q 353 1223 323 1254 q 383 1149 383 1192 q 353 1076 383 1106 q 280 1045 323 1045 q 208 1076 237 1045 q 179 1149 179 1106 "},"±":{"x_min":41.671875,"x_max":620.890625,"ha":663,"o":"m 41 587 l 263 587 l 263 821 l 401 821 l 401 587 l 620 587 l 620 451 l 401 451 l 401 277 l 620 277 l 620 140 l 41 140 l 41 277 l 263 277 l 263 451 l 41 451 l 41 587 "},"ì":{"x_min":55.5625,"x_max":1105.640625,"ha":1108,"o":"m 745 336 q 315 336 531 282 q 349 287 329 312 q 396 240 369 262 q 456 204 423 218 q 530 190 490 190 q 602 204 569 190 q 663 240 636 218 q 711 287 690 262 q 745 336 732 312 m 833 472 l 227 472 l 301 355 q 529 328 416 327 q 758 355 643 329 l 833 472 m 448 629 q 419 707 430 666 q 384 779 408 747 q 367 779 380 784 q 339 764 354 773 q 314 746 325 755 q 306 734 304 737 l 406 609 q 416 609 408 607 q 431 614 423 611 q 444 622 438 618 q 448 629 450 626 m 581 515 l 530 639 l 480 515 l 581 515 m 752 734 q 744 746 754 737 q 720 764 734 755 q 693 779 707 773 q 676 779 680 784 q 639 707 651 747 q 612 629 627 666 q 615 622 609 626 q 629 614 620 618 q 644 609 637 611 q 654 609 651 607 l 752 734 m 912 515 q 882 366 912 436 q 800 245 852 297 q 679 163 748 193 q 530 133 609 133 q 381 163 451 133 q 260 245 312 193 q 177 366 208 297 q 147 515 147 436 q 177 663 147 594 q 260 785 208 733 q 381 867 312 837 q 530 897 451 897 q 679 867 609 897 q 800 785 748 837 q 882 663 852 733 q 912 515 912 594 m 940 515 q 908 675 940 600 q 820 805 876 750 q 690 893 765 861 q 530 926 615 926 q 370 893 445 926 q 239 805 295 861 q 150 675 183 750 q 118 515 118 600 q 150 356 118 430 q 239 225 183 281 q 370 136 295 169 q 530 104 445 104 q 690 136 615 104 q 820 225 765 169 q 908 356 876 281 q 940 515 940 430 m 982 144 l 945 144 l 945 49 l 919 49 l 919 144 l 884 144 l 884 167 l 982 167 l 982 144 m 1005 515 q 968 330 1005 416 q 866 179 930 244 q 714 76 801 114 q 530 39 627 39 q 345 76 431 39 q 195 179 259 114 q 93 330 130 244 q 55 515 55 416 q 93 700 55 614 q 195 852 130 787 q 345 954 259 916 q 530 992 431 992 q 714 954 627 992 q 866 852 801 916 q 968 700 930 787 q 1005 515 1005 614 m 1105 49 l 1084 49 l 1084 144 l 1061 49 l 1038 49 l 1015 144 l 1015 49 l 993 49 l 993 166 l 1027 166 l 1051 75 l 1070 166 l 1105 166 l 1105 49 "},"|":{"x_min":55.5625,"x_max":229.1875,"ha":285,"o":"m 229 1038 l 229 -318 l 55 -318 l 55 1038 l 229 1038 "},"§":{"x_min":41.671875,"x_max":538.9375,"ha":581,"o":"m 379 462 q 361 533 379 504 q 319 580 343 562 l 251 580 q 211 570 219 580 q 204 541 204 561 l 204 501 q 219 459 204 475 q 233 443 223 454 q 250 426 243 431 l 355 426 q 375 438 370 426 q 379 462 379 451 m 538 443 q 531 399 538 420 q 506 360 523 377 q 459 332 488 343 q 388 320 430 320 l 379 320 q 415 241 402 293 q 427 126 427 188 q 421 81 427 104 q 399 41 415 59 q 356 11 383 23 q 286 0 329 0 l 72 0 l 72 137 l 238 137 q 258 143 254 137 q 262 161 262 150 q 245 232 262 205 q 204 277 229 258 q 152 312 180 297 q 98 349 123 327 q 57 402 73 370 q 41 486 41 434 l 41 582 q 52 625 41 604 q 84 664 63 647 q 134 691 104 680 q 201 701 163 701 q 168 743 181 719 q 155 791 155 766 l 155 889 q 161 922 155 903 q 182 960 168 941 q 222 993 197 979 q 286 1010 247 1007 l 498 1010 l 498 886 l 362 886 q 325 874 331 886 q 319 843 319 862 l 319 812 q 321 790 319 800 q 330 771 323 780 q 355 749 341 759 q 384 727 369 739 q 437 697 409 712 q 487 652 465 682 q 524 575 509 623 q 538 443 538 526 "},"q":{"x_min":41.671875,"x_max":568.09375,"ha":610,"o":"m 263 830 q 244 809 244 830 l 244 197 q 247 181 244 186 q 263 176 251 176 l 344 176 q 360 181 356 176 q 363 197 363 186 l 363 811 q 345 830 363 830 l 263 830 m 431 1007 q 535 971 502 1007 q 568 876 568 936 l 568 155 q 533 36 568 72 q 411 0 498 0 l 384 0 l 384 -81 l 223 -81 l 223 0 l 198 0 q 76 36 111 0 q 41 155 41 72 l 41 876 q 74 971 41 936 q 177 1007 106 1007 l 431 1007 "},"b":{"x_min":41.671875,"x_max":563.9375,"ha":606,"o":"m 241 830 l 241 566 l 336 566 q 354 572 347 566 q 361 593 361 579 l 361 811 q 343 830 361 830 l 241 830 m 363 384 q 355 407 363 401 q 333 413 347 413 l 241 413 l 241 176 l 343 176 q 359 181 355 176 q 363 197 363 186 l 363 384 m 554 608 q 539 543 554 570 q 484 505 525 516 q 545 476 526 502 q 563 416 563 450 l 563 155 q 529 36 563 72 q 406 0 494 0 l 41 0 l 41 1007 l 434 1007 q 524 973 494 1007 q 554 884 554 940 l 554 608 "},"Ж":{"x_min":20.828125,"x_max":993.140625,"ha":1014,"o":"m 405 1010 l 608 1010 l 608 575 l 636 575 l 765 980 q 809 1010 775 1010 l 958 1010 l 993 822 l 922 822 q 908 812 911 822 l 827 544 l 986 0 l 762 0 l 650 419 l 608 419 l 608 0 l 405 0 l 405 419 l 363 419 l 251 0 l 27 0 l 186 544 l 105 812 q 91 822 102 822 l 20 822 l 55 1010 l 204 1010 q 248 980 238 1010 l 377 575 l 405 575 l 405 1010 "},"®":{"x_min":46,"x_max":1065,"ha":1111,"o":"m 556 1010 q 751 971 659 1010 q 913 866 844 933 q 1024 705 983 798 q 1065 502 1065 612 q 1024 297 1065 391 q 913 135 983 203 q 751 29 844 67 q 556 -9 659 -9 q 360 29 452 -9 q 198 135 268 67 q 86 297 127 203 q 46 502 46 391 q 86 705 46 612 q 198 866 127 798 q 360 971 268 933 q 556 1010 452 1010 m 556 924 q 395 892 470 924 q 266 803 321 860 q 180 670 211 747 q 149 502 149 593 q 180 333 149 411 q 266 199 211 255 q 395 110 321 142 q 556 79 470 79 q 715 110 641 79 q 844 199 789 142 q 930 333 899 255 q 962 502 962 411 q 930 670 962 593 q 844 803 899 747 q 715 892 789 860 q 556 924 641 924 m 449 208 l 363 208 l 363 796 l 583 796 q 735 755 685 796 q 785 628 785 715 q 742 512 782 548 q 637 467 702 475 l 802 208 l 704 208 l 550 464 l 449 464 l 449 208 m 555 535 q 609 537 583 535 q 655 549 635 539 q 687 579 675 559 q 699 634 699 598 q 687 681 699 663 q 658 708 676 698 q 616 721 639 718 q 571 725 593 725 l 449 725 l 449 535 l 555 535 "},"Н":{"x_min":41.671875,"x_max":562.546875,"ha":604,"o":"m 562 0 l 356 0 l 356 402 l 247 402 l 247 0 l 41 0 l 41 1010 l 247 1010 l 247 576 l 356 576 l 356 1010 l 562 1010 l 562 0 "},"Ε":{"x_min":41.671875,"x_max":468.09375,"ha":496,"o":"m 41 1010 l 433 1010 l 468 822 l 248 822 l 248 580 l 415 580 l 415 407 l 248 407 l 248 187 l 459 187 l 425 0 l 41 0 l 41 1010 "},"L":{"x_min":41.671875,"x_max":451.421875,"ha":472,"o":"m 41 1007 l 248 1007 l 248 187 l 451 187 l 416 0 l 41 0 l 41 1007 "},"Щ":{"x_min":41.671875,"x_max":933.40625,"ha":968,"o":"m 877 187 l 933 187 l 933 -148 l 745 -183 l 745 0 l 41 0 l 41 1010 l 247 1010 l 247 187 l 356 187 l 356 1010 l 562 1010 l 562 187 l 672 187 l 672 1010 l 877 1010 l 877 187 "}," ":{"x_min":0,"x_max":0,"ha":174},"Ο":{"x_min":41.671875,"x_max":563.9375,"ha":606,"o":"m 262 833 q 244 813 244 833 l 244 197 q 247 181 244 186 q 263 176 251 176 l 340 176 q 356 181 352 176 q 359 197 359 186 l 359 813 q 341 833 359 833 l 262 833 m 563 143 q 557 88 563 113 q 534 43 551 62 q 490 11 518 23 q 420 0 462 0 l 184 0 q 115 11 143 0 q 70 43 87 23 q 47 88 54 62 q 41 143 41 113 l 41 879 q 73 974 41 939 q 176 1010 105 1010 l 429 1010 q 531 974 500 1010 q 563 879 563 939 l 563 143 "},"À":{"x_min":-16.671875,"x_max":593.109375,"ha":607,"o":"m 372 125 l 390 0 l 593 0 l 411 1009 l 195 1009 l 13 0 l 216 0 l 234 125 l 372 125 m 304 644 l 350 284 l 256 284 l 304 644 m -16 1229 l 198 1229 l 379 1060 l 231 1060 l -16 1229 "},"+":{"x_min":41.671875,"x_max":644.5,"ha":686,"o":"m 41 575 l 272 575 l 272 806 l 412 806 l 412 575 l 644 575 l 644 434 l 412 434 l 412 204 l 272 204 l 272 434 l 41 434 l 41 575 "},"½":{"x_min":27.78125,"x_max":1029.25,"ha":1064,"o":"m 1029 469 q 1019 423 1029 440 q 983 388 1009 406 l 841 276 q 833 258 833 270 l 833 140 l 1016 140 l 988 0 l 683 0 l 683 272 q 693 332 683 308 q 732 376 704 356 l 875 484 q 884 501 884 493 l 884 602 q 870 616 884 616 l 686 616 l 712 757 l 929 757 q 1029 655 1029 757 l 1029 469 m 83 1010 l 244 1010 l 244 393 l 295 393 l 295 253 l 40 253 l 40 393 l 90 393 l 90 869 l 27 869 l 83 1010 m 713 1031 l 402 -19 l 280 -19 l 590 1031 l 713 1031 "},"":{"x_min":13.890625,"x_max":513.9375,"ha":515,"o":"m 284 187 l 473 187 l 438 0 l 13 0 l 240 822 l 30 822 l 65 1009 l 501 1009 l 284 187 m 194 1058 l 38 1240 l 200 1240 l 275 1140 l 350 1240 l 513 1240 l 356 1058 l 194 1058 "},"Ë":{"x_min":9.71875,"x_max":488.921875,"ha":496,"o":"m 41 1009 l 433 1009 l 468 822 l 248 822 l 248 580 l 415 580 l 415 406 l 248 406 l 248 187 l 459 187 l 425 0 l 41 0 l 41 1009 m 9 1149 q 38 1223 9 1192 q 112 1254 68 1254 q 184 1223 155 1254 q 213 1149 213 1192 q 184 1076 213 1106 q 112 1045 155 1045 q 38 1076 68 1045 q 9 1149 9 1106 m 284 1149 q 313 1223 284 1192 q 386 1254 343 1254 q 459 1223 429 1254 q 488 1149 488 1192 q 459 1076 488 1106 q 386 1045 429 1045 q 313 1076 343 1045 q 284 1149 284 1106 "},"'":{"x_min":37.5,"x_max":197.234375,"ha":235,"o":"m 37 1006 l 197 1006 l 166 663 l 69 663 l 37 1006 "},"Š":{"x_min":37.5,"x_max":512.546875,"ha":536,"o":"m 359 0 q 494 134 494 0 l 494 484 q 468 564 494 541 q 394 587 443 587 l 268 587 q 245 593 252 587 q 237 613 237 598 l 237 800 q 262 822 237 822 l 490 822 l 455 1009 l 176 1009 q 73 974 105 1009 q 41 879 41 938 l 41 534 q 50 475 41 497 q 75 440 59 452 q 111 424 91 427 q 154 420 131 420 l 258 420 q 287 416 279 420 q 295 391 295 412 l 295 208 q 272 187 295 187 l 55 187 l 91 0 l 359 0 m 193 1058 l 37 1240 l 198 1240 l 273 1140 l 348 1240 l 512 1240 l 355 1058 l 193 1058 "},"Р":{"x_min":41.671875,"x_max":556.984375,"ha":594,"o":"m 241 833 l 241 434 l 341 434 q 357 439 354 434 q 361 455 361 444 l 361 813 q 343 833 361 833 l 241 833 m 556 398 q 524 303 556 338 q 420 268 491 268 l 241 268 l 241 0 l 41 0 l 41 1010 l 420 1010 q 524 975 491 1010 q 556 880 556 940 l 556 398 "},"ð":{"x_min":55.5625,"x_max":1105.640625,"ha":1108,"o":"m 745 336 q 315 336 531 282 q 349 287 329 312 q 396 240 369 262 q 456 204 423 218 q 530 190 490 190 q 602 204 569 190 q 663 240 636 218 q 711 287 690 262 q 745 336 732 312 m 833 472 l 227 472 l 301 355 q 529 328 416 327 q 758 355 643 329 l 833 472 m 448 629 q 419 707 430 666 q 384 779 408 747 q 367 779 380 784 q 339 764 354 773 q 314 746 325 755 q 306 734 304 737 l 406 609 q 416 609 408 607 q 431 614 423 611 q 444 622 438 618 q 448 629 450 626 m 581 515 l 530 639 l 480 515 l 581 515 m 752 734 q 744 746 754 737 q 720 764 734 755 q 693 779 707 773 q 676 779 680 784 q 639 707 651 747 q 612 629 627 666 q 615 622 609 626 q 629 614 620 618 q 644 609 637 611 q 654 609 651 607 l 752 734 m 912 515 q 882 366 912 436 q 800 245 852 297 q 679 163 748 193 q 530 133 609 133 q 381 163 451 133 q 260 245 312 193 q 177 366 208 297 q 147 515 147 436 q 177 663 147 594 q 260 785 208 733 q 381 867 312 837 q 530 897 451 897 q 679 867 609 897 q 800 785 748 837 q 882 663 852 733 q 912 515 912 594 m 940 515 q 908 675 940 600 q 820 805 876 750 q 690 893 765 861 q 530 926 615 926 q 370 893 445 926 q 239 805 295 861 q 150 675 183 750 q 118 515 118 600 q 150 356 118 430 q 239 225 183 281 q 370 136 295 169 q 530 104 445 104 q 690 136 615 104 q 820 225 765 169 q 908 356 876 281 q 940 515 940 430 m 982 144 l 945 144 l 945 49 l 919 49 l 919 144 l 884 144 l 884 167 l 982 167 l 982 144 m 1005 515 q 968 330 1005 416 q 866 179 930 244 q 714 76 801 114 q 530 39 627 39 q 345 76 431 39 q 195 179 259 114 q 93 330 130 244 q 55 515 55 416 q 93 700 55 614 q 195 852 130 787 q 345 954 259 916 q 530 992 431 992 q 714 954 627 992 q 866 852 801 916 q 968 700 930 787 q 1005 515 1005 614 m 1105 49 l 1084 49 l 1084 144 l 1061 49 l 1038 49 l 1015 144 l 1015 49 l 993 49 l 993 166 l 1027 166 l 1051 75 l 1070 166 l 1105 166 l 1105 49 "},"Φ":{"x_min":45.84375,"x_max":737.5625,"ha":783,"o":"m 318 0 l 181 0 q 81 32 116 0 q 45 131 45 65 l 45 877 q 81 976 45 944 q 181 1009 116 1009 l 318 1009 l 318 1051 l 468 1051 l 468 1009 l 601 1009 q 702 976 666 1009 q 737 877 737 944 l 737 131 q 702 32 737 65 q 601 0 666 0 l 468 0 l 468 -42 l 318 -42 l 318 0 m 543 811 q 539 827 543 822 q 523 832 536 832 l 468 832 l 468 177 l 525 177 q 543 197 543 177 l 543 811 m 243 198 q 246 182 243 187 q 262 177 250 177 l 318 177 l 318 832 l 261 832 q 243 812 243 832 l 243 198 "},"ä":{"x_min":55.5625,"x_max":1105.640625,"ha":1108,"o":"m 745 336 q 315 336 531 282 q 349 287 329 312 q 396 240 369 262 q 456 204 423 218 q 530 190 490 190 q 602 204 569 190 q 663 240 636 218 q 711 287 690 262 q 745 336 732 312 m 833 472 l 227 472 l 301 355 q 529 328 416 327 q 758 355 643 329 l 833 472 m 448 629 q 419 707 430 666 q 384 779 408 747 q 367 779 380 784 q 339 764 354 773 q 314 746 325 755 q 306 734 304 737 l 406 609 q 416 609 408 607 q 431 614 423 611 q 444 622 438 618 q 448 629 450 626 m 581 515 l 530 639 l 480 515 l 581 515 m 752 734 q 744 746 754 737 q 720 764 734 755 q 693 779 707 773 q 676 779 680 784 q 639 707 651 747 q 612 629 627 666 q 615 622 609 626 q 629 614 620 618 q 644 609 637 611 q 654 609 651 607 l 752 734 m 912 515 q 882 366 912 436 q 800 245 852 297 q 679 163 748 193 q 530 133 609 133 q 381 163 451 133 q 260 245 312 193 q 177 366 208 297 q 147 515 147 436 q 177 663 147 594 q 260 785 208 733 q 381 867 312 837 q 530 897 451 897 q 679 867 609 897 q 800 785 748 837 q 882 663 852 733 q 912 515 912 594 m 940 515 q 908 675 940 600 q 820 805 876 750 q 690 893 765 861 q 530 926 615 926 q 370 893 445 926 q 239 805 295 861 q 150 675 183 750 q 118 515 118 600 q 150 356 118 430 q 239 225 183 281 q 370 136 295 169 q 530 104 445 104 q 690 136 615 104 q 820 225 765 169 q 908 356 876 281 q 940 515 940 430 m 982 144 l 945 144 l 945 49 l 919 49 l 919 144 l 884 144 l 884 167 l 982 167 l 982 144 m 1005 515 q 968 330 1005 416 q 866 179 930 244 q 714 76 801 114 q 530 39 627 39 q 345 76 431 39 q 195 179 259 114 q 93 330 130 244 q 55 515 55 416 q 93 700 55 614 q 195 852 130 787 q 345 954 259 916 q 530 992 431 992 q 714 954 627 992 q 866 852 801 916 q 968 700 930 787 q 1005 515 1005 614 m 1105 49 l 1084 49 l 1084 144 l 1061 49 l 1038 49 l 1015 144 l 1015 49 l 993 49 l 993 166 l 1027 166 l 1051 75 l 1070 166 l 1105 166 l 1105 49 "},"Т":{"x_min":13.890625,"x_max":488.921875,"ha":503,"o":"m 438 1010 l 488 822 l 354 822 l 354 0 l 148 0 l 148 822 l 13 822 l 66 1010 l 438 1010 "},"¹":{"x_min":27.78125,"x_max":268.078125,"ha":296,"o":"m 79 1010 l 222 1010 l 222 458 l 268 458 l 268 333 l 40 333 l 40 458 l 84 458 l 84 884 l 27 884 l 79 1010 "},"£":{"x_min":27.78125,"x_max":526.4375,"ha":547,"o":"m 77 882 q 115 979 77 948 q 201 1010 152 1010 l 475 1010 l 509 822 l 300 822 q 280 801 280 822 l 280 568 l 483 568 l 451 426 l 280 426 l 280 187 l 526 187 l 490 0 l 44 0 l 44 187 l 77 187 l 77 426 l 27 426 l 45 568 l 77 568 l 77 882 l 77 882 "},"W":{"x_min":13.890625,"x_max":862.5625,"ha":876,"o":"m 657 1007 l 862 1007 l 704 0 l 520 0 l 437 525 l 355 0 l 172 0 l 13 1007 l 219 1007 l 283 420 l 365 1007 l 511 1007 l 591 420 l 657 1007 "},"v":{"x_min":13.890625,"x_max":595.875,"ha":610,"o":"m 391 1007 l 595 1007 l 409 0 l 200 0 l 13 1007 l 218 1007 l 236 877 l 304 356 l 373 880 l 391 1007 "},">":{"x_min":48.609375,"x_max":543.09375,"ha":585,"o":"m 48 176 l 48 341 l 390 505 l 48 667 l 48 833 l 543 567 l 543 441 l 48 176 "},"û":{"x_min":55.5625,"x_max":1105.640625,"ha":1108,"o":"m 745 336 q 315 336 531 282 q 349 287 329 312 q 396 240 369 262 q 456 204 423 218 q 530 190 490 190 q 602 204 569 190 q 663 240 636 218 q 711 287 690 262 q 745 336 732 312 m 833 472 l 227 472 l 301 355 q 529 328 416 327 q 758 355 643 329 l 833 472 m 448 629 q 419 707 430 666 q 384 779 408 747 q 367 779 380 784 q 339 764 354 773 q 314 746 325 755 q 306 734 304 737 l 406 609 q 416 609 408 607 q 431 614 423 611 q 444 622 438 618 q 448 629 450 626 m 581 515 l 530 639 l 480 515 l 581 515 m 752 734 q 744 746 754 737 q 720 764 734 755 q 693 779 707 773 q 676 779 680 784 q 639 707 651 747 q 612 629 627 666 q 615 622 609 626 q 629 614 620 618 q 644 609 637 611 q 654 609 651 607 l 752 734 m 912 515 q 882 366 912 436 q 800 245 852 297 q 679 163 748 193 q 530 133 609 133 q 381 163 451 133 q 260 245 312 193 q 177 366 208 297 q 147 515 147 436 q 177 663 147 594 q 260 785 208 733 q 381 867 312 837 q 530 897 451 897 q 679 867 609 897 q 800 785 748 837 q 882 663 852 733 q 912 515 912 594 m 940 515 q 908 675 940 600 q 820 805 876 750 q 690 893 765 861 q 530 926 615 926 q 370 893 445 926 q 239 805 295 861 q 150 675 183 750 q 118 515 118 600 q 150 356 118 430 q 239 225 183 281 q 370 136 295 169 q 530 104 445 104 q 690 136 615 104 q 820 225 765 169 q 908 356 876 281 q 940 515 940 430 m 982 144 l 945 144 l 945 49 l 919 49 l 919 144 l 884 144 l 884 167 l 982 167 l 982 144 m 1005 515 q 968 330 1005 416 q 866 179 930 244 q 714 76 801 114 q 530 39 627 39 q 345 76 431 39 q 195 179 259 114 q 93 330 130 244 q 55 515 55 416 q 93 700 55 614 q 195 852 130 787 q 345 954 259 916 q 530 992 431 992 q 714 954 627 992 q 866 852 801 916 q 968 700 930 787 q 1005 515 1005 614 m 1105 49 l 1084 49 l 1084 144 l 1061 49 l 1038 49 l 1015 144 l 1015 49 l 993 49 l 993 166 l 1027 166 l 1051 75 l 1070 166 l 1105 166 l 1105 49 "},"Ð":{"x_min":13.890625,"x_max":576.4375,"ha":618,"o":"m 27 587 l 55 587 l 55 1010 l 441 1010 q 576 875 576 1010 l 576 134 q 441 0 576 0 l 55 0 l 55 420 l 13 420 l 27 587 m 255 833 l 255 587 l 318 587 l 304 420 l 255 420 l 255 176 l 356 176 q 372 181 369 176 q 376 197 376 186 l 376 813 q 358 833 376 833 l 255 833 "},"Λ":{"x_min":13.890625,"x_max":591.71875,"ha":606,"o":"m 302 605 l 222 0 l 13 0 l 194 1010 l 411 1010 l 591 0 l 383 0 l 302 605 "},"Х":{"x_min":13.890625,"x_max":576.4375,"ha":590,"o":"m 433 525 l 576 0 l 372 0 l 294 354 l 218 0 l 13 0 l 156 525 l 19 1010 l 219 1010 l 294 652 l 372 1010 l 570 1010 l 433 525 "},"Υ":{"x_min":13.890625,"x_max":612.546875,"ha":626,"o":"m 419 0 l 206 0 l 206 255 l 13 1010 l 222 1010 l 312 532 l 404 1010 l 612 1010 l 419 255 l 419 0 "},"r":{"x_min":41.671875,"x_max":575.046875,"ha":604,"o":"m 243 830 l 243 483 l 341 483 q 361 504 361 483 l 361 809 q 341 830 361 830 l 243 830 m 559 409 q 536 348 559 376 q 469 320 513 320 l 575 0 l 366 0 l 269 320 l 243 320 l 243 0 l 41 0 l 41 1007 l 423 1007 q 527 971 494 1007 q 559 876 559 936 l 559 409 "},"":{"x_min":55.5625,"x_max":1105.640625,"ha":1108,"o":"m 745 336 q 315 336 531 282 q 349 287 329 312 q 396 240 369 262 q 456 204 423 218 q 530 190 490 190 q 602 204 569 190 q 663 240 636 218 q 711 287 690 262 q 745 336 732 312 m 833 472 l 227 472 l 301 355 q 529 328 416 327 q 758 355 643 329 l 833 472 m 448 629 q 419 707 430 666 q 384 779 408 747 q 367 779 380 784 q 339 764 354 773 q 314 746 325 755 q 306 734 304 737 l 406 609 q 416 609 408 607 q 431 614 423 611 q 444 622 438 618 q 448 629 450 626 m 581 515 l 530 639 l 480 515 l 581 515 m 752 734 q 744 746 754 737 q 720 764 734 755 q 693 779 707 773 q 676 779 680 784 q 639 707 651 747 q 612 629 627 666 q 615 622 609 626 q 629 614 620 618 q 644 609 637 611 q 654 609 651 607 l 752 734 m 912 515 q 882 366 912 436 q 800 245 852 297 q 679 163 748 193 q 530 133 609 133 q 381 163 451 133 q 260 245 312 193 q 177 366 208 297 q 147 515 147 436 q 177 663 147 594 q 260 785 208 733 q 381 867 312 837 q 530 897 451 897 q 679 867 609 897 q 800 785 748 837 q 882 663 852 733 q 912 515 912 594 m 940 515 q 908 675 940 600 q 820 805 876 750 q 690 893 765 861 q 530 926 615 926 q 370 893 445 926 q 239 805 295 861 q 150 675 183 750 q 118 515 118 600 q 150 356 118 430 q 239 225 183 281 q 370 136 295 169 q 530 104 445 104 q 690 136 615 104 q 820 225 765 169 q 908 356 876 281 q 940 515 940 430 m 982 144 l 945 144 l 945 49 l 919 49 l 919 144 l 884 144 l 884 167 l 982 167 l 982 144 m 1005 515 q 968 330 1005 416 q 866 179 930 244 q 714 76 801 114 q 530 39 627 39 q 345 76 431 39 q 195 179 259 114 q 93 330 130 244 q 55 515 55 416 q 93 700 55 614 q 195 852 130 787 q 345 954 259 916 q 530 992 431 992 q 714 954 627 992 q 866 852 801 916 q 968 700 930 787 q 1005 515 1005 614 m 1105 49 l 1084 49 l 1084 144 l 1061 49 l 1038 49 l 1015 144 l 1015 49 l 993 49 l 993 166 l 1027 166 l 1051 75 l 1070 166 l 1105 166 l 1105 49 "},"x":{"x_min":13.890625,"x_max":576.4375,"ha":590,"o":"m 433 525 l 576 0 l 372 0 l 294 354 l 218 0 l 13 0 l 156 525 l 19 1007 l 219 1007 l 294 652 l 372 1007 l 570 1007 l 433 525 "},"è":{"x_min":55.5625,"x_max":1105.640625,"ha":1108,"o":"m 745 336 q 315 336 531 282 q 349 287 329 312 q 396 240 369 262 q 456 204 423 218 q 530 190 490 190 q 602 204 569 190 q 663 240 636 218 q 711 287 690 262 q 745 336 732 312 m 833 472 l 227 472 l 301 355 q 529 328 416 327 q 758 355 643 329 l 833 472 m 448 629 q 419 707 430 666 q 384 779 408 747 q 367 779 380 784 q 339 764 354 773 q 314 746 325 755 q 306 734 304 737 l 406 609 q 416 609 408 607 q 431 614 423 611 q 444 622 438 618 q 448 629 450 626 m 581 515 l 530 639 l 480 515 l 581 515 m 752 734 q 744 746 754 737 q 720 764 734 755 q 693 779 707 773 q 676 779 680 784 q 639 707 651 747 q 612 629 627 666 q 615 622 609 626 q 629 614 620 618 q 644 609 637 611 q 654 609 651 607 l 752 734 m 912 515 q 882 366 912 436 q 800 245 852 297 q 679 163 748 193 q 530 133 609 133 q 381 163 451 133 q 260 245 312 193 q 177 366 208 297 q 147 515 147 436 q 177 663 147 594 q 260 785 208 733 q 381 867 312 837 q 530 897 451 897 q 679 867 609 897 q 800 785 748 837 q 882 663 852 733 q 912 515 912 594 m 940 515 q 908 675 940 600 q 820 805 876 750 q 690 893 765 861 q 530 926 615 926 q 370 893 445 926 q 239 805 295 861 q 150 675 183 750 q 118 515 118 600 q 150 356 118 430 q 239 225 183 281 q 370 136 295 169 q 530 104 445 104 q 690 136 615 104 q 820 225 765 169 q 908 356 876 281 q 940 515 940 430 m 982 144 l 945 144 l 945 49 l 919 49 l 919 144 l 884 144 l 884 167 l 982 167 l 982 144 m 1005 515 q 968 330 1005 416 q 866 179 930 244 q 714 76 801 114 q 530 39 627 39 q 345 76 431 39 q 195 179 259 114 q 93 330 130 244 q 55 515 55 416 q 93 700 55 614 q 195 852 130 787 q 345 954 259 916 q 530 992 431 992 q 714 954 627 992 q 866 852 801 916 q 968 700 930 787 q 1005 515 1005 614 m 1105 49 l 1084 49 l 1084 144 l 1061 49 l 1038 49 l 1015 144 l 1015 49 l 993 49 l 993 166 l 1027 166 l 1051 75 l 1070 166 l 1105 166 l 1105 49 "},"Ø":{"x_min":41.671875,"x_max":570.875,"ha":606,"o":"m 563 143 q 557 88 563 113 q 534 43 551 62 q 490 11 518 23 q 420 0 462 0 l 184 0 q 123 8 148 0 l 108 -28 l 44 1 l 65 48 q 46 91 51 67 q 41 142 41 114 l 41 879 q 73 974 41 939 q 176 1010 105 1010 l 429 1010 q 488 1000 465 1010 l 505 1038 l 570 1008 l 545 954 q 563 879 563 924 l 563 143 m 259 833 q 241 814 241 833 l 241 429 l 362 744 l 362 814 q 344 833 362 833 l 259 833 m 343 176 q 359 181 355 176 q 362 197 362 186 l 362 555 l 241 241 l 241 197 q 245 181 241 186 q 261 176 248 176 l 343 176 "},"÷":{"x_min":55.5625,"x_max":1105.640625,"ha":1108,"o":"m 745 336 q 315 336 531 282 q 349 287 329 312 q 396 240 369 262 q 456 204 423 218 q 530 190 490 190 q 602 204 569 190 q 663 240 636 218 q 711 287 690 262 q 745 336 732 312 m 833 472 l 227 472 l 301 355 q 529 328 416 327 q 758 355 643 329 l 833 472 m 448 629 q 419 707 430 666 q 384 779 408 747 q 367 779 380 784 q 339 764 354 773 q 314 746 325 755 q 306 734 304 737 l 406 609 q 416 609 408 607 q 431 614 423 611 q 444 622 438 618 q 448 629 450 626 m 581 515 l 530 639 l 480 515 l 581 515 m 752 734 q 744 746 754 737 q 720 764 734 755 q 693 779 707 773 q 676 779 680 784 q 639 707 651 747 q 612 629 627 666 q 615 622 609 626 q 629 614 620 618 q 644 609 637 611 q 654 609 651 607 l 752 734 m 912 515 q 882 366 912 436 q 800 245 852 297 q 679 163 748 193 q 530 133 609 133 q 381 163 451 133 q 260 245 312 193 q 177 366 208 297 q 147 515 147 436 q 177 663 147 594 q 260 785 208 733 q 381 867 312 837 q 530 897 451 897 q 679 867 609 897 q 800 785 748 837 q 882 663 852 733 q 912 515 912 594 m 940 515 q 908 675 940 600 q 820 805 876 750 q 690 893 765 861 q 530 926 615 926 q 370 893 445 926 q 239 805 295 861 q 150 675 183 750 q 118 515 118 600 q 150 356 118 430 q 239 225 183 281 q 370 136 295 169 q 530 104 445 104 q 690 136 615 104 q 820 225 765 169 q 908 356 876 281 q 940 515 940 430 m 982 144 l 945 144 l 945 49 l 919 49 l 919 144 l 884 144 l 884 167 l 982 167 l 982 144 m 1005 515 q 968 330 1005 416 q 866 179 930 244 q 714 76 801 114 q 530 39 627 39 q 345 76 431 39 q 195 179 259 114 q 93 330 130 244 q 55 515 55 416 q 93 700 55 614 q 195 852 130 787 q 345 954 259 916 q 530 992 431 992 q 714 954 627 992 q 866 852 801 916 q 968 700 930 787 q 1005 515 1005 614 m 1105 49 l 1084 49 l 1084 144 l 1061 49 l 1038 49 l 1015 144 l 1015 49 l 993 49 l 993 166 l 1027 166 l 1051 75 l 1070 166 l 1105 166 l 1105 49 "},"μ":{"x_min":41.671875,"x_max":520.875,"ha":563,"o":"m 336 49 q 307 12 329 24 q 254 0 286 0 l 223 0 l 223 -267 l 41 -267 l 41 743 l 226 743 l 226 183 q 243 166 226 166 l 319 166 q 336 183 336 166 l 336 743 l 520 743 l 520 0 l 336 0 l 336 49 "},"h":{"x_min":41.671875,"x_max":562.546875,"ha":604,"o":"m 562 0 l 356 0 l 356 402 l 247 402 l 247 0 l 41 0 l 41 1007 l 247 1007 l 247 576 l 356 576 l 356 1007 l 562 1007 l 562 0 "},".":{"x_min":41.671875,"x_max":258.359375,"ha":300,"o":"m 41 92 q 73 169 41 137 q 150 201 105 201 q 226 169 194 201 q 258 92 258 137 q 226 17 258 48 q 150 -14 194 -14 q 73 17 105 -14 q 41 92 41 48 "},"f":{"x_min":41.671875,"x_max":468.09375,"ha":489,"o":"m 41 1007 l 433 1007 l 468 819 l 248 819 l 248 580 l 415 580 l 415 406 l 248 406 l 248 0 l 41 0 l 41 1007 "},"“":{"x_min":27.78125,"x_max":466.703125,"ha":499,"o":"m 466 638 l 338 638 l 261 1034 l 433 1034 l 466 638 m 252 638 l 123 638 l 27 1034 l 198 1034 l 252 638 "},"A":{"x_min":13.890625,"x_max":593.109375,"ha":607,"o":"m 234 125 l 216 0 l 13 0 l 195 1007 l 411 1007 l 593 0 l 390 0 l 372 125 l 234 125 m 256 284 l 350 284 l 304 641 l 256 284 "},"‘":{"x_min":20.828125,"x_max":254.1875,"ha":275,"o":"m 254 638 l 129 638 l 20 1034 l 188 1034 l 254 638 "},"O":{"x_min":41.671875,"x_max":563.9375,"ha":606,"o":"m 262 830 q 244 811 244 830 l 244 197 q 247 181 244 186 q 263 176 251 176 l 340 176 q 356 181 352 176 q 359 197 359 186 l 359 811 q 341 830 359 830 l 262 830 m 563 143 q 556 88 563 113 q 533 43 550 62 q 488 11 516 23 q 419 0 461 0 l 186 0 q 116 11 144 0 q 72 43 88 23 q 48 88 55 62 q 41 143 41 113 l 41 876 q 74 971 41 936 q 177 1007 106 1007 l 427 1007 q 531 971 498 1007 q 563 876 563 936 l 563 143 "},"3":{"x_min":27.78125,"x_max":461.140625,"ha":503,"o":"m 62 1007 l 319 1007 q 426 975 397 1007 q 455 875 455 944 l 455 595 q 441 536 455 561 q 377 506 426 511 q 445 477 429 506 q 461 406 461 447 l 461 155 q 426 36 461 72 q 304 0 391 0 l 63 0 l 29 187 l 230 187 q 251 190 244 187 q 258 212 258 194 l 258 377 q 254 395 258 388 q 233 402 250 402 l 79 402 l 79 576 l 230 576 q 252 581 247 576 q 258 604 258 587 l 258 794 q 252 814 258 809 q 234 819 245 819 l 27 819 l 62 1007 "},"9":{"x_min":41.671875,"x_max":552.828125,"ha":594,"o":"m 350 813 q 334 830 350 830 l 252 830 q 237 813 237 830 l 237 516 q 250 502 237 502 l 350 502 l 350 813 m 552 155 q 518 36 552 72 q 395 0 483 0 l 106 0 l 72 187 l 333 187 q 350 206 350 187 l 350 350 l 147 350 q 71 377 101 350 q 41 459 41 404 l 41 883 q 75 975 41 943 q 159 1007 109 1007 l 434 1007 q 518 975 484 1007 q 552 883 552 943 l 552 155 "},"l":{"x_min":41.671875,"x_max":451.421875,"ha":472,"o":"m 41 1007 l 248 1007 l 248 187 l 451 187 l 416 0 l 41 0 l 41 1007 "},"4":{"x_min":34.71875,"x_max":595.875,"ha":631,"o":"m 259 1007 l 540 1007 l 540 343 l 595 343 l 595 183 l 540 183 l 540 0 l 341 0 l 341 183 l 34 183 l 34 411 l 259 972 l 259 1007 m 341 343 l 341 730 l 227 401 l 227 343 l 341 343 "},"Ъ":{"x_min":13.890625,"x_max":701.4375,"ha":743,"o":"m 381 616 l 565 616 q 668 581 636 616 q 701 486 701 545 l 701 129 q 668 34 701 69 q 565 0 636 0 l 176 0 l 176 822 l 13 822 l 66 1010 l 381 1010 l 381 616 m 486 176 q 504 195 504 176 l 504 429 q 500 445 504 440 q 484 450 497 450 l 381 450 l 381 176 l 486 176 "},"Ü":{"x_min":41.671875,"x_max":562.546875,"ha":604,"o":"m 194 0 q 75 34 108 0 q 41 151 41 68 l 41 1009 l 247 1009 l 247 198 q 250 181 247 187 q 266 176 254 176 l 337 176 q 353 181 350 176 q 356 198 356 187 l 356 1009 l 562 1009 l 562 151 q 529 34 562 68 q 409 0 495 0 l 194 0 m 63 1149 q 93 1223 63 1192 q 166 1254 122 1254 q 238 1223 209 1254 q 268 1149 268 1192 q 238 1076 268 1106 q 166 1045 209 1045 q 93 1076 122 1045 q 63 1149 63 1106 m 338 1149 q 368 1223 338 1192 q 440 1254 397 1254 q 513 1223 483 1254 q 543 1149 543 1192 q 513 1076 543 1106 q 440 1045 483 1045 q 368 1076 397 1045 q 338 1149 338 1106 "},"à":{"x_min":55.5625,"x_max":1105.640625,"ha":1108,"o":"m 745 336 q 315 336 531 282 q 349 287 329 312 q 396 240 369 262 q 456 204 423 218 q 530 190 490 190 q 602 204 569 190 q 663 240 636 218 q 711 287 690 262 q 745 336 732 312 m 833 472 l 227 472 l 301 355 q 529 328 416 327 q 758 355 643 329 l 833 472 m 448 629 q 419 707 430 666 q 384 779 408 747 q 367 779 380 784 q 339 764 354 773 q 314 746 325 755 q 306 734 304 737 l 406 609 q 416 609 408 607 q 431 614 423 611 q 444 622 438 618 q 448 629 450 626 m 581 515 l 530 639 l 480 515 l 581 515 m 752 734 q 744 746 754 737 q 720 764 734 755 q 693 779 707 773 q 676 779 680 784 q 639 707 651 747 q 612 629 627 666 q 615 622 609 626 q 629 614 620 618 q 644 609 637 611 q 654 609 651 607 l 752 734 m 912 515 q 882 366 912 436 q 800 245 852 297 q 679 163 748 193 q 530 133 609 133 q 381 163 451 133 q 260 245 312 193 q 177 366 208 297 q 147 515 147 436 q 177 663 147 594 q 260 785 208 733 q 381 867 312 837 q 530 897 451 897 q 679 867 609 897 q 800 785 748 837 q 882 663 852 733 q 912 515 912 594 m 940 515 q 908 675 940 600 q 820 805 876 750 q 690 893 765 861 q 530 926 615 926 q 370 893 445 926 q 239 805 295 861 q 150 675 183 750 q 118 515 118 600 q 150 356 118 430 q 239 225 183 281 q 370 136 295 169 q 530 104 445 104 q 690 136 615 104 q 820 225 765 169 q 908 356 876 281 q 940 515 940 430 m 982 144 l 945 144 l 945 49 l 919 49 l 919 144 l 884 144 l 884 167 l 982 167 l 982 144 m 1005 515 q 968 330 1005 416 q 866 179 930 244 q 714 76 801 114 q 530 39 627 39 q 345 76 431 39 q 195 179 259 114 q 93 330 130 244 q 55 515 55 416 q 93 700 55 614 q 195 852 130 787 q 345 954 259 916 q 530 992 431 992 q 714 954 627 992 q 866 852 801 916 q 968 700 930 787 q 1005 515 1005 614 m 1105 49 l 1084 49 l 1084 144 l 1061 49 l 1038 49 l 1015 144 l 1015 49 l 993 49 l 993 166 l 1027 166 l 1051 75 l 1070 166 l 1105 166 l 1105 49 "},"ó":{"x_min":55.5625,"x_max":1105.640625,"ha":1108,"o":"m 745 336 q 315 336 531 282 q 349 287 329 312 q 396 240 369 262 q 456 204 423 218 q 530 190 490 190 q 602 204 569 190 q 663 240 636 218 q 711 287 690 262 q 745 336 732 312 m 833 472 l 227 472 l 301 355 q 529 328 416 327 q 758 355 643 329 l 833 472 m 448 629 q 419 707 430 666 q 384 779 408 747 q 367 779 380 784 q 339 764 354 773 q 314 746 325 755 q 306 734 304 737 l 406 609 q 416 609 408 607 q 431 614 423 611 q 444 622 438 618 q 448 629 450 626 m 581 515 l 530 639 l 480 515 l 581 515 m 752 734 q 744 746 754 737 q 720 764 734 755 q 693 779 707 773 q 676 779 680 784 q 639 707 651 747 q 612 629 627 666 q 615 622 609 626 q 629 614 620 618 q 644 609 637 611 q 654 609 651 607 l 752 734 m 912 515 q 882 366 912 436 q 800 245 852 297 q 679 163 748 193 q 530 133 609 133 q 381 163 451 133 q 260 245 312 193 q 177 366 208 297 q 147 515 147 436 q 177 663 147 594 q 260 785 208 733 q 381 867 312 837 q 530 897 451 897 q 679 867 609 897 q 800 785 748 837 q 882 663 852 733 q 912 515 912 594 m 940 515 q 908 675 940 600 q 820 805 876 750 q 690 893 765 861 q 530 926 615 926 q 370 893 445 926 q 239 805 295 861 q 150 675 183 750 q 118 515 118 600 q 150 356 118 430 q 239 225 183 281 q 370 136 295 169 q 530 104 445 104 q 690 136 615 104 q 820 225 765 169 q 908 356 876 281 q 940 515 940 430 m 982 144 l 945 144 l 945 49 l 919 49 l 919 144 l 884 144 l 884 167 l 982 167 l 982 144 m 1005 515 q 968 330 1005 416 q 866 179 930 244 q 714 76 801 114 q 530 39 627 39 q 345 76 431 39 q 195 179 259 114 q 93 330 130 244 q 55 515 55 416 q 93 700 55 614 q 195 852 130 787 q 345 954 259 916 q 530 992 431 992 q 714 954 627 992 q 866 852 801 916 q 968 700 930 787 q 1005 515 1005 614 m 1105 49 l 1084 49 l 1084 144 l 1061 49 l 1038 49 l 1015 144 l 1015 49 l 993 49 l 993 166 l 1027 166 l 1051 75 l 1070 166 l 1105 166 l 1105 49 "}}}
